<?xml version="1.0" encoding="UTF-8" standalone="no"?>
<!DOCTYPE svg PUBLIC "-//W3C//DTD SVG 1.1//EN"
 "http://www.w3.org/Graphics/SVG/1.1/DTD/svg11.dtd">
<!-- Generated by graphviz version 2.38.0 (20140413.2041)
 -->
<!-- Title: Tree Pages: 1 -->
<svg width="1602pt" height="552pt"
 viewBox="0.00 0.00 1601.50 552.00" xmlns="http://www.w3.org/2000/svg" xmlns:xlink="http://www.w3.org/1999/xlink">
<g id="graph0" class="graph" transform="scale(1 1) rotate(0) translate(4 548)">
<title>Tree</title>
<polygon fill="white" stroke="none" points="-4,4 -4,-548 1597.5,-548 1597.5,4 -4,4"/>
<!-- 0 -->
<g id="node1" class="node"><title>0</title>
<path fill="none" stroke="black" d="M1067,-544C1067,-544 888,-544 888,-544 882,-544 876,-538 876,-532 876,-532 876,-473 876,-473 876,-467 882,-461 888,-461 888,-461 1067,-461 1067,-461 1073,-461 1079,-467 1079,-473 1079,-473 1079,-532 1079,-532 1079,-538 1073,-544 1067,-544"/>
<text text-anchor="start" x="905.5" y="-528.8" font-family="Helvetica,sans-Serif" font-size="14.00">$for^6_{min}$ ≤ &#45;8.672</text>
<text text-anchor="start" x="927.5" y="-513.8" font-family="Helvetica,sans-Serif" font-size="14.00">entropy = 0.982</text>
<text text-anchor="start" x="926" y="-498.8" font-family="Helvetica,sans-Serif" font-size="14.00">samples = 9622</text>
<text text-anchor="start" x="884" y="-483.8" font-family="Helvetica,sans-Serif" font-size="14.00">value = [7582, 38, 1009, 993]</text>
<text text-anchor="start" x="948.5" y="-468.8" font-family="Helvetica,sans-Serif" font-size="14.00">class = 0</text>
</g>
<!-- 1 -->
<g id="node2" class="node"><title>1</title>
<path fill="none" stroke="black" d="M881.5,-425C881.5,-425 727.5,-425 727.5,-425 721.5,-425 715.5,-419 715.5,-413 715.5,-413 715.5,-354 715.5,-354 715.5,-348 721.5,-342 727.5,-342 727.5,-342 881.5,-342 881.5,-342 887.5,-342 893.5,-348 893.5,-354 893.5,-354 893.5,-413 893.5,-413 893.5,-419 887.5,-425 881.5,-425"/>
<text text-anchor="start" x="736.5" y="-409.8" font-family="Helvetica,sans-Serif" font-size="14.00">$for^1_{std}$ ≤ 2.126</text>
<text text-anchor="start" x="758.5" y="-394.8" font-family="Helvetica,sans-Serif" font-size="14.00">entropy = 0.56</text>
<text text-anchor="start" x="753" y="-379.8" font-family="Helvetica,sans-Serif" font-size="14.00">samples = 8608</text>
<text text-anchor="start" x="723.5" y="-364.8" font-family="Helvetica,sans-Serif" font-size="14.00">value = [7580, 38, 985, 5]</text>
<text text-anchor="start" x="775.5" y="-349.8" font-family="Helvetica,sans-Serif" font-size="14.00">class = 0</text>
</g>
<!-- 0&#45;&gt;1 -->
<g id="edge1" class="edge"><title>0&#45;&gt;1</title>
<path fill="none" stroke="black" d="M917.479,-460.907C903.12,-451.197 887.685,-440.758 872.977,-430.811"/>
<polygon fill="black" stroke="black" points="874.66,-427.724 864.415,-425.021 870.738,-433.522 874.66,-427.724"/>
<text text-anchor="middle" x="869.155" y="-445.867" font-family="Helvetica,sans-Serif" font-size="14.00">True</text>
</g>
<!-- 14 -->
<g id="node15" class="node"><title>14</title>
<path fill="none" stroke="black" d="M1197,-425C1197,-425 1068,-425 1068,-425 1062,-425 1056,-419 1056,-413 1056,-413 1056,-354 1056,-354 1056,-348 1062,-342 1068,-342 1068,-342 1197,-342 1197,-342 1203,-342 1209,-348 1209,-354 1209,-354 1209,-413 1209,-413 1209,-419 1203,-425 1197,-425"/>
<text text-anchor="start" x="1064.5" y="-409.8" font-family="Helvetica,sans-Serif" font-size="14.00">$for^1_{std}$ ≤ 1.132</text>
<text text-anchor="start" x="1082.5" y="-394.8" font-family="Helvetica,sans-Serif" font-size="14.00">entropy = 0.182</text>
<text text-anchor="start" x="1081" y="-379.8" font-family="Helvetica,sans-Serif" font-size="14.00">samples = 1014</text>
<text text-anchor="start" x="1064" y="-364.8" font-family="Helvetica,sans-Serif" font-size="14.00">value = [2, 0, 24, 988]</text>
<text text-anchor="start" x="1103.5" y="-349.8" font-family="Helvetica,sans-Serif" font-size="14.00">class = 3</text>
</g>
<!-- 0&#45;&gt;14 -->
<g id="edge14" class="edge"><title>0&#45;&gt;14</title>
<path fill="none" stroke="black" d="M1031.28,-460.907C1044.02,-451.288 1057.71,-440.953 1070.78,-431.09"/>
<polygon fill="black" stroke="black" points="1072.95,-433.839 1078.82,-425.021 1068.73,-428.252 1072.95,-433.839"/>
<text text-anchor="middle" x="1075.36" y="-446.08" font-family="Helvetica,sans-Serif" font-size="14.00">False</text>
</g>
<!-- 2 -->
<g id="node3" class="node"><title>2</title>
<path fill="none" stroke="black" d="M554.5,-306C554.5,-306 400.5,-306 400.5,-306 394.5,-306 388.5,-300 388.5,-294 388.5,-294 388.5,-235 388.5,-235 388.5,-229 394.5,-223 400.5,-223 400.5,-223 554.5,-223 554.5,-223 560.5,-223 566.5,-229 566.5,-235 566.5,-235 566.5,-294 566.5,-294 566.5,-300 560.5,-306 554.5,-306"/>
<text text-anchor="start" x="406" y="-290.8" font-family="Helvetica,sans-Serif" font-size="14.00">$for^3_{max}$ ≤ 6.072</text>
<text text-anchor="start" x="427.5" y="-275.8" font-family="Helvetica,sans-Serif" font-size="14.00">entropy = 0.177</text>
<text text-anchor="start" x="426" y="-260.8" font-family="Helvetica,sans-Serif" font-size="14.00">samples = 7719</text>
<text text-anchor="start" x="396.5" y="-245.8" font-family="Helvetica,sans-Serif" font-size="14.00">value = [7545, 38, 131, 5]</text>
<text text-anchor="start" x="448.5" y="-230.8" font-family="Helvetica,sans-Serif" font-size="14.00">class = 0</text>
</g>
<!-- 1&#45;&gt;2 -->
<g id="edge2" class="edge"><title>1&#45;&gt;2</title>
<path fill="none" stroke="black" d="M715.146,-350.529C672.16,-335.149 620.499,-316.665 576.339,-300.864"/>
<polygon fill="black" stroke="black" points="577.341,-297.506 566.746,-297.432 574.983,-304.096 577.341,-297.506"/>
</g>
<!-- 9 -->
<g id="node10" class="node"><title>9</title>
<path fill="none" stroke="black" d="M876,-306C876,-306 733,-306 733,-306 727,-306 721,-300 721,-294 721,-294 721,-235 721,-235 721,-229 727,-223 733,-223 733,-223 876,-223 876,-223 882,-223 888,-229 888,-235 888,-235 888,-294 888,-294 888,-300 882,-306 876,-306"/>
<text text-anchor="start" x="729" y="-290.8" font-family="Helvetica,sans-Serif" font-size="14.00">$for^5_{max}$ ≤ 55.632</text>
<text text-anchor="start" x="754.5" y="-275.8" font-family="Helvetica,sans-Serif" font-size="14.00">entropy = 0.239</text>
<text text-anchor="start" x="757" y="-260.8" font-family="Helvetica,sans-Serif" font-size="14.00">samples = 889</text>
<text text-anchor="start" x="736" y="-245.8" font-family="Helvetica,sans-Serif" font-size="14.00">value = [35, 0, 854, 0]</text>
<text text-anchor="start" x="775.5" y="-230.8" font-family="Helvetica,sans-Serif" font-size="14.00">class = 2</text>
</g>
<!-- 1&#45;&gt;9 -->
<g id="edge9" class="edge"><title>1&#45;&gt;9</title>
<path fill="none" stroke="black" d="M804.5,-341.907C804.5,-333.649 804.5,-324.864 804.5,-316.302"/>
<polygon fill="black" stroke="black" points="808,-316.021 804.5,-306.021 801,-316.021 808,-316.021"/>
</g>
<!-- 3 -->
<g id="node4" class="node"><title>3</title>
<path fill="none" stroke="black" d="M304.5,-187C304.5,-187 158.5,-187 158.5,-187 152.5,-187 146.5,-181 146.5,-175 146.5,-175 146.5,-116 146.5,-116 146.5,-110 152.5,-104 158.5,-104 158.5,-104 304.5,-104 304.5,-104 310.5,-104 316.5,-110 316.5,-116 316.5,-116 316.5,-175 316.5,-175 316.5,-181 310.5,-187 304.5,-187"/>
<text text-anchor="start" x="154.5" y="-171.8" font-family="Helvetica,sans-Serif" font-size="14.00">$for^4_{min&#45;ind}$ ≤ 24.5</text>
<text text-anchor="start" x="181.5" y="-156.8" font-family="Helvetica,sans-Serif" font-size="14.00">entropy = 0.658</text>
<text text-anchor="start" x="184" y="-141.8" font-family="Helvetica,sans-Serif" font-size="14.00">samples = 127</text>
<text text-anchor="start" x="163" y="-126.8" font-family="Helvetica,sans-Serif" font-size="14.00">value = [14, 0, 110, 3]</text>
<text text-anchor="start" x="202.5" y="-111.8" font-family="Helvetica,sans-Serif" font-size="14.00">class = 2</text>
</g>
<!-- 2&#45;&gt;3 -->
<g id="edge3" class="edge"><title>2&#45;&gt;3</title>
<path fill="none" stroke="black" d="M392.152,-222.907C370.781,-212.743 347.732,-201.781 325.948,-191.42"/>
<polygon fill="black" stroke="black" points="327.232,-188.155 316.698,-187.021 324.225,-194.477 327.232,-188.155"/>
</g>
<!-- 6 -->
<g id="node7" class="node"><title>6</title>
<path fill="none" stroke="black" d="M552.5,-187C552.5,-187 402.5,-187 402.5,-187 396.5,-187 390.5,-181 390.5,-175 390.5,-175 390.5,-116 390.5,-116 390.5,-110 396.5,-104 402.5,-104 402.5,-104 552.5,-104 552.5,-104 558.5,-104 564.5,-110 564.5,-116 564.5,-116 564.5,-175 564.5,-175 564.5,-181 558.5,-187 552.5,-187"/>
<text text-anchor="start" x="398.5" y="-171.8" font-family="Helvetica,sans-Serif" font-size="14.00">$pos^1_{max}$ ≤ 61.299</text>
<text text-anchor="start" x="427.5" y="-156.8" font-family="Helvetica,sans-Serif" font-size="14.00">entropy = 0.076</text>
<text text-anchor="start" x="426" y="-141.8" font-family="Helvetica,sans-Serif" font-size="14.00">samples = 7592</text>
<text text-anchor="start" x="400.5" y="-126.8" font-family="Helvetica,sans-Serif" font-size="14.00">value = [7531, 38, 21, 2]</text>
<text text-anchor="start" x="448.5" y="-111.8" font-family="Helvetica,sans-Serif" font-size="14.00">class = 0</text>
</g>
<!-- 2&#45;&gt;6 -->
<g id="edge6" class="edge"><title>2&#45;&gt;6</title>
<path fill="none" stroke="black" d="M477.5,-222.907C477.5,-214.649 477.5,-205.864 477.5,-197.302"/>
<polygon fill="black" stroke="black" points="481,-197.021 477.5,-187.021 474,-197.021 481,-197.021"/>
</g>
<!-- 4 -->
<g id="node5" class="node"><title>4</title>
<path fill="none" stroke="black" d="M133,-68C133,-68 12,-68 12,-68 6,-68 0,-62 0,-56 0,-56 0,-12 0,-12 0,-6 6,-0 12,-0 12,-0 133,-0 133,-0 139,-0 145,-6 145,-12 145,-12 145,-56 145,-56 145,-62 139,-68 133,-68"/>
<text text-anchor="start" x="22.5" y="-52.8" font-family="Helvetica,sans-Serif" font-size="14.00">entropy = 0.178</text>
<text text-anchor="start" x="25" y="-37.8" font-family="Helvetica,sans-Serif" font-size="14.00">samples = 112</text>
<text text-anchor="start" x="8" y="-22.8" font-family="Helvetica,sans-Serif" font-size="14.00">value = [0, 0, 109, 3]</text>
<text text-anchor="start" x="43.5" y="-7.8" font-family="Helvetica,sans-Serif" font-size="14.00">class = 2</text>
</g>
<!-- 3&#45;&gt;4 -->
<g id="edge4" class="edge"><title>3&#45;&gt;4</title>
<path fill="none" stroke="black" d="M172.294,-103.726C158.183,-94.0078 143.157,-83.6597 129.162,-74.0222"/>
<polygon fill="black" stroke="black" points="130.821,-70.9146 120.6,-68.1252 126.85,-76.6797 130.821,-70.9146"/>
</g>
<!-- 5 -->
<g id="node6" class="node"><title>5</title>
<path fill="none" stroke="black" d="M288,-68C288,-68 175,-68 175,-68 169,-68 163,-62 163,-56 163,-56 163,-12 163,-12 163,-6 169,-0 175,-0 175,-0 288,-0 288,-0 294,-0 300,-6 300,-12 300,-12 300,-56 300,-56 300,-62 294,-68 288,-68"/>
<text text-anchor="start" x="181.5" y="-52.8" font-family="Helvetica,sans-Serif" font-size="14.00">entropy = 0.353</text>
<text text-anchor="start" x="188" y="-37.8" font-family="Helvetica,sans-Serif" font-size="14.00">samples = 15</text>
<text text-anchor="start" x="171" y="-22.8" font-family="Helvetica,sans-Serif" font-size="14.00">value = [14, 0, 1, 0]</text>
<text text-anchor="start" x="202.5" y="-7.8" font-family="Helvetica,sans-Serif" font-size="14.00">class = 0</text>
</g>
<!-- 3&#45;&gt;5 -->
<g id="edge5" class="edge"><title>3&#45;&gt;5</title>
<path fill="none" stroke="black" d="M231.5,-103.726C231.5,-95.5175 231.5,-86.8595 231.5,-78.56"/>
<polygon fill="black" stroke="black" points="235,-78.2996 231.5,-68.2996 228,-78.2996 235,-78.2996"/>
</g>
<!-- 7 -->
<g id="node8" class="node"><title>7</title>
<path fill="none" stroke="black" d="M443,-68C443,-68 330,-68 330,-68 324,-68 318,-62 318,-56 318,-56 318,-12 318,-12 318,-6 324,-0 330,-0 330,-0 443,-0 443,-0 449,-0 455,-6 455,-12 455,-12 455,-56 455,-56 455,-62 449,-68 443,-68"/>
<text text-anchor="start" x="344.5" y="-52.8" font-family="Helvetica,sans-Serif" font-size="14.00">entropy = 0.0</text>
<text text-anchor="start" x="343" y="-37.8" font-family="Helvetica,sans-Serif" font-size="14.00">samples = 38</text>
<text text-anchor="start" x="326" y="-22.8" font-family="Helvetica,sans-Serif" font-size="14.00">value = [0, 38, 0, 0]</text>
<text text-anchor="start" x="357.5" y="-7.8" font-family="Helvetica,sans-Serif" font-size="14.00">class = 1</text>
</g>
<!-- 6&#45;&gt;7 -->
<g id="edge7" class="edge"><title>6&#45;&gt;7</title>
<path fill="none" stroke="black" d="M443.615,-103.726C436.111,-94.6966 428.155,-85.1235 420.641,-76.0816"/>
<polygon fill="black" stroke="black" points="423.257,-73.7534 414.174,-68.2996 417.873,-78.2275 423.257,-73.7534"/>
</g>
<!-- 8 -->
<g id="node9" class="node"><title>8</title>
<path fill="none" stroke="black" d="M622,-68C622,-68 485,-68 485,-68 479,-68 473,-62 473,-56 473,-56 473,-12 473,-12 473,-6 479,-0 485,-0 485,-0 622,-0 622,-0 628,-0 634,-6 634,-12 634,-12 634,-56 634,-56 634,-62 628,-68 622,-68"/>
<text text-anchor="start" x="503.5" y="-52.8" font-family="Helvetica,sans-Serif" font-size="14.00">entropy = 0.031</text>
<text text-anchor="start" x="502" y="-37.8" font-family="Helvetica,sans-Serif" font-size="14.00">samples = 7554</text>
<text text-anchor="start" x="481" y="-22.8" font-family="Helvetica,sans-Serif" font-size="14.00">value = [7531, 0, 21, 2]</text>
<text text-anchor="start" x="524.5" y="-7.8" font-family="Helvetica,sans-Serif" font-size="14.00">class = 0</text>
</g>
<!-- 6&#45;&gt;8 -->
<g id="edge8" class="edge"><title>6&#45;&gt;8</title>
<path fill="none" stroke="black" d="M505.8,-103.726C511.94,-94.879 518.443,-85.51 524.606,-76.6303"/>
<polygon fill="black" stroke="black" points="527.561,-78.5104 530.388,-68.2996 521.811,-74.5191 527.561,-78.5104"/>
</g>
<!-- 10 -->
<g id="node11" class="node"><title>10</title>
<path fill="none" stroke="black" d="M799.5,-187C799.5,-187 649.5,-187 649.5,-187 643.5,-187 637.5,-181 637.5,-175 637.5,-175 637.5,-116 637.5,-116 637.5,-110 643.5,-104 649.5,-104 649.5,-104 799.5,-104 799.5,-104 805.5,-104 811.5,-110 811.5,-116 811.5,-116 811.5,-175 811.5,-175 811.5,-181 805.5,-187 799.5,-187"/>
<text text-anchor="start" x="645.5" y="-171.8" font-family="Helvetica,sans-Serif" font-size="14.00">$pos^1_{max}$ ≤ 61.986</text>
<text text-anchor="start" x="674.5" y="-156.8" font-family="Helvetica,sans-Serif" font-size="14.00">entropy = 0.013</text>
<text text-anchor="start" x="677" y="-141.8" font-family="Helvetica,sans-Serif" font-size="14.00">samples = 855</text>
<text text-anchor="start" x="660" y="-126.8" font-family="Helvetica,sans-Serif" font-size="14.00">value = [1, 0, 854, 0]</text>
<text text-anchor="start" x="695.5" y="-111.8" font-family="Helvetica,sans-Serif" font-size="14.00">class = 2</text>
</g>
<!-- 9&#45;&gt;10 -->
<g id="edge10" class="edge"><title>9&#45;&gt;10</title>
<path fill="none" stroke="black" d="M776.744,-222.907C770.663,-214.014 764.164,-204.509 757.889,-195.331"/>
<polygon fill="black" stroke="black" points="760.74,-193.3 752.207,-187.021 754.962,-197.251 760.74,-193.3"/>
</g>
<!-- 13 -->
<g id="node14" class="node"><title>13</title>
<path fill="none" stroke="black" d="M955,-179.5C955,-179.5 842,-179.5 842,-179.5 836,-179.5 830,-173.5 830,-167.5 830,-167.5 830,-123.5 830,-123.5 830,-117.5 836,-111.5 842,-111.5 842,-111.5 955,-111.5 955,-111.5 961,-111.5 967,-117.5 967,-123.5 967,-123.5 967,-167.5 967,-167.5 967,-173.5 961,-179.5 955,-179.5"/>
<text text-anchor="start" x="856.5" y="-164.3" font-family="Helvetica,sans-Serif" font-size="14.00">entropy = 0.0</text>
<text text-anchor="start" x="855" y="-149.3" font-family="Helvetica,sans-Serif" font-size="14.00">samples = 34</text>
<text text-anchor="start" x="838" y="-134.3" font-family="Helvetica,sans-Serif" font-size="14.00">value = [34, 0, 0, 0]</text>
<text text-anchor="start" x="869.5" y="-119.3" font-family="Helvetica,sans-Serif" font-size="14.00">class = 0</text>
</g>
<!-- 9&#45;&gt;13 -->
<g id="edge13" class="edge"><title>9&#45;&gt;13</title>
<path fill="none" stroke="black" d="M837.113,-222.907C846.244,-211.542 856.177,-199.178 865.34,-187.774"/>
<polygon fill="black" stroke="black" points="868.318,-189.655 871.853,-179.667 862.861,-185.271 868.318,-189.655"/>
</g>
<!-- 11 -->
<g id="node12" class="node"><title>11</title>
<path fill="none" stroke="black" d="M785,-68C785,-68 664,-68 664,-68 658,-68 652,-62 652,-56 652,-56 652,-12 652,-12 652,-6 658,-0 664,-0 664,-0 785,-0 785,-0 791,-0 797,-6 797,-12 797,-12 797,-56 797,-56 797,-62 791,-68 785,-68"/>
<text text-anchor="start" x="682.5" y="-52.8" font-family="Helvetica,sans-Serif" font-size="14.00">entropy = 0.0</text>
<text text-anchor="start" x="677" y="-37.8" font-family="Helvetica,sans-Serif" font-size="14.00">samples = 854</text>
<text text-anchor="start" x="660" y="-22.8" font-family="Helvetica,sans-Serif" font-size="14.00">value = [0, 0, 854, 0]</text>
<text text-anchor="start" x="695.5" y="-7.8" font-family="Helvetica,sans-Serif" font-size="14.00">class = 2</text>
</g>
<!-- 10&#45;&gt;11 -->
<g id="edge11" class="edge"><title>10&#45;&gt;11</title>
<path fill="none" stroke="black" d="M724.5,-103.726C724.5,-95.5175 724.5,-86.8595 724.5,-78.56"/>
<polygon fill="black" stroke="black" points="728,-78.2996 724.5,-68.2996 721,-78.2996 728,-78.2996"/>
</g>
<!-- 12 -->
<g id="node13" class="node"><title>12</title>
<path fill="none" stroke="black" d="M931.5,-68C931.5,-68 827.5,-68 827.5,-68 821.5,-68 815.5,-62 815.5,-56 815.5,-56 815.5,-12 815.5,-12 815.5,-6 821.5,-0 827.5,-0 827.5,-0 931.5,-0 931.5,-0 937.5,-0 943.5,-6 943.5,-12 943.5,-12 943.5,-56 943.5,-56 943.5,-62 937.5,-68 931.5,-68"/>
<text text-anchor="start" x="837.5" y="-52.8" font-family="Helvetica,sans-Serif" font-size="14.00">entropy = 0.0</text>
<text text-anchor="start" x="840" y="-37.8" font-family="Helvetica,sans-Serif" font-size="14.00">samples = 1</text>
<text text-anchor="start" x="823.5" y="-22.8" font-family="Helvetica,sans-Serif" font-size="14.00">value = [1, 0, 0, 0]</text>
<text text-anchor="start" x="850.5" y="-7.8" font-family="Helvetica,sans-Serif" font-size="14.00">class = 0</text>
</g>
<!-- 10&#45;&gt;12 -->
<g id="edge12" class="edge"><title>10&#45;&gt;12</title>
<path fill="none" stroke="black" d="M782.216,-103.726C795.902,-94.0582 810.469,-83.767 824.051,-74.172"/>
<polygon fill="black" stroke="black" points="826.216,-76.9282 832.364,-68.2996 822.177,-71.2109 826.216,-76.9282"/>
</g>
<!-- 15 -->
<g id="node16" class="node"><title>15</title>
<path fill="none" stroke="black" d="M1204,-306C1204,-306 1061,-306 1061,-306 1055,-306 1049,-300 1049,-294 1049,-294 1049,-235 1049,-235 1049,-229 1055,-223 1061,-223 1061,-223 1204,-223 1204,-223 1210,-223 1216,-229 1216,-235 1216,-235 1216,-294 1216,-294 1216,-300 1210,-306 1204,-306"/>
<text text-anchor="start" x="1057" y="-290.8" font-family="Helvetica,sans-Serif" font-size="14.00">$for^3_{max}$ ≤ 15.571</text>
<text text-anchor="start" x="1082.5" y="-275.8" font-family="Helvetica,sans-Serif" font-size="14.00">entropy = 0.139</text>
<text text-anchor="start" x="1081" y="-260.8" font-family="Helvetica,sans-Serif" font-size="14.00">samples = 1005</text>
<text text-anchor="start" x="1064" y="-245.8" font-family="Helvetica,sans-Serif" font-size="14.00">value = [2, 0, 16, 987]</text>
<text text-anchor="start" x="1103.5" y="-230.8" font-family="Helvetica,sans-Serif" font-size="14.00">class = 3</text>
</g>
<!-- 14&#45;&gt;15 -->
<g id="edge15" class="edge"><title>14&#45;&gt;15</title>
<path fill="none" stroke="black" d="M1132.5,-341.907C1132.5,-333.649 1132.5,-324.864 1132.5,-316.302"/>
<polygon fill="black" stroke="black" points="1136,-316.021 1132.5,-306.021 1129,-316.021 1136,-316.021"/>
</g>
<!-- 20 -->
<g id="node21" class="node"><title>20</title>
<path fill="none" stroke="black" d="M1458,-306C1458,-306 1309,-306 1309,-306 1303,-306 1297,-300 1297,-294 1297,-294 1297,-235 1297,-235 1297,-229 1303,-223 1309,-223 1309,-223 1458,-223 1458,-223 1464,-223 1470,-229 1470,-235 1470,-235 1470,-294 1470,-294 1470,-300 1464,-306 1458,-306"/>
<text text-anchor="start" x="1305" y="-290.8" font-family="Helvetica,sans-Serif" font-size="14.00">$for^6_{mean}$ ≤ &#45;0.319</text>
<text text-anchor="start" x="1333.5" y="-275.8" font-family="Helvetica,sans-Serif" font-size="14.00">entropy = 0.503</text>
<text text-anchor="start" x="1344" y="-260.8" font-family="Helvetica,sans-Serif" font-size="14.00">samples = 9</text>
<text text-anchor="start" x="1327.5" y="-245.8" font-family="Helvetica,sans-Serif" font-size="14.00">value = [0, 0, 8, 1]</text>
<text text-anchor="start" x="1354.5" y="-230.8" font-family="Helvetica,sans-Serif" font-size="14.00">class = 2</text>
</g>
<!-- 14&#45;&gt;20 -->
<g id="edge20" class="edge"><title>14&#45;&gt;20</title>
<path fill="none" stroke="black" d="M1209.17,-346.76C1233.93,-335.218 1261.7,-322.276 1287.67,-310.171"/>
<polygon fill="black" stroke="black" points="1289.18,-313.326 1296.77,-305.929 1286.23,-306.981 1289.18,-313.326"/>
</g>
<!-- 16 -->
<g id="node17" class="node"><title>16</title>
<path fill="none" stroke="black" d="M1143.5,-187C1143.5,-187 997.5,-187 997.5,-187 991.5,-187 985.5,-181 985.5,-175 985.5,-175 985.5,-116 985.5,-116 985.5,-110 991.5,-104 997.5,-104 997.5,-104 1143.5,-104 1143.5,-104 1149.5,-104 1155.5,-110 1155.5,-116 1155.5,-116 1155.5,-175 1155.5,-175 1155.5,-181 1149.5,-187 1143.5,-187"/>
<text text-anchor="start" x="993.5" y="-171.8" font-family="Helvetica,sans-Serif" font-size="14.00">$for^2_{min&#45;ind}$ ≤ 65.5</text>
<text text-anchor="start" x="1020.5" y="-156.8" font-family="Helvetica,sans-Serif" font-size="14.00">entropy = 0.118</text>
<text text-anchor="start" x="1019" y="-141.8" font-family="Helvetica,sans-Serif" font-size="14.00">samples = 1003</text>
<text text-anchor="start" x="1002" y="-126.8" font-family="Helvetica,sans-Serif" font-size="14.00">value = [0, 0, 16, 987]</text>
<text text-anchor="start" x="1041.5" y="-111.8" font-family="Helvetica,sans-Serif" font-size="14.00">class = 3</text>
</g>
<!-- 15&#45;&gt;16 -->
<g id="edge16" class="edge"><title>15&#45;&gt;16</title>
<path fill="none" stroke="black" d="M1110.99,-222.907C1106.37,-214.195 1101.45,-204.897 1096.67,-195.893"/>
<polygon fill="black" stroke="black" points="1099.75,-194.218 1091.97,-187.021 1093.56,-197.496 1099.75,-194.218"/>
</g>
<!-- 19 -->
<g id="node20" class="node"><title>19</title>
<path fill="none" stroke="black" d="M1289.5,-179.5C1289.5,-179.5 1185.5,-179.5 1185.5,-179.5 1179.5,-179.5 1173.5,-173.5 1173.5,-167.5 1173.5,-167.5 1173.5,-123.5 1173.5,-123.5 1173.5,-117.5 1179.5,-111.5 1185.5,-111.5 1185.5,-111.5 1289.5,-111.5 1289.5,-111.5 1295.5,-111.5 1301.5,-117.5 1301.5,-123.5 1301.5,-123.5 1301.5,-167.5 1301.5,-167.5 1301.5,-173.5 1295.5,-179.5 1289.5,-179.5"/>
<text text-anchor="start" x="1195.5" y="-164.3" font-family="Helvetica,sans-Serif" font-size="14.00">entropy = 0.0</text>
<text text-anchor="start" x="1198" y="-149.3" font-family="Helvetica,sans-Serif" font-size="14.00">samples = 2</text>
<text text-anchor="start" x="1181.5" y="-134.3" font-family="Helvetica,sans-Serif" font-size="14.00">value = [2, 0, 0, 0]</text>
<text text-anchor="start" x="1208.5" y="-119.3" font-family="Helvetica,sans-Serif" font-size="14.00">class = 0</text>
</g>
<!-- 15&#45;&gt;19 -->
<g id="edge19" class="edge"><title>15&#45;&gt;19</title>
<path fill="none" stroke="black" d="M1168.93,-222.907C1179.33,-211.321 1190.66,-198.698 1201.05,-187.111"/>
<polygon fill="black" stroke="black" points="1203.66,-189.447 1207.73,-179.667 1198.45,-184.772 1203.66,-189.447"/>
</g>
<!-- 17 -->
<g id="node18" class="node"><title>17</title>
<path fill="none" stroke="black" d="M1113,-68C1113,-68 992,-68 992,-68 986,-68 980,-62 980,-56 980,-56 980,-12 980,-12 980,-6 986,-0 992,-0 992,-0 1113,-0 1113,-0 1119,-0 1125,-6 1125,-12 1125,-12 1125,-56 1125,-56 1125,-62 1119,-68 1113,-68"/>
<text text-anchor="start" x="1006.5" y="-52.8" font-family="Helvetica,sans-Serif" font-size="14.00">entropy = 0.02</text>
<text text-anchor="start" x="1005" y="-37.8" font-family="Helvetica,sans-Serif" font-size="14.00">samples = 530</text>
<text text-anchor="start" x="988" y="-22.8" font-family="Helvetica,sans-Serif" font-size="14.00">value = [0, 0, 1, 529]</text>
<text text-anchor="start" x="1023.5" y="-7.8" font-family="Helvetica,sans-Serif" font-size="14.00">class = 3</text>
</g>
<!-- 16&#45;&gt;17 -->
<g id="edge17" class="edge"><title>16&#45;&gt;17</title>
<path fill="none" stroke="black" d="M1063.8,-103.726C1062.43,-95.4263 1060.99,-86.6671 1059.62,-78.2834"/>
<polygon fill="black" stroke="black" points="1063.05,-77.5994 1057.97,-68.2996 1056.14,-78.7349 1063.05,-77.5994"/>
</g>
<!-- 18 -->
<g id="node19" class="node"><title>18</title>
<path fill="none" stroke="black" d="M1284,-68C1284,-68 1155,-68 1155,-68 1149,-68 1143,-62 1143,-56 1143,-56 1143,-12 1143,-12 1143,-6 1149,-0 1155,-0 1155,-0 1284,-0 1284,-0 1290,-0 1296,-6 1296,-12 1296,-12 1296,-56 1296,-56 1296,-62 1290,-68 1284,-68"/>
<text text-anchor="start" x="1169.5" y="-52.8" font-family="Helvetica,sans-Serif" font-size="14.00">entropy = 0.203</text>
<text text-anchor="start" x="1172" y="-37.8" font-family="Helvetica,sans-Serif" font-size="14.00">samples = 473</text>
<text text-anchor="start" x="1151" y="-22.8" font-family="Helvetica,sans-Serif" font-size="14.00">value = [0, 0, 15, 458]</text>
<text text-anchor="start" x="1190.5" y="-7.8" font-family="Helvetica,sans-Serif" font-size="14.00">class = 3</text>
</g>
<!-- 16&#45;&gt;18 -->
<g id="edge18" class="edge"><title>16&#45;&gt;18</title>
<path fill="none" stroke="black" d="M1125.98,-103.726C1139.01,-94.1494 1152.88,-83.9611 1165.83,-74.4438"/>
<polygon fill="black" stroke="black" points="1168.2,-77.0418 1174.19,-68.2996 1164.06,-71.4012 1168.2,-77.0418"/>
</g>
<!-- 21 -->
<g id="node22" class="node"><title>21</title>
<path fill="none" stroke="black" d="M1435.5,-179.5C1435.5,-179.5 1331.5,-179.5 1331.5,-179.5 1325.5,-179.5 1319.5,-173.5 1319.5,-167.5 1319.5,-167.5 1319.5,-123.5 1319.5,-123.5 1319.5,-117.5 1325.5,-111.5 1331.5,-111.5 1331.5,-111.5 1435.5,-111.5 1435.5,-111.5 1441.5,-111.5 1447.5,-117.5 1447.5,-123.5 1447.5,-123.5 1447.5,-167.5 1447.5,-167.5 1447.5,-173.5 1441.5,-179.5 1435.5,-179.5"/>
<text text-anchor="start" x="1341.5" y="-164.3" font-family="Helvetica,sans-Serif" font-size="14.00">entropy = 0.0</text>
<text text-anchor="start" x="1344" y="-149.3" font-family="Helvetica,sans-Serif" font-size="14.00">samples = 8</text>
<text text-anchor="start" x="1327.5" y="-134.3" font-family="Helvetica,sans-Serif" font-size="14.00">value = [0, 0, 8, 0]</text>
<text text-anchor="start" x="1354.5" y="-119.3" font-family="Helvetica,sans-Serif" font-size="14.00">class = 2</text>
</g>
<!-- 20&#45;&gt;21 -->
<g id="edge21" class="edge"><title>20&#45;&gt;21</title>
<path fill="none" stroke="black" d="M1383.5,-222.907C1383.5,-212.204 1383.5,-200.615 1383.5,-189.776"/>
<polygon fill="black" stroke="black" points="1387,-189.667 1383.5,-179.667 1380,-189.667 1387,-189.667"/>
</g>
<!-- 22 -->
<g id="node23" class="node"><title>22</title>
<path fill="none" stroke="black" d="M1581.5,-179.5C1581.5,-179.5 1477.5,-179.5 1477.5,-179.5 1471.5,-179.5 1465.5,-173.5 1465.5,-167.5 1465.5,-167.5 1465.5,-123.5 1465.5,-123.5 1465.5,-117.5 1471.5,-111.5 1477.5,-111.5 1477.5,-111.5 1581.5,-111.5 1581.5,-111.5 1587.5,-111.5 1593.5,-117.5 1593.5,-123.5 1593.5,-123.5 1593.5,-167.5 1593.5,-167.5 1593.5,-173.5 1587.5,-179.5 1581.5,-179.5"/>
<text text-anchor="start" x="1487.5" y="-164.3" font-family="Helvetica,sans-Serif" font-size="14.00">entropy = 0.0</text>
<text text-anchor="start" x="1490" y="-149.3" font-family="Helvetica,sans-Serif" font-size="14.00">samples = 1</text>
<text text-anchor="start" x="1473.5" y="-134.3" font-family="Helvetica,sans-Serif" font-size="14.00">value = [0, 0, 0, 1]</text>
<text text-anchor="start" x="1500.5" y="-119.3" font-family="Helvetica,sans-Serif" font-size="14.00">class = 3</text>
</g>
<!-- 20&#45;&gt;22 -->
<g id="edge22" class="edge"><title>20&#45;&gt;22</title>
<path fill="none" stroke="black" d="M1434.15,-222.907C1449.03,-210.99 1465.27,-197.976 1480.06,-186.12"/>
<polygon fill="black" stroke="black" points="1482.5,-188.652 1488.11,-179.667 1478.12,-183.189 1482.5,-188.652"/>
</g>
</g>
</svg>
