<?xml version="1.0" encoding="UTF-8" standalone="no"?>
<!DOCTYPE svg PUBLIC "-//W3C//DTD SVG 1.1//EN"
 "http://www.w3.org/Graphics/SVG/1.1/DTD/svg11.dtd">
<!-- Generated by graphviz version 2.38.0 (20140413.2041)
 -->
<!-- Title: Tree Pages: 1 -->
<svg width="948pt" height="671pt"
 viewBox="0.00 0.00 948.00 671.00" xmlns="http://www.w3.org/2000/svg" xmlns:xlink="http://www.w3.org/1999/xlink">
<g id="graph0" class="graph" transform="scale(1 1) rotate(0) translate(4 667)">
<title>Tree</title>
<polygon fill="white" stroke="none" points="-4,4 -4,-667 944,-667 944,4 -4,4"/>
<!-- 0 -->
<g id="node1" class="node"><title>0</title>
<path fill="none" stroke="black" d="M612,-663C612,-663 433,-663 433,-663 427,-663 421,-657 421,-651 421,-651 421,-592 421,-592 421,-586 427,-580 433,-580 433,-580 612,-580 612,-580 618,-580 624,-586 624,-592 624,-592 624,-651 624,-651 624,-657 618,-663 612,-663"/>
<text text-anchor="start" x="443.5" y="-647.8" font-family="Helvetica,sans-Serif" font-size="14.00">$pos^5_{max}$ ≤ 95.554</text>
<text text-anchor="start" x="472.5" y="-632.8" font-family="Helvetica,sans-Serif" font-size="14.00">entropy = 1.971</text>
<text text-anchor="start" x="471" y="-617.8" font-family="Helvetica,sans-Serif" font-size="14.00">samples = 3287</text>
<text text-anchor="start" x="429" y="-602.8" font-family="Helvetica,sans-Serif" font-size="14.00">value = [664, 944, 657, 1022]</text>
<text text-anchor="start" x="493.5" y="-587.8" font-family="Helvetica,sans-Serif" font-size="14.00">class = 3</text>
</g>
<!-- 1 -->
<g id="node2" class="node"><title>1</title>
<path fill="none" stroke="black" d="M501,-544C501,-544 358,-544 358,-544 352,-544 346,-538 346,-532 346,-532 346,-473 346,-473 346,-467 352,-461 358,-461 358,-461 501,-461 501,-461 507,-461 513,-467 513,-473 513,-473 513,-532 513,-532 513,-538 507,-544 501,-544"/>
<text text-anchor="start" x="354" y="-528.8" font-family="Helvetica,sans-Serif" font-size="14.00">$pos^4_{std}$ ≤ 13.985</text>
<text text-anchor="start" x="379.5" y="-513.8" font-family="Helvetica,sans-Serif" font-size="14.00">entropy = 0.971</text>
<text text-anchor="start" x="378" y="-498.8" font-family="Helvetica,sans-Serif" font-size="14.00">samples = 1663</text>
<text text-anchor="start" x="357" y="-483.8" font-family="Helvetica,sans-Serif" font-size="14.00">value = [664, 0, 0, 999]</text>
<text text-anchor="start" x="400.5" y="-468.8" font-family="Helvetica,sans-Serif" font-size="14.00">class = 3</text>
</g>
<!-- 0&#45;&gt;1 -->
<g id="edge1" class="edge"><title>0&#45;&gt;1</title>
<path fill="none" stroke="black" d="M490.234,-579.907C483.093,-570.923 475.456,-561.315 468.091,-552.05"/>
<polygon fill="black" stroke="black" points="470.671,-549.671 461.709,-544.021 465.191,-554.027 470.671,-549.671"/>
<text text-anchor="middle" x="458.87" y="-565.159" font-family="Helvetica,sans-Serif" font-size="14.00">True</text>
</g>
<!-- 10 -->
<g id="node11" class="node"><title>10</title>
<path fill="none" stroke="black" d="M689.5,-544C689.5,-544 543.5,-544 543.5,-544 537.5,-544 531.5,-538 531.5,-532 531.5,-532 531.5,-473 531.5,-473 531.5,-467 537.5,-461 543.5,-461 543.5,-461 689.5,-461 689.5,-461 695.5,-461 701.5,-467 701.5,-473 701.5,-473 701.5,-532 701.5,-532 701.5,-538 695.5,-544 689.5,-544"/>
<text text-anchor="start" x="543" y="-528.8" font-family="Helvetica,sans-Serif" font-size="14.00">$cur^4_{std}$ ≤ 732.12</text>
<text text-anchor="start" x="570.5" y="-513.8" font-family="Helvetica,sans-Serif" font-size="14.00">entropy = 1.07</text>
<text text-anchor="start" x="565" y="-498.8" font-family="Helvetica,sans-Serif" font-size="14.00">samples = 1624</text>
<text text-anchor="start" x="539.5" y="-483.8" font-family="Helvetica,sans-Serif" font-size="14.00">value = [0, 944, 657, 23]</text>
<text text-anchor="start" x="587.5" y="-468.8" font-family="Helvetica,sans-Serif" font-size="14.00">class = 1</text>
</g>
<!-- 0&#45;&gt;10 -->
<g id="edge10" class="edge"><title>0&#45;&gt;10</title>
<path fill="none" stroke="black" d="M555.113,-579.907C562.331,-570.923 570.05,-561.315 577.494,-552.05"/>
<polygon fill="black" stroke="black" points="580.41,-554.009 583.945,-544.021 574.953,-549.624 580.41,-554.009"/>
<text text-anchor="middle" x="586.654" y="-565.174" font-family="Helvetica,sans-Serif" font-size="14.00">False</text>
</g>
<!-- 2 -->
<g id="node3" class="node"><title>2</title>
<path fill="none" stroke="black" d="M333,-425C333,-425 166,-425 166,-425 160,-425 154,-419 154,-413 154,-413 154,-354 154,-354 154,-348 160,-342 166,-342 166,-342 333,-342 333,-342 339,-342 345,-348 345,-354 345,-354 345,-413 345,-413 345,-419 339,-425 333,-425"/>
<text text-anchor="start" x="162" y="-409.8" font-family="Helvetica,sans-Serif" font-size="14.00">$pos^4_{mean}$ ≤ 111.673</text>
<text text-anchor="start" x="199.5" y="-394.8" font-family="Helvetica,sans-Serif" font-size="14.00">entropy = 0.331</text>
<text text-anchor="start" x="202" y="-379.8" font-family="Helvetica,sans-Serif" font-size="14.00">samples = 707</text>
<text text-anchor="start" x="181" y="-364.8" font-family="Helvetica,sans-Serif" font-size="14.00">value = [664, 0, 0, 43]</text>
<text text-anchor="start" x="220.5" y="-349.8" font-family="Helvetica,sans-Serif" font-size="14.00">class = 0</text>
</g>
<!-- 1&#45;&gt;2 -->
<g id="edge2" class="edge"><title>1&#45;&gt;2</title>
<path fill="none" stroke="black" d="M367.05,-460.907C351.971,-451.106 335.751,-440.563 320.319,-430.533"/>
<polygon fill="black" stroke="black" points="322.132,-427.536 311.84,-425.021 318.317,-433.405 322.132,-427.536"/>
</g>
<!-- 9 -->
<g id="node10" class="node"><title>9</title>
<path fill="none" stroke="black" d="M496,-417.5C496,-417.5 375,-417.5 375,-417.5 369,-417.5 363,-411.5 363,-405.5 363,-405.5 363,-361.5 363,-361.5 363,-355.5 369,-349.5 375,-349.5 375,-349.5 496,-349.5 496,-349.5 502,-349.5 508,-355.5 508,-361.5 508,-361.5 508,-405.5 508,-405.5 508,-411.5 502,-417.5 496,-417.5"/>
<text text-anchor="start" x="393.5" y="-402.3" font-family="Helvetica,sans-Serif" font-size="14.00">entropy = 0.0</text>
<text text-anchor="start" x="388" y="-387.3" font-family="Helvetica,sans-Serif" font-size="14.00">samples = 956</text>
<text text-anchor="start" x="371" y="-372.3" font-family="Helvetica,sans-Serif" font-size="14.00">value = [0, 0, 0, 956]</text>
<text text-anchor="start" x="406.5" y="-357.3" font-family="Helvetica,sans-Serif" font-size="14.00">class = 3</text>
</g>
<!-- 1&#45;&gt;9 -->
<g id="edge9" class="edge"><title>1&#45;&gt;9</title>
<path fill="none" stroke="black" d="M431.582,-460.907C432.131,-450.204 432.725,-438.615 433.281,-427.776"/>
<polygon fill="black" stroke="black" points="436.782,-427.833 433.799,-417.667 429.791,-427.475 436.782,-427.833"/>
</g>
<!-- 3 -->
<g id="node4" class="node"><title>3</title>
<path fill="none" stroke="black" d="M240.5,-306C240.5,-306 78.5,-306 78.5,-306 72.5,-306 66.5,-300 66.5,-294 66.5,-294 66.5,-235 66.5,-235 66.5,-229 72.5,-223 78.5,-223 78.5,-223 240.5,-223 240.5,-223 246.5,-223 252.5,-229 252.5,-235 252.5,-235 252.5,-294 252.5,-294 252.5,-300 246.5,-306 240.5,-306"/>
<text text-anchor="start" x="74.5" y="-290.8" font-family="Helvetica,sans-Serif" font-size="14.00">$cur^4_{max}$ ≤ 5231.432</text>
<text text-anchor="start" x="109.5" y="-275.8" font-family="Helvetica,sans-Serif" font-size="14.00">entropy = 0.205</text>
<text text-anchor="start" x="112" y="-260.8" font-family="Helvetica,sans-Serif" font-size="14.00">samples = 686</text>
<text text-anchor="start" x="91" y="-245.8" font-family="Helvetica,sans-Serif" font-size="14.00">value = [664, 0, 0, 22]</text>
<text text-anchor="start" x="130.5" y="-230.8" font-family="Helvetica,sans-Serif" font-size="14.00">class = 0</text>
</g>
<!-- 2&#45;&gt;3 -->
<g id="edge3" class="edge"><title>2&#45;&gt;3</title>
<path fill="none" stroke="black" d="M218.275,-341.907C211.364,-332.923 203.973,-323.315 196.846,-314.05"/>
<polygon fill="black" stroke="black" points="199.541,-311.813 190.67,-306.021 193.993,-316.081 199.541,-311.813"/>
</g>
<!-- 8 -->
<g id="node9" class="node"><title>8</title>
<path fill="none" stroke="black" d="M396,-298.5C396,-298.5 283,-298.5 283,-298.5 277,-298.5 271,-292.5 271,-286.5 271,-286.5 271,-242.5 271,-242.5 271,-236.5 277,-230.5 283,-230.5 283,-230.5 396,-230.5 396,-230.5 402,-230.5 408,-236.5 408,-242.5 408,-242.5 408,-286.5 408,-286.5 408,-292.5 402,-298.5 396,-298.5"/>
<text text-anchor="start" x="297.5" y="-283.3" font-family="Helvetica,sans-Serif" font-size="14.00">entropy = 0.0</text>
<text text-anchor="start" x="296" y="-268.3" font-family="Helvetica,sans-Serif" font-size="14.00">samples = 21</text>
<text text-anchor="start" x="279" y="-253.3" font-family="Helvetica,sans-Serif" font-size="14.00">value = [0, 0, 0, 21]</text>
<text text-anchor="start" x="310.5" y="-238.3" font-family="Helvetica,sans-Serif" font-size="14.00">class = 3</text>
</g>
<!-- 2&#45;&gt;8 -->
<g id="edge8" class="edge"><title>2&#45;&gt;8</title>
<path fill="none" stroke="black" d="M280.725,-341.907C289.468,-330.542 298.978,-318.178 307.751,-306.774"/>
<polygon fill="black" stroke="black" points="310.664,-308.727 313.987,-298.667 305.116,-304.459 310.664,-308.727"/>
</g>
<!-- 4 -->
<g id="node5" class="node"><title>4</title>
<path fill="none" stroke="black" d="M133,-179.5C133,-179.5 12,-179.5 12,-179.5 6,-179.5 0,-173.5 0,-167.5 0,-167.5 0,-123.5 0,-123.5 0,-117.5 6,-111.5 12,-111.5 12,-111.5 133,-111.5 133,-111.5 139,-111.5 145,-117.5 145,-123.5 145,-123.5 145,-167.5 145,-167.5 145,-173.5 139,-179.5 133,-179.5"/>
<text text-anchor="start" x="30.5" y="-164.3" font-family="Helvetica,sans-Serif" font-size="14.00">entropy = 0.0</text>
<text text-anchor="start" x="25" y="-149.3" font-family="Helvetica,sans-Serif" font-size="14.00">samples = 641</text>
<text text-anchor="start" x="8" y="-134.3" font-family="Helvetica,sans-Serif" font-size="14.00">value = [641, 0, 0, 0]</text>
<text text-anchor="start" x="43.5" y="-119.3" font-family="Helvetica,sans-Serif" font-size="14.00">class = 0</text>
</g>
<!-- 3&#45;&gt;4 -->
<g id="edge4" class="edge"><title>3&#45;&gt;4</title>
<path fill="none" stroke="black" d="M129.316,-222.907C120.864,-211.542 111.671,-199.178 103.191,-187.774"/>
<polygon fill="black" stroke="black" points="105.938,-185.603 97.1626,-179.667 100.321,-189.78 105.938,-185.603"/>
</g>
<!-- 5 -->
<g id="node6" class="node"><title>5</title>
<path fill="none" stroke="black" d="M318,-187C318,-187 175,-187 175,-187 169,-187 163,-181 163,-175 163,-175 163,-116 163,-116 163,-110 169,-104 175,-104 175,-104 318,-104 318,-104 324,-104 330,-110 330,-116 330,-116 330,-175 330,-175 330,-181 324,-187 318,-187"/>
<text text-anchor="start" x="171" y="-171.8" font-family="Helvetica,sans-Serif" font-size="14.00">$pos^4_{std}$ ≤ 12.871</text>
<text text-anchor="start" x="204.5" y="-156.8" font-family="Helvetica,sans-Serif" font-size="14.00">entropy = 1.0</text>
<text text-anchor="start" x="203" y="-141.8" font-family="Helvetica,sans-Serif" font-size="14.00">samples = 45</text>
<text text-anchor="start" x="182" y="-126.8" font-family="Helvetica,sans-Serif" font-size="14.00">value = [23, 0, 0, 22]</text>
<text text-anchor="start" x="217.5" y="-111.8" font-family="Helvetica,sans-Serif" font-size="14.00">class = 0</text>
</g>
<!-- 3&#45;&gt;5 -->
<g id="edge5" class="edge"><title>3&#45;&gt;5</title>
<path fill="none" stroke="black" d="M189.684,-222.907C196.365,-213.923 203.509,-204.315 210.399,-195.05"/>
<polygon fill="black" stroke="black" points="213.211,-197.134 216.369,-187.021 207.593,-192.957 213.211,-197.134"/>
</g>
<!-- 6 -->
<g id="node7" class="node"><title>6</title>
<path fill="none" stroke="black" d="M225,-68C225,-68 112,-68 112,-68 106,-68 100,-62 100,-56 100,-56 100,-12 100,-12 100,-6 106,-0 112,-0 112,-0 225,-0 225,-0 231,-0 237,-6 237,-12 237,-12 237,-56 237,-56 237,-62 231,-68 225,-68"/>
<text text-anchor="start" x="122.5" y="-52.8" font-family="Helvetica,sans-Serif" font-size="14.00">entropy = 0.25</text>
<text text-anchor="start" x="125" y="-37.8" font-family="Helvetica,sans-Serif" font-size="14.00">samples = 24</text>
<text text-anchor="start" x="108" y="-22.8" font-family="Helvetica,sans-Serif" font-size="14.00">value = [23, 0, 0, 1]</text>
<text text-anchor="start" x="139.5" y="-7.8" font-family="Helvetica,sans-Serif" font-size="14.00">class = 0</text>
</g>
<!-- 5&#45;&gt;6 -->
<g id="edge6" class="edge"><title>5&#45;&gt;6</title>
<path fill="none" stroke="black" d="M217.456,-103.726C211.154,-94.879 204.48,-85.51 198.154,-76.6303"/>
<polygon fill="black" stroke="black" points="200.873,-74.4138 192.22,-68.2996 195.171,-78.4751 200.873,-74.4138"/>
</g>
<!-- 7 -->
<g id="node8" class="node"><title>7</title>
<path fill="none" stroke="black" d="M380,-68C380,-68 267,-68 267,-68 261,-68 255,-62 255,-56 255,-56 255,-12 255,-12 255,-6 261,-0 267,-0 267,-0 380,-0 380,-0 386,-0 392,-6 392,-12 392,-12 392,-56 392,-56 392,-62 386,-68 380,-68"/>
<text text-anchor="start" x="281.5" y="-52.8" font-family="Helvetica,sans-Serif" font-size="14.00">entropy = 0.0</text>
<text text-anchor="start" x="280" y="-37.8" font-family="Helvetica,sans-Serif" font-size="14.00">samples = 21</text>
<text text-anchor="start" x="263" y="-22.8" font-family="Helvetica,sans-Serif" font-size="14.00">value = [0, 0, 0, 21]</text>
<text text-anchor="start" x="294.5" y="-7.8" font-family="Helvetica,sans-Serif" font-size="14.00">class = 3</text>
</g>
<!-- 5&#45;&gt;7 -->
<g id="edge7" class="edge"><title>5&#45;&gt;7</title>
<path fill="none" stroke="black" d="M275.172,-103.726C281.393,-94.879 287.982,-85.51 294.226,-76.6303"/>
<polygon fill="black" stroke="black" points="297.195,-78.4929 300.084,-68.2996 291.469,-74.4664 297.195,-78.4929"/>
</g>
<!-- 11 -->
<g id="node12" class="node"><title>11</title>
<path fill="none" stroke="black" d="M671,-417.5C671,-417.5 550,-417.5 550,-417.5 544,-417.5 538,-411.5 538,-405.5 538,-405.5 538,-361.5 538,-361.5 538,-355.5 544,-349.5 550,-349.5 550,-349.5 671,-349.5 671,-349.5 677,-349.5 683,-355.5 683,-361.5 683,-361.5 683,-405.5 683,-405.5 683,-411.5 677,-417.5 671,-417.5"/>
<text text-anchor="start" x="568.5" y="-402.3" font-family="Helvetica,sans-Serif" font-size="14.00">entropy = 0.0</text>
<text text-anchor="start" x="563" y="-387.3" font-family="Helvetica,sans-Serif" font-size="14.00">samples = 944</text>
<text text-anchor="start" x="546" y="-372.3" font-family="Helvetica,sans-Serif" font-size="14.00">value = [0, 944, 0, 0]</text>
<text text-anchor="start" x="581.5" y="-357.3" font-family="Helvetica,sans-Serif" font-size="14.00">class = 1</text>
</g>
<!-- 10&#45;&gt;11 -->
<g id="edge11" class="edge"><title>10&#45;&gt;11</title>
<path fill="none" stroke="black" d="M614.418,-460.907C613.869,-450.204 613.275,-438.615 612.719,-427.776"/>
<polygon fill="black" stroke="black" points="616.209,-427.475 612.201,-417.667 609.218,-427.833 616.209,-427.475"/>
</g>
<!-- 12 -->
<g id="node13" class="node"><title>12</title>
<path fill="none" stroke="black" d="M871.5,-425C871.5,-425 713.5,-425 713.5,-425 707.5,-425 701.5,-419 701.5,-413 701.5,-413 701.5,-354 701.5,-354 701.5,-348 707.5,-342 713.5,-342 713.5,-342 871.5,-342 871.5,-342 877.5,-342 883.5,-348 883.5,-354 883.5,-354 883.5,-413 883.5,-413 883.5,-419 877.5,-425 871.5,-425"/>
<text text-anchor="start" x="709.5" y="-409.8" font-family="Helvetica,sans-Serif" font-size="14.00">$pos^3_{max}$ ≤ 129.932</text>
<text text-anchor="start" x="742.5" y="-394.8" font-family="Helvetica,sans-Serif" font-size="14.00">entropy = 0.213</text>
<text text-anchor="start" x="745" y="-379.8" font-family="Helvetica,sans-Serif" font-size="14.00">samples = 680</text>
<text text-anchor="start" x="724" y="-364.8" font-family="Helvetica,sans-Serif" font-size="14.00">value = [0, 0, 657, 23]</text>
<text text-anchor="start" x="763.5" y="-349.8" font-family="Helvetica,sans-Serif" font-size="14.00">class = 2</text>
</g>
<!-- 10&#45;&gt;12 -->
<g id="edge12" class="edge"><title>10&#45;&gt;12</title>
<path fill="none" stroke="black" d="M677.562,-460.907C692.169,-451.197 707.872,-440.758 722.835,-430.811"/>
<polygon fill="black" stroke="black" points="725.155,-433.472 731.546,-425.021 721.28,-427.642 725.155,-433.472"/>
</g>
<!-- 13 -->
<g id="node14" class="node"><title>13</title>
<path fill="none" stroke="black" d="M773,-298.5C773,-298.5 652,-298.5 652,-298.5 646,-298.5 640,-292.5 640,-286.5 640,-286.5 640,-242.5 640,-242.5 640,-236.5 646,-230.5 652,-230.5 652,-230.5 773,-230.5 773,-230.5 779,-230.5 785,-236.5 785,-242.5 785,-242.5 785,-286.5 785,-286.5 785,-292.5 779,-298.5 773,-298.5"/>
<text text-anchor="start" x="670.5" y="-283.3" font-family="Helvetica,sans-Serif" font-size="14.00">entropy = 0.0</text>
<text text-anchor="start" x="665" y="-268.3" font-family="Helvetica,sans-Serif" font-size="14.00">samples = 657</text>
<text text-anchor="start" x="648" y="-253.3" font-family="Helvetica,sans-Serif" font-size="14.00">value = [0, 0, 657, 0]</text>
<text text-anchor="start" x="683.5" y="-238.3" font-family="Helvetica,sans-Serif" font-size="14.00">class = 2</text>
</g>
<!-- 12&#45;&gt;13 -->
<g id="edge13" class="edge"><title>12&#45;&gt;13</title>
<path fill="none" stroke="black" d="M764.744,-341.907C757.049,-330.652 748.683,-318.418 740.949,-307.106"/>
<polygon fill="black" stroke="black" points="743.712,-304.946 735.178,-298.667 737.933,-308.897 743.712,-304.946"/>
</g>
<!-- 14 -->
<g id="node15" class="node"><title>14</title>
<path fill="none" stroke="black" d="M928,-298.5C928,-298.5 815,-298.5 815,-298.5 809,-298.5 803,-292.5 803,-286.5 803,-286.5 803,-242.5 803,-242.5 803,-236.5 809,-230.5 815,-230.5 815,-230.5 928,-230.5 928,-230.5 934,-230.5 940,-236.5 940,-242.5 940,-242.5 940,-286.5 940,-286.5 940,-292.5 934,-298.5 928,-298.5"/>
<text text-anchor="start" x="829.5" y="-283.3" font-family="Helvetica,sans-Serif" font-size="14.00">entropy = 0.0</text>
<text text-anchor="start" x="828" y="-268.3" font-family="Helvetica,sans-Serif" font-size="14.00">samples = 23</text>
<text text-anchor="start" x="811" y="-253.3" font-family="Helvetica,sans-Serif" font-size="14.00">value = [0, 0, 0, 23]</text>
<text text-anchor="start" x="842.5" y="-238.3" font-family="Helvetica,sans-Serif" font-size="14.00">class = 3</text>
</g>
<!-- 12&#45;&gt;14 -->
<g id="edge14" class="edge"><title>12&#45;&gt;14</title>
<path fill="none" stroke="black" d="M819.909,-341.907C827.508,-330.652 835.769,-318.418 843.407,-307.106"/>
<polygon fill="black" stroke="black" points="846.41,-308.913 849.105,-298.667 840.609,-304.996 846.41,-308.913"/>
</g>
</g>
</svg>
