<?xml version="1.0" encoding="UTF-8" standalone="no"?>
<!DOCTYPE svg PUBLIC "-//W3C//DTD SVG 1.1//EN"
 "http://www.w3.org/Graphics/SVG/1.1/DTD/svg11.dtd">
<!-- Generated by graphviz version 2.38.0 (20140413.2041)
 -->
<!-- Title: Tree Pages: 1 -->
<svg width="1693pt" height="671pt"
 viewBox="0.00 0.00 1693.00 671.00" xmlns="http://www.w3.org/2000/svg" xmlns:xlink="http://www.w3.org/1999/xlink">
<g id="graph0" class="graph" transform="scale(1 1) rotate(0) translate(4 667)">
<title>Tree</title>
<polygon fill="white" stroke="none" points="-4,4 -4,-667 1689,-667 1689,4 -4,4"/>
<!-- 0 -->
<g id="node1" class="node"><title>0</title>
<path fill="none" stroke="black" d="M1166.5,-663C1166.5,-663 987.5,-663 987.5,-663 981.5,-663 975.5,-657 975.5,-651 975.5,-651 975.5,-592 975.5,-592 975.5,-586 981.5,-580 987.5,-580 987.5,-580 1166.5,-580 1166.5,-580 1172.5,-580 1178.5,-586 1178.5,-592 1178.5,-592 1178.5,-651 1178.5,-651 1178.5,-657 1172.5,-663 1166.5,-663"/>
<text text-anchor="start" x="1005" y="-647.8" font-family="Helvetica,sans-Serif" font-size="14.00">$for^6_{min}$ ≤ &#45;8.668</text>
<text text-anchor="start" x="1039.5" y="-632.8" font-family="Helvetica,sans-Serif" font-size="14.00">gini = 0.357</text>
<text text-anchor="start" x="1025.5" y="-617.8" font-family="Helvetica,sans-Serif" font-size="14.00">samples = 9622</text>
<text text-anchor="start" x="983.5" y="-602.8" font-family="Helvetica,sans-Serif" font-size="14.00">value = [7582, 38, 1009, 993]</text>
<text text-anchor="start" x="1048" y="-587.8" font-family="Helvetica,sans-Serif" font-size="14.00">class = 0</text>
</g>
<!-- 1 -->
<g id="node2" class="node"><title>1</title>
<path fill="none" stroke="black" d="M1023,-544C1023,-544 869,-544 869,-544 863,-544 857,-538 857,-532 857,-532 857,-473 857,-473 857,-467 863,-461 869,-461 869,-461 1023,-461 1023,-461 1029,-461 1035,-467 1035,-473 1035,-473 1035,-532 1035,-532 1035,-538 1029,-544 1023,-544"/>
<text text-anchor="start" x="878" y="-528.8" font-family="Helvetica,sans-Serif" font-size="14.00">$for^1_{std}$ ≤ 2.155</text>
<text text-anchor="start" x="908.5" y="-513.8" font-family="Helvetica,sans-Serif" font-size="14.00">gini = 0.211</text>
<text text-anchor="start" x="894.5" y="-498.8" font-family="Helvetica,sans-Serif" font-size="14.00">samples = 8608</text>
<text text-anchor="start" x="865" y="-483.8" font-family="Helvetica,sans-Serif" font-size="14.00">value = [7580, 38, 985, 5]</text>
<text text-anchor="start" x="917" y="-468.8" font-family="Helvetica,sans-Serif" font-size="14.00">class = 0</text>
</g>
<!-- 0&#45;&gt;1 -->
<g id="edge1" class="edge"><title>0&#45;&gt;1</title>
<path fill="none" stroke="black" d="M1031.55,-579.907C1021.08,-570.56 1009.86,-560.538 999.104,-550.929"/>
<polygon fill="black" stroke="black" points="1001.16,-548.072 991.369,-544.021 996.496,-553.293 1001.16,-548.072"/>
<text text-anchor="middle" x="992.779" y="-565.281" font-family="Helvetica,sans-Serif" font-size="14.00">True</text>
</g>
<!-- 18 -->
<g id="node19" class="node"><title>18</title>
<path fill="none" stroke="black" d="M1273.5,-544C1273.5,-544 1144.5,-544 1144.5,-544 1138.5,-544 1132.5,-538 1132.5,-532 1132.5,-532 1132.5,-473 1132.5,-473 1132.5,-467 1138.5,-461 1144.5,-461 1144.5,-461 1273.5,-461 1273.5,-461 1279.5,-461 1285.5,-467 1285.5,-473 1285.5,-473 1285.5,-532 1285.5,-532 1285.5,-538 1279.5,-544 1273.5,-544"/>
<text text-anchor="start" x="1141" y="-528.8" font-family="Helvetica,sans-Serif" font-size="14.00">$for^1_{std}$ ≤ 1.154</text>
<text text-anchor="start" x="1175.5" y="-513.8" font-family="Helvetica,sans-Serif" font-size="14.00">gini = 0.05</text>
<text text-anchor="start" x="1157.5" y="-498.8" font-family="Helvetica,sans-Serif" font-size="14.00">samples = 1014</text>
<text text-anchor="start" x="1140.5" y="-483.8" font-family="Helvetica,sans-Serif" font-size="14.00">value = [2, 0, 24, 988]</text>
<text text-anchor="start" x="1180" y="-468.8" font-family="Helvetica,sans-Serif" font-size="14.00">class = 3</text>
</g>
<!-- 0&#45;&gt;18 -->
<g id="edge18" class="edge"><title>0&#45;&gt;18</title>
<path fill="none" stroke="black" d="M1122.8,-579.907C1133.34,-570.56 1144.65,-560.538 1155.49,-550.929"/>
<polygon fill="black" stroke="black" points="1158.12,-553.273 1163.28,-544.021 1153.48,-548.035 1158.12,-553.273"/>
<text text-anchor="middle" x="1161.78" y="-565.276" font-family="Helvetica,sans-Serif" font-size="14.00">False</text>
</g>
<!-- 2 -->
<g id="node3" class="node"><title>2</title>
<path fill="none" stroke="black" d="M646,-425C646,-425 492,-425 492,-425 486,-425 480,-419 480,-413 480,-413 480,-354 480,-354 480,-348 486,-342 492,-342 492,-342 646,-342 646,-342 652,-342 658,-348 658,-354 658,-354 658,-413 658,-413 658,-419 652,-425 646,-425"/>
<text text-anchor="start" x="501.5" y="-409.8" font-family="Helvetica,sans-Serif" font-size="14.00">$for^3_{max}$ ≤ 5.68</text>
<text text-anchor="start" x="531.5" y="-394.8" font-family="Helvetica,sans-Serif" font-size="14.00">gini = 0.045</text>
<text text-anchor="start" x="517.5" y="-379.8" font-family="Helvetica,sans-Serif" font-size="14.00">samples = 7720</text>
<text text-anchor="start" x="488" y="-364.8" font-family="Helvetica,sans-Serif" font-size="14.00">value = [7545, 38, 132, 5]</text>
<text text-anchor="start" x="540" y="-349.8" font-family="Helvetica,sans-Serif" font-size="14.00">class = 0</text>
</g>
<!-- 1&#45;&gt;2 -->
<g id="edge2" class="edge"><title>1&#45;&gt;2</title>
<path fill="none" stroke="black" d="M856.656,-473.773C799.832,-456.137 726.201,-433.286 667.66,-415.119"/>
<polygon fill="black" stroke="black" points="668.617,-411.751 658.028,-412.13 666.542,-418.436 668.617,-411.751"/>
</g>
<!-- 13 -->
<g id="node14" class="node"><title>13</title>
<path fill="none" stroke="black" d="M1017.5,-425C1017.5,-425 874.5,-425 874.5,-425 868.5,-425 862.5,-419 862.5,-413 862.5,-413 862.5,-354 862.5,-354 862.5,-348 868.5,-342 874.5,-342 874.5,-342 1017.5,-342 1017.5,-342 1023.5,-342 1029.5,-348 1029.5,-354 1029.5,-354 1029.5,-413 1029.5,-413 1029.5,-419 1023.5,-425 1017.5,-425"/>
<text text-anchor="start" x="870.5" y="-409.8" font-family="Helvetica,sans-Serif" font-size="14.00">$for^5_{max}$ ≤ 55.604</text>
<text text-anchor="start" x="908.5" y="-394.8" font-family="Helvetica,sans-Serif" font-size="14.00">gini = 0.076</text>
<text text-anchor="start" x="898.5" y="-379.8" font-family="Helvetica,sans-Serif" font-size="14.00">samples = 888</text>
<text text-anchor="start" x="877.5" y="-364.8" font-family="Helvetica,sans-Serif" font-size="14.00">value = [35, 0, 853, 0]</text>
<text text-anchor="start" x="917" y="-349.8" font-family="Helvetica,sans-Serif" font-size="14.00">class = 2</text>
</g>
<!-- 1&#45;&gt;13 -->
<g id="edge13" class="edge"><title>1&#45;&gt;13</title>
<path fill="none" stroke="black" d="M946,-460.907C946,-452.649 946,-443.864 946,-435.302"/>
<polygon fill="black" stroke="black" points="949.5,-435.021 946,-425.021 942.5,-435.021 949.5,-435.021"/>
</g>
<!-- 3 -->
<g id="node4" class="node"><title>3</title>
<path fill="none" stroke="black" d="M390,-306C390,-306 240,-306 240,-306 234,-306 228,-300 228,-294 228,-294 228,-235 228,-235 228,-229 234,-223 240,-223 240,-223 390,-223 390,-223 396,-223 402,-229 402,-235 402,-235 402,-294 402,-294 402,-300 396,-306 390,-306"/>
<text text-anchor="start" x="236" y="-290.8" font-family="Helvetica,sans-Serif" font-size="14.00">$for^4_{max&#45;ind}$ ≤ 22.0</text>
<text text-anchor="start" x="277.5" y="-275.8" font-family="Helvetica,sans-Serif" font-size="14.00">gini = 0.142</text>
<text text-anchor="start" x="267.5" y="-260.8" font-family="Helvetica,sans-Serif" font-size="14.00">samples = 118</text>
<text text-anchor="start" x="250.5" y="-245.8" font-family="Helvetica,sans-Serif" font-size="14.00">value = [8, 1, 109, 0]</text>
<text text-anchor="start" x="286" y="-230.8" font-family="Helvetica,sans-Serif" font-size="14.00">class = 2</text>
</g>
<!-- 2&#45;&gt;3 -->
<g id="edge3" class="edge"><title>2&#45;&gt;3</title>
<path fill="none" stroke="black" d="M480.876,-341.907C458.46,-331.582 434.256,-320.433 411.449,-309.927"/>
<polygon fill="black" stroke="black" points="412.657,-306.63 402.11,-305.625 409.728,-312.988 412.657,-306.63"/>
</g>
<!-- 8 -->
<g id="node9" class="node"><title>8</title>
<path fill="none" stroke="black" d="M644,-306C644,-306 494,-306 494,-306 488,-306 482,-300 482,-294 482,-294 482,-235 482,-235 482,-229 488,-223 494,-223 494,-223 644,-223 644,-223 650,-223 656,-229 656,-235 656,-235 656,-294 656,-294 656,-300 650,-306 644,-306"/>
<text text-anchor="start" x="490" y="-290.8" font-family="Helvetica,sans-Serif" font-size="14.00">$pos^6_{max}$ ≤ 66.355</text>
<text text-anchor="start" x="531.5" y="-275.8" font-family="Helvetica,sans-Serif" font-size="14.00">gini = 0.017</text>
<text text-anchor="start" x="517.5" y="-260.8" font-family="Helvetica,sans-Serif" font-size="14.00">samples = 7602</text>
<text text-anchor="start" x="492" y="-245.8" font-family="Helvetica,sans-Serif" font-size="14.00">value = [7537, 37, 23, 5]</text>
<text text-anchor="start" x="540" y="-230.8" font-family="Helvetica,sans-Serif" font-size="14.00">class = 0</text>
</g>
<!-- 2&#45;&gt;8 -->
<g id="edge8" class="edge"><title>2&#45;&gt;8</title>
<path fill="none" stroke="black" d="M569,-341.907C569,-333.649 569,-324.864 569,-316.302"/>
<polygon fill="black" stroke="black" points="572.5,-316.021 569,-306.021 565.5,-316.021 572.5,-316.021"/>
</g>
<!-- 4 -->
<g id="node5" class="node"><title>4</title>
<path fill="none" stroke="black" d="M212,-187C212,-187 62,-187 62,-187 56,-187 50,-181 50,-175 50,-175 50,-116 50,-116 50,-110 56,-104 62,-104 62,-104 212,-104 212,-104 218,-104 224,-110 224,-116 224,-116 224,-175 224,-175 224,-181 218,-187 212,-187"/>
<text text-anchor="start" x="58" y="-171.8" font-family="Helvetica,sans-Serif" font-size="14.00">$for^5_{max&#45;ind}$ ≤ 16.0</text>
<text text-anchor="start" x="99.5" y="-156.8" font-family="Helvetica,sans-Serif" font-size="14.00">gini = 0.198</text>
<text text-anchor="start" x="97.5" y="-141.8" font-family="Helvetica,sans-Serif" font-size="14.00">samples = 9</text>
<text text-anchor="start" x="81" y="-126.8" font-family="Helvetica,sans-Serif" font-size="14.00">value = [8, 1, 0, 0]</text>
<text text-anchor="start" x="108" y="-111.8" font-family="Helvetica,sans-Serif" font-size="14.00">class = 0</text>
</g>
<!-- 3&#45;&gt;4 -->
<g id="edge4" class="edge"><title>3&#45;&gt;4</title>
<path fill="none" stroke="black" d="M253.244,-222.907C238.333,-213.106 222.292,-202.563 207.032,-192.533"/>
<polygon fill="black" stroke="black" points="208.926,-189.589 198.647,-187.021 205.081,-195.438 208.926,-189.589"/>
</g>
<!-- 7 -->
<g id="node8" class="node"><title>7</title>
<path fill="none" stroke="black" d="M375.5,-179.5C375.5,-179.5 254.5,-179.5 254.5,-179.5 248.5,-179.5 242.5,-173.5 242.5,-167.5 242.5,-167.5 242.5,-123.5 242.5,-123.5 242.5,-117.5 248.5,-111.5 254.5,-111.5 254.5,-111.5 375.5,-111.5 375.5,-111.5 381.5,-111.5 387.5,-117.5 387.5,-123.5 387.5,-123.5 387.5,-167.5 387.5,-167.5 387.5,-173.5 381.5,-179.5 375.5,-179.5"/>
<text text-anchor="start" x="286" y="-164.3" font-family="Helvetica,sans-Serif" font-size="14.00">gini = 0.0</text>
<text text-anchor="start" x="267.5" y="-149.3" font-family="Helvetica,sans-Serif" font-size="14.00">samples = 109</text>
<text text-anchor="start" x="250.5" y="-134.3" font-family="Helvetica,sans-Serif" font-size="14.00">value = [0, 0, 109, 0]</text>
<text text-anchor="start" x="286" y="-119.3" font-family="Helvetica,sans-Serif" font-size="14.00">class = 2</text>
</g>
<!-- 3&#45;&gt;7 -->
<g id="edge7" class="edge"><title>3&#45;&gt;7</title>
<path fill="none" stroke="black" d="M315,-222.907C315,-212.204 315,-200.615 315,-189.776"/>
<polygon fill="black" stroke="black" points="318.5,-189.667 315,-179.667 311.5,-189.667 318.5,-189.667"/>
</g>
<!-- 5 -->
<g id="node6" class="node"><title>5</title>
<path fill="none" stroke="black" d="M116,-68C116,-68 12,-68 12,-68 6,-68 0,-62 0,-56 0,-56 0,-12 0,-12 0,-6 6,-0 12,-0 12,-0 116,-0 116,-0 122,-0 128,-6 128,-12 128,-12 128,-56 128,-56 128,-62 122,-68 116,-68"/>
<text text-anchor="start" x="35" y="-52.8" font-family="Helvetica,sans-Serif" font-size="14.00">gini = 0.0</text>
<text text-anchor="start" x="24.5" y="-37.8" font-family="Helvetica,sans-Serif" font-size="14.00">samples = 1</text>
<text text-anchor="start" x="8" y="-22.8" font-family="Helvetica,sans-Serif" font-size="14.00">value = [0, 1, 0, 0]</text>
<text text-anchor="start" x="35" y="-7.8" font-family="Helvetica,sans-Serif" font-size="14.00">class = 1</text>
</g>
<!-- 4&#45;&gt;5 -->
<g id="edge5" class="edge"><title>4&#45;&gt;5</title>
<path fill="none" stroke="black" d="M109.817,-103.726C103.919,-94.879 97.6734,-85.51 91.7535,-76.6303"/>
<polygon fill="black" stroke="black" points="94.659,-74.6787 86.1997,-68.2996 88.8346,-78.5616 94.659,-74.6787"/>
</g>
<!-- 6 -->
<g id="node7" class="node"><title>6</title>
<path fill="none" stroke="black" d="M262,-68C262,-68 158,-68 158,-68 152,-68 146,-62 146,-56 146,-56 146,-12 146,-12 146,-6 152,-0 158,-0 158,-0 262,-0 262,-0 268,-0 274,-6 274,-12 274,-12 274,-56 274,-56 274,-62 268,-68 262,-68"/>
<text text-anchor="start" x="181" y="-52.8" font-family="Helvetica,sans-Serif" font-size="14.00">gini = 0.0</text>
<text text-anchor="start" x="170.5" y="-37.8" font-family="Helvetica,sans-Serif" font-size="14.00">samples = 8</text>
<text text-anchor="start" x="154" y="-22.8" font-family="Helvetica,sans-Serif" font-size="14.00">value = [8, 0, 0, 0]</text>
<text text-anchor="start" x="181" y="-7.8" font-family="Helvetica,sans-Serif" font-size="14.00">class = 0</text>
</g>
<!-- 4&#45;&gt;6 -->
<g id="edge6" class="edge"><title>4&#45;&gt;6</title>
<path fill="none" stroke="black" d="M164.183,-103.726C170.081,-94.879 176.327,-85.51 182.246,-76.6303"/>
<polygon fill="black" stroke="black" points="185.165,-78.5616 187.8,-68.2996 179.341,-74.6787 185.165,-78.5616"/>
</g>
<!-- 9 -->
<g id="node10" class="node"><title>9</title>
<path fill="none" stroke="black" d="M530.5,-179.5C530.5,-179.5 417.5,-179.5 417.5,-179.5 411.5,-179.5 405.5,-173.5 405.5,-167.5 405.5,-167.5 405.5,-123.5 405.5,-123.5 405.5,-117.5 411.5,-111.5 417.5,-111.5 417.5,-111.5 530.5,-111.5 530.5,-111.5 536.5,-111.5 542.5,-117.5 542.5,-123.5 542.5,-123.5 542.5,-167.5 542.5,-167.5 542.5,-173.5 536.5,-179.5 530.5,-179.5"/>
<text text-anchor="start" x="445" y="-164.3" font-family="Helvetica,sans-Serif" font-size="14.00">gini = 0.0</text>
<text text-anchor="start" x="430.5" y="-149.3" font-family="Helvetica,sans-Serif" font-size="14.00">samples = 37</text>
<text text-anchor="start" x="413.5" y="-134.3" font-family="Helvetica,sans-Serif" font-size="14.00">value = [0, 37, 0, 0]</text>
<text text-anchor="start" x="445" y="-119.3" font-family="Helvetica,sans-Serif" font-size="14.00">class = 1</text>
</g>
<!-- 8&#45;&gt;9 -->
<g id="edge9" class="edge"><title>8&#45;&gt;9</title>
<path fill="none" stroke="black" d="M536.04,-222.907C526.722,-211.432 516.578,-198.938 507.243,-187.442"/>
<polygon fill="black" stroke="black" points="509.951,-185.224 500.93,-179.667 504.517,-189.636 509.951,-185.224"/>
</g>
<!-- 10 -->
<g id="node11" class="node"><title>10</title>
<path fill="none" stroke="black" d="M717,-187C717,-187 573,-187 573,-187 567,-187 561,-181 561,-175 561,-175 561,-116 561,-116 561,-110 567,-104 573,-104 573,-104 717,-104 717,-104 723,-104 729,-110 729,-116 729,-116 729,-175 729,-175 729,-181 723,-187 717,-187"/>
<text text-anchor="start" x="569" y="-171.8" font-family="Helvetica,sans-Serif" font-size="14.00">$for^2_{mean}$ ≤ 8.097</text>
<text text-anchor="start" x="607.5" y="-156.8" font-family="Helvetica,sans-Serif" font-size="14.00">gini = 0.007</text>
<text text-anchor="start" x="593.5" y="-141.8" font-family="Helvetica,sans-Serif" font-size="14.00">samples = 7565</text>
<text text-anchor="start" x="572.5" y="-126.8" font-family="Helvetica,sans-Serif" font-size="14.00">value = [7537, 0, 23, 5]</text>
<text text-anchor="start" x="616" y="-111.8" font-family="Helvetica,sans-Serif" font-size="14.00">class = 0</text>
</g>
<!-- 8&#45;&gt;10 -->
<g id="edge10" class="edge"><title>8&#45;&gt;10</title>
<path fill="none" stroke="black" d="M595.368,-222.907C601.086,-214.105 607.193,-204.703 613.098,-195.612"/>
<polygon fill="black" stroke="black" points="616.167,-197.313 618.679,-187.021 610.296,-193.5 616.167,-197.313"/>
</g>
<!-- 11 -->
<g id="node12" class="node"><title>11</title>
<path fill="none" stroke="black" d="M631.5,-68C631.5,-68 494.5,-68 494.5,-68 488.5,-68 482.5,-62 482.5,-56 482.5,-56 482.5,-12 482.5,-12 482.5,-6 488.5,-0 494.5,-0 494.5,-0 631.5,-0 631.5,-0 637.5,-0 643.5,-6 643.5,-12 643.5,-12 643.5,-56 643.5,-56 643.5,-62 637.5,-68 631.5,-68"/>
<text text-anchor="start" x="525.5" y="-52.8" font-family="Helvetica,sans-Serif" font-size="14.00">gini = 0.006</text>
<text text-anchor="start" x="511.5" y="-37.8" font-family="Helvetica,sans-Serif" font-size="14.00">samples = 7560</text>
<text text-anchor="start" x="490.5" y="-22.8" font-family="Helvetica,sans-Serif" font-size="14.00">value = [7537, 0, 18, 5]</text>
<text text-anchor="start" x="534" y="-7.8" font-family="Helvetica,sans-Serif" font-size="14.00">class = 0</text>
</g>
<!-- 10&#45;&gt;11 -->
<g id="edge11" class="edge"><title>10&#45;&gt;11</title>
<path fill="none" stroke="black" d="M614.466,-103.726C607.773,-94.7878 600.68,-85.3168 593.97,-76.3558"/>
<polygon fill="black" stroke="black" points="596.732,-74.206 587.937,-68.2996 591.129,-78.402 596.732,-74.206"/>
</g>
<!-- 12 -->
<g id="node13" class="node"><title>12</title>
<path fill="none" stroke="black" d="M778,-68C778,-68 674,-68 674,-68 668,-68 662,-62 662,-56 662,-56 662,-12 662,-12 662,-6 668,-0 674,-0 674,-0 778,-0 778,-0 784,-0 790,-6 790,-12 790,-12 790,-56 790,-56 790,-62 784,-68 778,-68"/>
<text text-anchor="start" x="697" y="-52.8" font-family="Helvetica,sans-Serif" font-size="14.00">gini = 0.0</text>
<text text-anchor="start" x="686.5" y="-37.8" font-family="Helvetica,sans-Serif" font-size="14.00">samples = 5</text>
<text text-anchor="start" x="670" y="-22.8" font-family="Helvetica,sans-Serif" font-size="14.00">value = [0, 0, 5, 0]</text>
<text text-anchor="start" x="697" y="-7.8" font-family="Helvetica,sans-Serif" font-size="14.00">class = 2</text>
</g>
<!-- 10&#45;&gt;12 -->
<g id="edge12" class="edge"><title>10&#45;&gt;12</title>
<path fill="none" stroke="black" d="M675.161,-103.726C681.773,-94.7878 688.779,-85.3168 695.408,-76.3558"/>
<polygon fill="black" stroke="black" points="698.234,-78.4206 701.367,-68.2996 692.607,-74.2576 698.234,-78.4206"/>
</g>
<!-- 14 -->
<g id="node15" class="node"><title>14</title>
<path fill="none" stroke="black" d="M893,-306C893,-306 747,-306 747,-306 741,-306 735,-300 735,-294 735,-294 735,-235 735,-235 735,-229 741,-223 747,-223 747,-223 893,-223 893,-223 899,-223 905,-229 905,-235 905,-235 905,-294 905,-294 905,-300 899,-306 893,-306"/>
<text text-anchor="start" x="743" y="-290.8" font-family="Helvetica,sans-Serif" font-size="14.00">$pos^2_{min}$ ≤ 62.007</text>
<text text-anchor="start" x="782.5" y="-275.8" font-family="Helvetica,sans-Serif" font-size="14.00">gini = 0.002</text>
<text text-anchor="start" x="772.5" y="-260.8" font-family="Helvetica,sans-Serif" font-size="14.00">samples = 854</text>
<text text-anchor="start" x="755.5" y="-245.8" font-family="Helvetica,sans-Serif" font-size="14.00">value = [1, 0, 853, 0]</text>
<text text-anchor="start" x="791" y="-230.8" font-family="Helvetica,sans-Serif" font-size="14.00">class = 2</text>
</g>
<!-- 13&#45;&gt;14 -->
<g id="edge14" class="edge"><title>13&#45;&gt;14</title>
<path fill="none" stroke="black" d="M902.285,-341.907C892.219,-332.56 881.425,-322.538 871.077,-312.929"/>
<polygon fill="black" stroke="black" points="873.347,-310.261 863.638,-306.021 868.584,-315.39 873.347,-310.261"/>
</g>
<!-- 17 -->
<g id="node18" class="node"><title>17</title>
<path fill="none" stroke="black" d="M1048.5,-298.5C1048.5,-298.5 935.5,-298.5 935.5,-298.5 929.5,-298.5 923.5,-292.5 923.5,-286.5 923.5,-286.5 923.5,-242.5 923.5,-242.5 923.5,-236.5 929.5,-230.5 935.5,-230.5 935.5,-230.5 1048.5,-230.5 1048.5,-230.5 1054.5,-230.5 1060.5,-236.5 1060.5,-242.5 1060.5,-242.5 1060.5,-286.5 1060.5,-286.5 1060.5,-292.5 1054.5,-298.5 1048.5,-298.5"/>
<text text-anchor="start" x="963" y="-283.3" font-family="Helvetica,sans-Serif" font-size="14.00">gini = 0.0</text>
<text text-anchor="start" x="948.5" y="-268.3" font-family="Helvetica,sans-Serif" font-size="14.00">samples = 34</text>
<text text-anchor="start" x="931.5" y="-253.3" font-family="Helvetica,sans-Serif" font-size="14.00">value = [34, 0, 0, 0]</text>
<text text-anchor="start" x="963" y="-238.3" font-family="Helvetica,sans-Serif" font-size="14.00">class = 0</text>
</g>
<!-- 13&#45;&gt;17 -->
<g id="edge17" class="edge"><title>13&#45;&gt;17</title>
<path fill="none" stroke="black" d="M961.959,-341.907C966.254,-330.983 970.912,-319.137 975.249,-308.107"/>
<polygon fill="black" stroke="black" points="978.558,-309.254 978.96,-298.667 972.044,-306.693 978.558,-309.254"/>
</g>
<!-- 15 -->
<g id="node16" class="node"><title>15</title>
<path fill="none" stroke="black" d="M880.5,-179.5C880.5,-179.5 759.5,-179.5 759.5,-179.5 753.5,-179.5 747.5,-173.5 747.5,-167.5 747.5,-167.5 747.5,-123.5 747.5,-123.5 747.5,-117.5 753.5,-111.5 759.5,-111.5 759.5,-111.5 880.5,-111.5 880.5,-111.5 886.5,-111.5 892.5,-117.5 892.5,-123.5 892.5,-123.5 892.5,-167.5 892.5,-167.5 892.5,-173.5 886.5,-179.5 880.5,-179.5"/>
<text text-anchor="start" x="791" y="-164.3" font-family="Helvetica,sans-Serif" font-size="14.00">gini = 0.0</text>
<text text-anchor="start" x="772.5" y="-149.3" font-family="Helvetica,sans-Serif" font-size="14.00">samples = 853</text>
<text text-anchor="start" x="755.5" y="-134.3" font-family="Helvetica,sans-Serif" font-size="14.00">value = [0, 0, 853, 0]</text>
<text text-anchor="start" x="791" y="-119.3" font-family="Helvetica,sans-Serif" font-size="14.00">class = 2</text>
</g>
<!-- 14&#45;&gt;15 -->
<g id="edge15" class="edge"><title>14&#45;&gt;15</title>
<path fill="none" stroke="black" d="M820,-222.907C820,-212.204 820,-200.615 820,-189.776"/>
<polygon fill="black" stroke="black" points="823.5,-189.667 820,-179.667 816.5,-189.667 823.5,-189.667"/>
</g>
<!-- 16 -->
<g id="node17" class="node"><title>16</title>
<path fill="none" stroke="black" d="M1027,-179.5C1027,-179.5 923,-179.5 923,-179.5 917,-179.5 911,-173.5 911,-167.5 911,-167.5 911,-123.5 911,-123.5 911,-117.5 917,-111.5 923,-111.5 923,-111.5 1027,-111.5 1027,-111.5 1033,-111.5 1039,-117.5 1039,-123.5 1039,-123.5 1039,-167.5 1039,-167.5 1039,-173.5 1033,-179.5 1027,-179.5"/>
<text text-anchor="start" x="946" y="-164.3" font-family="Helvetica,sans-Serif" font-size="14.00">gini = 0.0</text>
<text text-anchor="start" x="935.5" y="-149.3" font-family="Helvetica,sans-Serif" font-size="14.00">samples = 1</text>
<text text-anchor="start" x="919" y="-134.3" font-family="Helvetica,sans-Serif" font-size="14.00">value = [1, 0, 0, 0]</text>
<text text-anchor="start" x="946" y="-119.3" font-family="Helvetica,sans-Serif" font-size="14.00">class = 0</text>
</g>
<!-- 14&#45;&gt;16 -->
<g id="edge16" class="edge"><title>14&#45;&gt;16</title>
<path fill="none" stroke="black" d="M873.776,-222.907C889.71,-210.88 907.125,-197.735 922.948,-185.791"/>
<polygon fill="black" stroke="black" points="925.188,-188.485 931.061,-179.667 920.971,-182.898 925.188,-188.485"/>
</g>
<!-- 19 -->
<g id="node20" class="node"><title>19</title>
<path fill="none" stroke="black" d="M1280.5,-425C1280.5,-425 1137.5,-425 1137.5,-425 1131.5,-425 1125.5,-419 1125.5,-413 1125.5,-413 1125.5,-354 1125.5,-354 1125.5,-348 1131.5,-342 1137.5,-342 1137.5,-342 1280.5,-342 1280.5,-342 1286.5,-342 1292.5,-348 1292.5,-354 1292.5,-354 1292.5,-413 1292.5,-413 1292.5,-419 1286.5,-425 1280.5,-425"/>
<text text-anchor="start" x="1133.5" y="-409.8" font-family="Helvetica,sans-Serif" font-size="14.00">$for^3_{max}$ ≤ 15.616</text>
<text text-anchor="start" x="1171.5" y="-394.8" font-family="Helvetica,sans-Serif" font-size="14.00">gini = 0.035</text>
<text text-anchor="start" x="1157.5" y="-379.8" font-family="Helvetica,sans-Serif" font-size="14.00">samples = 1005</text>
<text text-anchor="start" x="1140.5" y="-364.8" font-family="Helvetica,sans-Serif" font-size="14.00">value = [2, 0, 16, 987]</text>
<text text-anchor="start" x="1180" y="-349.8" font-family="Helvetica,sans-Serif" font-size="14.00">class = 3</text>
</g>
<!-- 18&#45;&gt;19 -->
<g id="edge19" class="edge"><title>18&#45;&gt;19</title>
<path fill="none" stroke="black" d="M1209,-460.907C1209,-452.649 1209,-443.864 1209,-435.302"/>
<polygon fill="black" stroke="black" points="1212.5,-435.021 1209,-425.021 1205.5,-435.021 1212.5,-435.021"/>
</g>
<!-- 26 -->
<g id="node27" class="node"><title>26</title>
<path fill="none" stroke="black" d="M1546.5,-425C1546.5,-425 1403.5,-425 1403.5,-425 1397.5,-425 1391.5,-419 1391.5,-413 1391.5,-413 1391.5,-354 1391.5,-354 1391.5,-348 1397.5,-342 1403.5,-342 1403.5,-342 1546.5,-342 1546.5,-342 1552.5,-342 1558.5,-348 1558.5,-354 1558.5,-354 1558.5,-413 1558.5,-413 1558.5,-419 1552.5,-425 1546.5,-425"/>
<text text-anchor="start" x="1399.5" y="-409.8" font-family="Helvetica,sans-Serif" font-size="14.00">$for^5_{max}$ ≤ 52.389</text>
<text text-anchor="start" x="1437.5" y="-394.8" font-family="Helvetica,sans-Serif" font-size="14.00">gini = 0.198</text>
<text text-anchor="start" x="1435.5" y="-379.8" font-family="Helvetica,sans-Serif" font-size="14.00">samples = 9</text>
<text text-anchor="start" x="1419" y="-364.8" font-family="Helvetica,sans-Serif" font-size="14.00">value = [0, 0, 8, 1]</text>
<text text-anchor="start" x="1446" y="-349.8" font-family="Helvetica,sans-Serif" font-size="14.00">class = 2</text>
</g>
<!-- 18&#45;&gt;26 -->
<g id="edge26" class="edge"><title>18&#45;&gt;26</title>
<path fill="none" stroke="black" d="M1285.58,-467.816C1315.61,-454.606 1350.36,-439.323 1381.83,-425.482"/>
<polygon fill="black" stroke="black" points="1383.3,-428.658 1391.04,-421.428 1380.48,-422.251 1383.3,-428.658"/>
</g>
<!-- 20 -->
<g id="node21" class="node"><title>20</title>
<path fill="none" stroke="black" d="M1235,-306C1235,-306 1091,-306 1091,-306 1085,-306 1079,-300 1079,-294 1079,-294 1079,-235 1079,-235 1079,-229 1085,-223 1091,-223 1091,-223 1235,-223 1235,-223 1241,-223 1247,-229 1247,-235 1247,-235 1247,-294 1247,-294 1247,-300 1241,-306 1235,-306"/>
<text text-anchor="start" x="1087" y="-290.8" font-family="Helvetica,sans-Serif" font-size="14.00">$for^4_{mean}$ ≤ 9.787</text>
<text text-anchor="start" x="1125.5" y="-275.8" font-family="Helvetica,sans-Serif" font-size="14.00">gini = 0.031</text>
<text text-anchor="start" x="1111.5" y="-260.8" font-family="Helvetica,sans-Serif" font-size="14.00">samples = 1003</text>
<text text-anchor="start" x="1094.5" y="-245.8" font-family="Helvetica,sans-Serif" font-size="14.00">value = [0, 0, 16, 987]</text>
<text text-anchor="start" x="1134" y="-230.8" font-family="Helvetica,sans-Serif" font-size="14.00">class = 3</text>
</g>
<!-- 19&#45;&gt;20 -->
<g id="edge20" class="edge"><title>19&#45;&gt;20</title>
<path fill="none" stroke="black" d="M1193.04,-341.907C1189.69,-333.377 1186.11,-324.284 1182.64,-315.456"/>
<polygon fill="black" stroke="black" points="1185.85,-314.047 1178.93,-306.021 1179.33,-316.608 1185.85,-314.047"/>
</g>
<!-- 25 -->
<g id="node26" class="node"><title>25</title>
<path fill="none" stroke="black" d="M1381,-298.5C1381,-298.5 1277,-298.5 1277,-298.5 1271,-298.5 1265,-292.5 1265,-286.5 1265,-286.5 1265,-242.5 1265,-242.5 1265,-236.5 1271,-230.5 1277,-230.5 1277,-230.5 1381,-230.5 1381,-230.5 1387,-230.5 1393,-236.5 1393,-242.5 1393,-242.5 1393,-286.5 1393,-286.5 1393,-292.5 1387,-298.5 1381,-298.5"/>
<text text-anchor="start" x="1300" y="-283.3" font-family="Helvetica,sans-Serif" font-size="14.00">gini = 0.0</text>
<text text-anchor="start" x="1289.5" y="-268.3" font-family="Helvetica,sans-Serif" font-size="14.00">samples = 2</text>
<text text-anchor="start" x="1273" y="-253.3" font-family="Helvetica,sans-Serif" font-size="14.00">value = [2, 0, 0, 0]</text>
<text text-anchor="start" x="1300" y="-238.3" font-family="Helvetica,sans-Serif" font-size="14.00">class = 0</text>
</g>
<!-- 19&#45;&gt;25 -->
<g id="edge25" class="edge"><title>19&#45;&gt;25</title>
<path fill="none" stroke="black" d="M1250.63,-341.907C1262.63,-330.211 1275.71,-317.457 1287.69,-305.78"/>
<polygon fill="black" stroke="black" points="1290.27,-308.154 1294.98,-298.667 1285.38,-303.142 1290.27,-308.154"/>
</g>
<!-- 21 -->
<g id="node22" class="node"><title>21</title>
<path fill="none" stroke="black" d="M1194,-179.5C1194,-179.5 1090,-179.5 1090,-179.5 1084,-179.5 1078,-173.5 1078,-167.5 1078,-167.5 1078,-123.5 1078,-123.5 1078,-117.5 1084,-111.5 1090,-111.5 1090,-111.5 1194,-111.5 1194,-111.5 1200,-111.5 1206,-117.5 1206,-123.5 1206,-123.5 1206,-167.5 1206,-167.5 1206,-173.5 1200,-179.5 1194,-179.5"/>
<text text-anchor="start" x="1113" y="-164.3" font-family="Helvetica,sans-Serif" font-size="14.00">gini = 0.0</text>
<text text-anchor="start" x="1102.5" y="-149.3" font-family="Helvetica,sans-Serif" font-size="14.00">samples = 1</text>
<text text-anchor="start" x="1086" y="-134.3" font-family="Helvetica,sans-Serif" font-size="14.00">value = [0, 0, 1, 0]</text>
<text text-anchor="start" x="1113" y="-119.3" font-family="Helvetica,sans-Serif" font-size="14.00">class = 2</text>
</g>
<!-- 20&#45;&gt;21 -->
<g id="edge21" class="edge"><title>20&#45;&gt;21</title>
<path fill="none" stroke="black" d="M1155.71,-222.907C1153.79,-212.204 1151.71,-200.615 1149.77,-189.776"/>
<polygon fill="black" stroke="black" points="1153.16,-188.891 1147.95,-179.667 1146.27,-190.128 1153.16,-188.891"/>
</g>
<!-- 22 -->
<g id="node23" class="node"><title>22</title>
<path fill="none" stroke="black" d="M1372,-187C1372,-187 1236,-187 1236,-187 1230,-187 1224,-181 1224,-175 1224,-175 1224,-116 1224,-116 1224,-110 1230,-104 1236,-104 1236,-104 1372,-104 1372,-104 1378,-104 1384,-110 1384,-116 1384,-116 1384,-175 1384,-175 1384,-181 1378,-187 1372,-187"/>
<text text-anchor="start" x="1232" y="-171.8" font-family="Helvetica,sans-Serif" font-size="14.00">$for^5_{min}$ ≤ &#45;2.483</text>
<text text-anchor="start" x="1266.5" y="-156.8" font-family="Helvetica,sans-Serif" font-size="14.00">gini = 0.029</text>
<text text-anchor="start" x="1252.5" y="-141.8" font-family="Helvetica,sans-Serif" font-size="14.00">samples = 1002</text>
<text text-anchor="start" x="1235.5" y="-126.8" font-family="Helvetica,sans-Serif" font-size="14.00">value = [0, 0, 15, 987]</text>
<text text-anchor="start" x="1275" y="-111.8" font-family="Helvetica,sans-Serif" font-size="14.00">class = 3</text>
</g>
<!-- 20&#45;&gt;22 -->
<g id="edge22" class="edge"><title>20&#45;&gt;22</title>
<path fill="none" stroke="black" d="M1211.92,-222.907C1223.29,-213.469 1235.5,-203.343 1247.18,-193.649"/>
<polygon fill="black" stroke="black" points="1249.71,-196.1 1255.17,-187.021 1245.24,-190.713 1249.71,-196.1"/>
</g>
<!-- 23 -->
<g id="node24" class="node"><title>23</title>
<path fill="none" stroke="black" d="M1276,-68C1276,-68 1172,-68 1172,-68 1166,-68 1160,-62 1160,-56 1160,-56 1160,-12 1160,-12 1160,-6 1166,-0 1172,-0 1172,-0 1276,-0 1276,-0 1282,-0 1288,-6 1288,-12 1288,-12 1288,-56 1288,-56 1288,-62 1282,-68 1276,-68"/>
<text text-anchor="start" x="1195" y="-52.8" font-family="Helvetica,sans-Serif" font-size="14.00">gini = 0.5</text>
<text text-anchor="start" x="1184.5" y="-37.8" font-family="Helvetica,sans-Serif" font-size="14.00">samples = 2</text>
<text text-anchor="start" x="1168" y="-22.8" font-family="Helvetica,sans-Serif" font-size="14.00">value = [0, 0, 1, 1]</text>
<text text-anchor="start" x="1195" y="-7.8" font-family="Helvetica,sans-Serif" font-size="14.00">class = 2</text>
</g>
<!-- 22&#45;&gt;23 -->
<g id="edge23" class="edge"><title>22&#45;&gt;23</title>
<path fill="none" stroke="black" d="M1274.21,-103.726C1267.75,-94.879 1260.9,-85.51 1254.41,-76.6303"/>
<polygon fill="black" stroke="black" points="1257.05,-74.3095 1248.33,-68.2996 1251.4,-78.439 1257.05,-74.3095"/>
</g>
<!-- 24 -->
<g id="node25" class="node"><title>24</title>
<path fill="none" stroke="black" d="M1447.5,-68C1447.5,-68 1318.5,-68 1318.5,-68 1312.5,-68 1306.5,-62 1306.5,-56 1306.5,-56 1306.5,-12 1306.5,-12 1306.5,-6 1312.5,-0 1318.5,-0 1318.5,-0 1447.5,-0 1447.5,-0 1453.5,-0 1459.5,-6 1459.5,-12 1459.5,-12 1459.5,-56 1459.5,-56 1459.5,-62 1453.5,-68 1447.5,-68"/>
<text text-anchor="start" x="1345.5" y="-52.8" font-family="Helvetica,sans-Serif" font-size="14.00">gini = 0.028</text>
<text text-anchor="start" x="1331.5" y="-37.8" font-family="Helvetica,sans-Serif" font-size="14.00">samples = 1000</text>
<text text-anchor="start" x="1314.5" y="-22.8" font-family="Helvetica,sans-Serif" font-size="14.00">value = [0, 0, 14, 986]</text>
<text text-anchor="start" x="1354" y="-7.8" font-family="Helvetica,sans-Serif" font-size="14.00">class = 3</text>
</g>
<!-- 22&#45;&gt;24 -->
<g id="edge24" class="edge"><title>22&#45;&gt;24</title>
<path fill="none" stroke="black" d="M1333.42,-103.726C1339.8,-94.879 1346.56,-85.51 1352.97,-76.6303"/>
<polygon fill="black" stroke="black" points="1355.96,-78.4571 1358.98,-68.2996 1350.29,-74.3615 1355.96,-78.4571"/>
</g>
<!-- 27 -->
<g id="node28" class="node"><title>27</title>
<path fill="none" stroke="black" d="M1527,-298.5C1527,-298.5 1423,-298.5 1423,-298.5 1417,-298.5 1411,-292.5 1411,-286.5 1411,-286.5 1411,-242.5 1411,-242.5 1411,-236.5 1417,-230.5 1423,-230.5 1423,-230.5 1527,-230.5 1527,-230.5 1533,-230.5 1539,-236.5 1539,-242.5 1539,-242.5 1539,-286.5 1539,-286.5 1539,-292.5 1533,-298.5 1527,-298.5"/>
<text text-anchor="start" x="1446" y="-283.3" font-family="Helvetica,sans-Serif" font-size="14.00">gini = 0.0</text>
<text text-anchor="start" x="1435.5" y="-268.3" font-family="Helvetica,sans-Serif" font-size="14.00">samples = 8</text>
<text text-anchor="start" x="1419" y="-253.3" font-family="Helvetica,sans-Serif" font-size="14.00">value = [0, 0, 8, 0]</text>
<text text-anchor="start" x="1446" y="-238.3" font-family="Helvetica,sans-Serif" font-size="14.00">class = 2</text>
</g>
<!-- 26&#45;&gt;27 -->
<g id="edge27" class="edge"><title>26&#45;&gt;27</title>
<path fill="none" stroke="black" d="M1475,-341.907C1475,-331.204 1475,-319.615 1475,-308.776"/>
<polygon fill="black" stroke="black" points="1478.5,-308.667 1475,-298.667 1471.5,-308.667 1478.5,-308.667"/>
</g>
<!-- 28 -->
<g id="node29" class="node"><title>28</title>
<path fill="none" stroke="black" d="M1673,-298.5C1673,-298.5 1569,-298.5 1569,-298.5 1563,-298.5 1557,-292.5 1557,-286.5 1557,-286.5 1557,-242.5 1557,-242.5 1557,-236.5 1563,-230.5 1569,-230.5 1569,-230.5 1673,-230.5 1673,-230.5 1679,-230.5 1685,-236.5 1685,-242.5 1685,-242.5 1685,-286.5 1685,-286.5 1685,-292.5 1679,-298.5 1673,-298.5"/>
<text text-anchor="start" x="1592" y="-283.3" font-family="Helvetica,sans-Serif" font-size="14.00">gini = 0.0</text>
<text text-anchor="start" x="1581.5" y="-268.3" font-family="Helvetica,sans-Serif" font-size="14.00">samples = 1</text>
<text text-anchor="start" x="1565" y="-253.3" font-family="Helvetica,sans-Serif" font-size="14.00">value = [0, 0, 0, 1]</text>
<text text-anchor="start" x="1592" y="-238.3" font-family="Helvetica,sans-Serif" font-size="14.00">class = 3</text>
</g>
<!-- 26&#45;&gt;28 -->
<g id="edge28" class="edge"><title>26&#45;&gt;28</title>
<path fill="none" stroke="black" d="M1525.65,-341.907C1540.53,-329.99 1556.77,-316.976 1571.56,-305.12"/>
<polygon fill="black" stroke="black" points="1574,-307.652 1579.61,-298.667 1569.62,-302.189 1574,-307.652"/>
</g>
</g>
</svg>
