<?xml version="1.0" encoding="UTF-8" standalone="no"?>
<!DOCTYPE svg PUBLIC "-//W3C//DTD SVG 1.1//EN"
 "http://www.w3.org/Graphics/SVG/1.1/DTD/svg11.dtd">
<!-- Generated by graphviz version 2.38.0 (20140413.2041)
 -->
<!-- Title: Tree Pages: 1 -->
<svg width="925pt" height="671pt"
 viewBox="0.00 0.00 924.50 671.00" xmlns="http://www.w3.org/2000/svg" xmlns:xlink="http://www.w3.org/1999/xlink">
<g id="graph0" class="graph" transform="scale(1 1) rotate(0) translate(4 667)">
<title>Tree</title>
<polygon fill="white" stroke="none" points="-4,4 -4,-667 920.5,-667 920.5,4 -4,4"/>
<!-- 0 -->
<g id="node1" class="node"><title>0</title>
<path fill="none" stroke="black" d="M586.5,-663C586.5,-663 407.5,-663 407.5,-663 401.5,-663 395.5,-657 395.5,-651 395.5,-651 395.5,-592 395.5,-592 395.5,-586 401.5,-580 407.5,-580 407.5,-580 586.5,-580 586.5,-580 592.5,-580 598.5,-586 598.5,-592 598.5,-592 598.5,-651 598.5,-651 598.5,-657 592.5,-663 586.5,-663"/>
<text text-anchor="start" x="420" y="-647.8" font-family="Helvetica,sans-Serif" font-size="14.00">$pos^5_{min}$ ≤ 95.554</text>
<text text-anchor="start" x="447" y="-632.8" font-family="Helvetica,sans-Serif" font-size="14.00">entropy = 1.971</text>
<text text-anchor="start" x="445.5" y="-617.8" font-family="Helvetica,sans-Serif" font-size="14.00">samples = 3287</text>
<text text-anchor="start" x="403.5" y="-602.8" font-family="Helvetica,sans-Serif" font-size="14.00">value = [664, 944, 657, 1022]</text>
<text text-anchor="start" x="468" y="-587.8" font-family="Helvetica,sans-Serif" font-size="14.00">class = 3</text>
</g>
<!-- 1 -->
<g id="node2" class="node"><title>1</title>
<path fill="none" stroke="black" d="M473.5,-544C473.5,-544 336.5,-544 336.5,-544 330.5,-544 324.5,-538 324.5,-532 324.5,-532 324.5,-473 324.5,-473 324.5,-467 330.5,-461 336.5,-461 336.5,-461 473.5,-461 473.5,-461 479.5,-461 485.5,-467 485.5,-473 485.5,-473 485.5,-532 485.5,-532 485.5,-538 479.5,-544 473.5,-544"/>
<text text-anchor="start" x="332.5" y="-528.8" font-family="Helvetica,sans-Serif" font-size="14.00">$vel^4_{min}$ ≤ &#45;7.014</text>
<text text-anchor="start" x="355" y="-513.8" font-family="Helvetica,sans-Serif" font-size="14.00">entropy = 0.971</text>
<text text-anchor="start" x="353.5" y="-498.8" font-family="Helvetica,sans-Serif" font-size="14.00">samples = 1663</text>
<text text-anchor="start" x="332.5" y="-483.8" font-family="Helvetica,sans-Serif" font-size="14.00">value = [664, 0, 0, 999]</text>
<text text-anchor="start" x="376" y="-468.8" font-family="Helvetica,sans-Serif" font-size="14.00">class = 3</text>
</g>
<!-- 0&#45;&gt;1 -->
<g id="edge1" class="edge"><title>0&#45;&gt;1</title>
<path fill="none" stroke="black" d="M465.081,-579.907C458.016,-570.923 450.461,-561.315 443.176,-552.05"/>
<polygon fill="black" stroke="black" points="445.795,-549.718 436.863,-544.021 440.292,-554.045 445.795,-549.718"/>
<text text-anchor="middle" x="433.893" y="-565.144" font-family="Helvetica,sans-Serif" font-size="14.00">True</text>
</g>
<!-- 14 -->
<g id="node15" class="node"><title>14</title>
<path fill="none" stroke="black" d="M662,-544C662,-544 516,-544 516,-544 510,-544 504,-538 504,-532 504,-532 504,-473 504,-473 504,-467 510,-461 516,-461 516,-461 662,-461 662,-461 668,-461 674,-467 674,-473 674,-473 674,-532 674,-532 674,-538 668,-544 662,-544"/>
<text text-anchor="start" x="512.5" y="-528.8" font-family="Helvetica,sans-Serif" font-size="14.00">$pos^3_{min&#45;ind}$ ≤ 3.0</text>
<text text-anchor="start" x="543" y="-513.8" font-family="Helvetica,sans-Serif" font-size="14.00">entropy = 1.07</text>
<text text-anchor="start" x="537.5" y="-498.8" font-family="Helvetica,sans-Serif" font-size="14.00">samples = 1624</text>
<text text-anchor="start" x="512" y="-483.8" font-family="Helvetica,sans-Serif" font-size="14.00">value = [0, 944, 657, 23]</text>
<text text-anchor="start" x="560" y="-468.8" font-family="Helvetica,sans-Serif" font-size="14.00">class = 1</text>
</g>
<!-- 0&#45;&gt;14 -->
<g id="edge14" class="edge"><title>0&#45;&gt;14</title>
<path fill="none" stroke="black" d="M528.919,-579.907C535.984,-570.923 543.539,-561.315 550.824,-552.05"/>
<polygon fill="black" stroke="black" points="553.708,-554.045 557.137,-544.021 548.205,-549.718 553.708,-554.045"/>
<text text-anchor="middle" x="560.107" y="-565.144" font-family="Helvetica,sans-Serif" font-size="14.00">False</text>
</g>
<!-- 2 -->
<g id="node3" class="node"><title>2</title>
<path fill="none" stroke="black" d="M284.5,-417.5C284.5,-417.5 163.5,-417.5 163.5,-417.5 157.5,-417.5 151.5,-411.5 151.5,-405.5 151.5,-405.5 151.5,-361.5 151.5,-361.5 151.5,-355.5 157.5,-349.5 163.5,-349.5 163.5,-349.5 284.5,-349.5 284.5,-349.5 290.5,-349.5 296.5,-355.5 296.5,-361.5 296.5,-361.5 296.5,-405.5 296.5,-405.5 296.5,-411.5 290.5,-417.5 284.5,-417.5"/>
<text text-anchor="start" x="182" y="-402.3" font-family="Helvetica,sans-Serif" font-size="14.00">entropy = 0.0</text>
<text text-anchor="start" x="176.5" y="-387.3" font-family="Helvetica,sans-Serif" font-size="14.00">samples = 937</text>
<text text-anchor="start" x="159.5" y="-372.3" font-family="Helvetica,sans-Serif" font-size="14.00">value = [0, 0, 0, 937]</text>
<text text-anchor="start" x="195" y="-357.3" font-family="Helvetica,sans-Serif" font-size="14.00">class = 3</text>
</g>
<!-- 1&#45;&gt;2 -->
<g id="edge2" class="edge"><title>1&#45;&gt;2</title>
<path fill="none" stroke="black" d="M342.203,-460.907C323.255,-448.659 302.513,-435.252 283.768,-423.135"/>
<polygon fill="black" stroke="black" points="285.608,-420.156 275.31,-417.667 281.808,-426.035 285.608,-420.156"/>
</g>
<!-- 3 -->
<g id="node4" class="node"><title>3</title>
<path fill="none" stroke="black" d="M485,-425C485,-425 327,-425 327,-425 321,-425 315,-419 315,-413 315,-413 315,-354 315,-354 315,-348 321,-342 327,-342 327,-342 485,-342 485,-342 491,-342 497,-348 497,-354 497,-354 497,-413 497,-413 497,-419 491,-425 485,-425"/>
<text text-anchor="start" x="323" y="-409.8" font-family="Helvetica,sans-Serif" font-size="14.00">$cur^4_{min}$ ≤ 2104.878</text>
<text text-anchor="start" x="356" y="-394.8" font-family="Helvetica,sans-Serif" font-size="14.00">entropy = 0.421</text>
<text text-anchor="start" x="358.5" y="-379.8" font-family="Helvetica,sans-Serif" font-size="14.00">samples = 726</text>
<text text-anchor="start" x="337.5" y="-364.8" font-family="Helvetica,sans-Serif" font-size="14.00">value = [664, 0, 0, 62]</text>
<text text-anchor="start" x="377" y="-349.8" font-family="Helvetica,sans-Serif" font-size="14.00">class = 0</text>
</g>
<!-- 1&#45;&gt;3 -->
<g id="edge3" class="edge"><title>1&#45;&gt;3</title>
<path fill="none" stroke="black" d="M405.347,-460.907C405.418,-452.649 405.493,-443.864 405.566,-435.302"/>
<polygon fill="black" stroke="black" points="409.068,-435.05 405.654,-425.021 402.068,-434.99 409.068,-435.05"/>
</g>
<!-- 4 -->
<g id="node5" class="node"><title>4</title>
<path fill="none" stroke="black" d="M356,-306C356,-306 206,-306 206,-306 200,-306 194,-300 194,-294 194,-294 194,-235 194,-235 194,-229 200,-223 206,-223 206,-223 356,-223 356,-223 362,-223 368,-229 368,-235 368,-235 368,-294 368,-294 368,-300 362,-306 356,-306"/>
<text text-anchor="start" x="202" y="-290.8" font-family="Helvetica,sans-Serif" font-size="14.00">$pos^4_{max}$ ≤ 91.554</text>
<text text-anchor="start" x="231" y="-275.8" font-family="Helvetica,sans-Serif" font-size="14.00">entropy = 0.055</text>
<text text-anchor="start" x="233.5" y="-260.8" font-family="Helvetica,sans-Serif" font-size="14.00">samples = 641</text>
<text text-anchor="start" x="216.5" y="-245.8" font-family="Helvetica,sans-Serif" font-size="14.00">value = [637, 0, 0, 4]</text>
<text text-anchor="start" x="252" y="-230.8" font-family="Helvetica,sans-Serif" font-size="14.00">class = 0</text>
</g>
<!-- 3&#45;&gt;4 -->
<g id="edge4" class="edge"><title>3&#45;&gt;4</title>
<path fill="none" stroke="black" d="M362.632,-341.907C352.645,-332.56 341.938,-322.538 331.672,-312.929"/>
<polygon fill="black" stroke="black" points="333.984,-310.299 324.291,-306.021 329.201,-315.41 333.984,-310.299"/>
</g>
<!-- 9 -->
<g id="node10" class="node"><title>9</title>
<path fill="none" stroke="black" d="M527.5,-306C527.5,-306 398.5,-306 398.5,-306 392.5,-306 386.5,-300 386.5,-294 386.5,-294 386.5,-235 386.5,-235 386.5,-229 392.5,-223 398.5,-223 398.5,-223 527.5,-223 527.5,-223 533.5,-223 539.5,-229 539.5,-235 539.5,-235 539.5,-294 539.5,-294 539.5,-300 533.5,-306 527.5,-306"/>
<text text-anchor="start" x="394.5" y="-290.8" font-family="Helvetica,sans-Serif" font-size="14.00">$vel^3_{std}$ ≤ 4.816</text>
<text text-anchor="start" x="413" y="-275.8" font-family="Helvetica,sans-Serif" font-size="14.00">entropy = 0.902</text>
<text text-anchor="start" x="419.5" y="-260.8" font-family="Helvetica,sans-Serif" font-size="14.00">samples = 85</text>
<text text-anchor="start" x="398.5" y="-245.8" font-family="Helvetica,sans-Serif" font-size="14.00">value = [27, 0, 0, 58]</text>
<text text-anchor="start" x="434" y="-230.8" font-family="Helvetica,sans-Serif" font-size="14.00">class = 3</text>
</g>
<!-- 3&#45;&gt;9 -->
<g id="edge9" class="edge"><title>3&#45;&gt;9</title>
<path fill="none" stroke="black" d="M425.776,-341.907C429.976,-333.286 434.456,-324.09 438.799,-315.175"/>
<polygon fill="black" stroke="black" points="442.026,-316.544 443.259,-306.021 435.733,-313.478 442.026,-316.544"/>
</g>
<!-- 5 -->
<g id="node6" class="node"><title>5</title>
<path fill="none" stroke="black" d="M180.5,-187C180.5,-187 39.5,-187 39.5,-187 33.5,-187 27.5,-181 27.5,-175 27.5,-175 27.5,-116 27.5,-116 27.5,-110 33.5,-104 39.5,-104 39.5,-104 180.5,-104 180.5,-104 186.5,-104 192.5,-110 192.5,-116 192.5,-116 192.5,-175 192.5,-175 192.5,-181 186.5,-187 180.5,-187"/>
<text text-anchor="start" x="35.5" y="-171.8" font-family="Helvetica,sans-Serif" font-size="14.00">$vel^2_{mean}$ ≤ &#45;7.61</text>
<text text-anchor="start" x="60" y="-156.8" font-family="Helvetica,sans-Serif" font-size="14.00">entropy = 0.722</text>
<text text-anchor="start" x="70.5" y="-141.8" font-family="Helvetica,sans-Serif" font-size="14.00">samples = 5</text>
<text text-anchor="start" x="54" y="-126.8" font-family="Helvetica,sans-Serif" font-size="14.00">value = [1, 0, 0, 4]</text>
<text text-anchor="start" x="81" y="-111.8" font-family="Helvetica,sans-Serif" font-size="14.00">class = 3</text>
</g>
<!-- 4&#45;&gt;5 -->
<g id="edge5" class="edge"><title>4&#45;&gt;5</title>
<path fill="none" stroke="black" d="M221.672,-222.907C207.48,-213.197 192.224,-202.758 177.686,-192.811"/>
<polygon fill="black" stroke="black" points="179.452,-189.779 169.223,-187.021 175.499,-195.556 179.452,-189.779"/>
</g>
<!-- 8 -->
<g id="node9" class="node"><title>8</title>
<path fill="none" stroke="black" d="M343.5,-179.5C343.5,-179.5 222.5,-179.5 222.5,-179.5 216.5,-179.5 210.5,-173.5 210.5,-167.5 210.5,-167.5 210.5,-123.5 210.5,-123.5 210.5,-117.5 216.5,-111.5 222.5,-111.5 222.5,-111.5 343.5,-111.5 343.5,-111.5 349.5,-111.5 355.5,-117.5 355.5,-123.5 355.5,-123.5 355.5,-167.5 355.5,-167.5 355.5,-173.5 349.5,-179.5 343.5,-179.5"/>
<text text-anchor="start" x="241" y="-164.3" font-family="Helvetica,sans-Serif" font-size="14.00">entropy = 0.0</text>
<text text-anchor="start" x="235.5" y="-149.3" font-family="Helvetica,sans-Serif" font-size="14.00">samples = 636</text>
<text text-anchor="start" x="218.5" y="-134.3" font-family="Helvetica,sans-Serif" font-size="14.00">value = [636, 0, 0, 0]</text>
<text text-anchor="start" x="254" y="-119.3" font-family="Helvetica,sans-Serif" font-size="14.00">class = 0</text>
</g>
<!-- 4&#45;&gt;8 -->
<g id="edge8" class="edge"><title>4&#45;&gt;8</title>
<path fill="none" stroke="black" d="M281.694,-222.907C281.877,-212.204 282.075,-200.615 282.26,-189.776"/>
<polygon fill="black" stroke="black" points="285.762,-189.725 282.433,-179.667 278.763,-189.606 285.762,-189.725"/>
</g>
<!-- 6 -->
<g id="node7" class="node"><title>6</title>
<path fill="none" stroke="black" d="M116,-68C116,-68 12,-68 12,-68 6,-68 0,-62 0,-56 0,-56 0,-12 0,-12 0,-6 6,-0 12,-0 12,-0 116,-0 116,-0 122,-0 128,-6 128,-12 128,-12 128,-56 128,-56 128,-62 122,-68 116,-68"/>
<text text-anchor="start" x="22" y="-52.8" font-family="Helvetica,sans-Serif" font-size="14.00">entropy = 0.0</text>
<text text-anchor="start" x="24.5" y="-37.8" font-family="Helvetica,sans-Serif" font-size="14.00">samples = 4</text>
<text text-anchor="start" x="8" y="-22.8" font-family="Helvetica,sans-Serif" font-size="14.00">value = [0, 0, 0, 4]</text>
<text text-anchor="start" x="35" y="-7.8" font-family="Helvetica,sans-Serif" font-size="14.00">class = 3</text>
</g>
<!-- 5&#45;&gt;6 -->
<g id="edge6" class="edge"><title>5&#45;&gt;6</title>
<path fill="none" stroke="black" d="M92.8713,-103.726C89.3079,-95.2439 85.5431,-86.2819 81.951,-77.7312"/>
<polygon fill="black" stroke="black" points="85.0888,-76.1635 77.9889,-68.2996 78.6351,-78.8747 85.0888,-76.1635"/>
</g>
<!-- 7 -->
<g id="node8" class="node"><title>7</title>
<path fill="none" stroke="black" d="M262,-68C262,-68 158,-68 158,-68 152,-68 146,-62 146,-56 146,-56 146,-12 146,-12 146,-6 152,-0 158,-0 158,-0 262,-0 262,-0 268,-0 274,-6 274,-12 274,-12 274,-56 274,-56 274,-62 268,-68 262,-68"/>
<text text-anchor="start" x="168" y="-52.8" font-family="Helvetica,sans-Serif" font-size="14.00">entropy = 0.0</text>
<text text-anchor="start" x="170.5" y="-37.8" font-family="Helvetica,sans-Serif" font-size="14.00">samples = 1</text>
<text text-anchor="start" x="154" y="-22.8" font-family="Helvetica,sans-Serif" font-size="14.00">value = [1, 0, 0, 0]</text>
<text text-anchor="start" x="181" y="-7.8" font-family="Helvetica,sans-Serif" font-size="14.00">class = 0</text>
</g>
<!-- 5&#45;&gt;7 -->
<g id="edge7" class="edge"><title>5&#45;&gt;7</title>
<path fill="none" stroke="black" d="M147.236,-103.726C155.566,-94.6054 164.402,-84.93 172.733,-75.8078"/>
<polygon fill="black" stroke="black" points="175.43,-78.044 179.589,-68.2996 170.261,-73.3235 175.43,-78.044"/>
</g>
<!-- 10 -->
<g id="node11" class="node"><title>10</title>
<path fill="none" stroke="black" d="M533,-187C533,-187 389,-187 389,-187 383,-187 377,-181 377,-175 377,-175 377,-116 377,-116 377,-110 383,-104 389,-104 389,-104 533,-104 533,-104 539,-104 545,-110 545,-116 545,-116 545,-175 545,-175 545,-181 539,-187 533,-187"/>
<text text-anchor="start" x="385" y="-171.8" font-family="Helvetica,sans-Serif" font-size="14.00">$vel^5_{max}$ ≤ 39.054</text>
<text text-anchor="start" x="411" y="-156.8" font-family="Helvetica,sans-Serif" font-size="14.00">entropy = 0.734</text>
<text text-anchor="start" x="417.5" y="-141.8" font-family="Helvetica,sans-Serif" font-size="14.00">samples = 34</text>
<text text-anchor="start" x="400.5" y="-126.8" font-family="Helvetica,sans-Serif" font-size="14.00">value = [27, 0, 0, 7]</text>
<text text-anchor="start" x="432" y="-111.8" font-family="Helvetica,sans-Serif" font-size="14.00">class = 0</text>
</g>
<!-- 9&#45;&gt;10 -->
<g id="edge10" class="edge"><title>9&#45;&gt;10</title>
<path fill="none" stroke="black" d="M462.306,-222.907C462.163,-214.558 462.011,-205.671 461.864,-197.02"/>
<polygon fill="black" stroke="black" points="465.363,-196.959 461.693,-187.021 458.364,-197.079 465.363,-196.959"/>
</g>
<!-- 13 -->
<g id="node14" class="node"><title>13</title>
<path fill="none" stroke="black" d="M688.5,-179.5C688.5,-179.5 575.5,-179.5 575.5,-179.5 569.5,-179.5 563.5,-173.5 563.5,-167.5 563.5,-167.5 563.5,-123.5 563.5,-123.5 563.5,-117.5 569.5,-111.5 575.5,-111.5 575.5,-111.5 688.5,-111.5 688.5,-111.5 694.5,-111.5 700.5,-117.5 700.5,-123.5 700.5,-123.5 700.5,-167.5 700.5,-167.5 700.5,-173.5 694.5,-179.5 688.5,-179.5"/>
<text text-anchor="start" x="590" y="-164.3" font-family="Helvetica,sans-Serif" font-size="14.00">entropy = 0.0</text>
<text text-anchor="start" x="588.5" y="-149.3" font-family="Helvetica,sans-Serif" font-size="14.00">samples = 51</text>
<text text-anchor="start" x="571.5" y="-134.3" font-family="Helvetica,sans-Serif" font-size="14.00">value = [0, 0, 0, 51]</text>
<text text-anchor="start" x="603" y="-119.3" font-family="Helvetica,sans-Serif" font-size="14.00">class = 3</text>
</g>
<!-- 9&#45;&gt;13 -->
<g id="edge13" class="edge"><title>9&#45;&gt;13</title>
<path fill="none" stroke="black" d="M521.634,-222.907C539.166,-210.769 558.343,-197.493 575.721,-185.462"/>
<polygon fill="black" stroke="black" points="577.863,-188.237 584.092,-179.667 573.878,-182.481 577.863,-188.237"/>
</g>
<!-- 11 -->
<g id="node12" class="node"><title>11</title>
<path fill="none" stroke="black" d="M460,-68C460,-68 356,-68 356,-68 350,-68 344,-62 344,-56 344,-56 344,-12 344,-12 344,-6 350,-0 356,-0 356,-0 460,-0 460,-0 466,-0 472,-6 472,-12 472,-12 472,-56 472,-56 472,-62 466,-68 460,-68"/>
<text text-anchor="start" x="358" y="-52.8" font-family="Helvetica,sans-Serif" font-size="14.00">entropy = 0.946</text>
<text text-anchor="start" x="364.5" y="-37.8" font-family="Helvetica,sans-Serif" font-size="14.00">samples = 11</text>
<text text-anchor="start" x="352" y="-22.8" font-family="Helvetica,sans-Serif" font-size="14.00">value = [4, 0, 0, 7]</text>
<text text-anchor="start" x="379" y="-7.8" font-family="Helvetica,sans-Serif" font-size="14.00">class = 3</text>
</g>
<!-- 10&#45;&gt;11 -->
<g id="edge11" class="edge"><title>10&#45;&gt;11</title>
<path fill="none" stroke="black" d="M441.265,-103.726C437.115,-95.1527 432.728,-86.0891 428.549,-77.4555"/>
<polygon fill="black" stroke="black" points="431.625,-75.7758 424.118,-68.2996 425.324,-78.8255 431.625,-75.7758"/>
</g>
<!-- 12 -->
<g id="node13" class="node"><title>12</title>
<path fill="none" stroke="black" d="M615.5,-68C615.5,-68 502.5,-68 502.5,-68 496.5,-68 490.5,-62 490.5,-56 490.5,-56 490.5,-12 490.5,-12 490.5,-6 496.5,-0 502.5,-0 502.5,-0 615.5,-0 615.5,-0 621.5,-0 627.5,-6 627.5,-12 627.5,-12 627.5,-56 627.5,-56 627.5,-62 621.5,-68 615.5,-68"/>
<text text-anchor="start" x="517" y="-52.8" font-family="Helvetica,sans-Serif" font-size="14.00">entropy = 0.0</text>
<text text-anchor="start" x="515.5" y="-37.8" font-family="Helvetica,sans-Serif" font-size="14.00">samples = 23</text>
<text text-anchor="start" x="498.5" y="-22.8" font-family="Helvetica,sans-Serif" font-size="14.00">value = [23, 0, 0, 0]</text>
<text text-anchor="start" x="530" y="-7.8" font-family="Helvetica,sans-Serif" font-size="14.00">class = 0</text>
</g>
<!-- 10&#45;&gt;12 -->
<g id="edge12" class="edge"><title>10&#45;&gt;12</title>
<path fill="none" stroke="black" d="M497.492,-103.726C505.655,-94.6054 514.314,-84.93 522.478,-75.8078"/>
<polygon fill="black" stroke="black" points="525.137,-78.0853 529.198,-68.2996 519.921,-73.417 525.137,-78.0853"/>
</g>
<!-- 15 -->
<g id="node16" class="node"><title>15</title>
<path fill="none" stroke="black" d="M649.5,-417.5C649.5,-417.5 528.5,-417.5 528.5,-417.5 522.5,-417.5 516.5,-411.5 516.5,-405.5 516.5,-405.5 516.5,-361.5 516.5,-361.5 516.5,-355.5 522.5,-349.5 528.5,-349.5 528.5,-349.5 649.5,-349.5 649.5,-349.5 655.5,-349.5 661.5,-355.5 661.5,-361.5 661.5,-361.5 661.5,-405.5 661.5,-405.5 661.5,-411.5 655.5,-417.5 649.5,-417.5"/>
<text text-anchor="start" x="547" y="-402.3" font-family="Helvetica,sans-Serif" font-size="14.00">entropy = 0.0</text>
<text text-anchor="start" x="541.5" y="-387.3" font-family="Helvetica,sans-Serif" font-size="14.00">samples = 944</text>
<text text-anchor="start" x="524.5" y="-372.3" font-family="Helvetica,sans-Serif" font-size="14.00">value = [0, 944, 0, 0]</text>
<text text-anchor="start" x="560" y="-357.3" font-family="Helvetica,sans-Serif" font-size="14.00">class = 1</text>
</g>
<!-- 14&#45;&gt;15 -->
<g id="edge15" class="edge"><title>14&#45;&gt;15</title>
<path fill="none" stroke="black" d="M589,-460.907C589,-450.204 589,-438.615 589,-427.776"/>
<polygon fill="black" stroke="black" points="592.5,-427.667 589,-417.667 585.5,-427.667 592.5,-427.667"/>
</g>
<!-- 16 -->
<g id="node17" class="node"><title>16</title>
<path fill="none" stroke="black" d="M846.5,-425C846.5,-425 691.5,-425 691.5,-425 685.5,-425 679.5,-419 679.5,-413 679.5,-413 679.5,-354 679.5,-354 679.5,-348 685.5,-342 691.5,-342 691.5,-342 846.5,-342 846.5,-342 852.5,-342 858.5,-348 858.5,-354 858.5,-354 858.5,-413 858.5,-413 858.5,-419 852.5,-425 846.5,-425"/>
<text text-anchor="start" x="687.5" y="-409.8" font-family="Helvetica,sans-Serif" font-size="14.00">$pos^2_{min}$ ≤ 129.297</text>
<text text-anchor="start" x="719" y="-394.8" font-family="Helvetica,sans-Serif" font-size="14.00">entropy = 0.213</text>
<text text-anchor="start" x="721.5" y="-379.8" font-family="Helvetica,sans-Serif" font-size="14.00">samples = 680</text>
<text text-anchor="start" x="700.5" y="-364.8" font-family="Helvetica,sans-Serif" font-size="14.00">value = [0, 0, 657, 23]</text>
<text text-anchor="start" x="740" y="-349.8" font-family="Helvetica,sans-Serif" font-size="14.00">class = 2</text>
</g>
<!-- 14&#45;&gt;16 -->
<g id="edge16" class="edge"><title>14&#45;&gt;16</title>
<path fill="none" stroke="black" d="M651.45,-460.907C666.529,-451.106 682.749,-440.563 698.181,-430.533"/>
<polygon fill="black" stroke="black" points="700.183,-433.405 706.66,-425.021 696.368,-427.536 700.183,-433.405"/>
</g>
<!-- 17 -->
<g id="node18" class="node"><title>17</title>
<path fill="none" stroke="black" d="M749.5,-298.5C749.5,-298.5 628.5,-298.5 628.5,-298.5 622.5,-298.5 616.5,-292.5 616.5,-286.5 616.5,-286.5 616.5,-242.5 616.5,-242.5 616.5,-236.5 622.5,-230.5 628.5,-230.5 628.5,-230.5 749.5,-230.5 749.5,-230.5 755.5,-230.5 761.5,-236.5 761.5,-242.5 761.5,-242.5 761.5,-286.5 761.5,-286.5 761.5,-292.5 755.5,-298.5 749.5,-298.5"/>
<text text-anchor="start" x="647" y="-283.3" font-family="Helvetica,sans-Serif" font-size="14.00">entropy = 0.0</text>
<text text-anchor="start" x="641.5" y="-268.3" font-family="Helvetica,sans-Serif" font-size="14.00">samples = 657</text>
<text text-anchor="start" x="624.5" y="-253.3" font-family="Helvetica,sans-Serif" font-size="14.00">value = [0, 0, 657, 0]</text>
<text text-anchor="start" x="660" y="-238.3" font-family="Helvetica,sans-Serif" font-size="14.00">class = 2</text>
</g>
<!-- 16&#45;&gt;17 -->
<g id="edge17" class="edge"><title>16&#45;&gt;17</title>
<path fill="none" stroke="black" d="M741.244,-341.907C733.549,-330.652 725.183,-318.418 717.449,-307.106"/>
<polygon fill="black" stroke="black" points="720.212,-304.946 711.678,-298.667 714.433,-308.897 720.212,-304.946"/>
</g>
<!-- 18 -->
<g id="node19" class="node"><title>18</title>
<path fill="none" stroke="black" d="M904.5,-298.5C904.5,-298.5 791.5,-298.5 791.5,-298.5 785.5,-298.5 779.5,-292.5 779.5,-286.5 779.5,-286.5 779.5,-242.5 779.5,-242.5 779.5,-236.5 785.5,-230.5 791.5,-230.5 791.5,-230.5 904.5,-230.5 904.5,-230.5 910.5,-230.5 916.5,-236.5 916.5,-242.5 916.5,-242.5 916.5,-286.5 916.5,-286.5 916.5,-292.5 910.5,-298.5 904.5,-298.5"/>
<text text-anchor="start" x="806" y="-283.3" font-family="Helvetica,sans-Serif" font-size="14.00">entropy = 0.0</text>
<text text-anchor="start" x="804.5" y="-268.3" font-family="Helvetica,sans-Serif" font-size="14.00">samples = 23</text>
<text text-anchor="start" x="787.5" y="-253.3" font-family="Helvetica,sans-Serif" font-size="14.00">value = [0, 0, 0, 23]</text>
<text text-anchor="start" x="819" y="-238.3" font-family="Helvetica,sans-Serif" font-size="14.00">class = 3</text>
</g>
<!-- 16&#45;&gt;18 -->
<g id="edge18" class="edge"><title>16&#45;&gt;18</title>
<path fill="none" stroke="black" d="M796.409,-341.907C804.008,-330.652 812.269,-318.418 819.907,-307.106"/>
<polygon fill="black" stroke="black" points="822.91,-308.913 825.605,-298.667 817.109,-304.996 822.91,-308.913"/>
</g>
</g>
</svg>
