<?xml version="1.0" encoding="UTF-8" standalone="no"?>
<!DOCTYPE svg PUBLIC "-//W3C//DTD SVG 1.1//EN"
 "http://www.w3.org/Graphics/SVG/1.1/DTD/svg11.dtd">
<!-- Generated by graphviz version 2.38.0 (20140413.2041)
 -->
<!-- Title: Tree Pages: 1 -->
<svg width="1594pt" height="552pt"
 viewBox="0.00 0.00 1593.50 552.00" xmlns="http://www.w3.org/2000/svg" xmlns:xlink="http://www.w3.org/1999/xlink">
<g id="graph0" class="graph" transform="scale(1 1) rotate(0) translate(4 548)">
<title>Tree</title>
<polygon fill="white" stroke="none" points="-4,4 -4,-548 1589.5,-548 1589.5,4 -4,4"/>
<!-- 0 -->
<g id="node1" class="node"><title>0</title>
<path fill="none" stroke="black" d="M1065,-544C1065,-544 886,-544 886,-544 880,-544 874,-538 874,-532 874,-532 874,-473 874,-473 874,-467 880,-461 886,-461 886,-461 1065,-461 1065,-461 1071,-461 1077,-467 1077,-473 1077,-473 1077,-532 1077,-532 1077,-538 1071,-544 1065,-544"/>
<text text-anchor="start" x="903.5" y="-528.8" font-family="Helvetica,sans-Serif" font-size="14.00">$for^6_{min}$ ≤ &#45;8.576</text>
<text text-anchor="start" x="925.5" y="-513.8" font-family="Helvetica,sans-Serif" font-size="14.00">entropy = 0.982</text>
<text text-anchor="start" x="924" y="-498.8" font-family="Helvetica,sans-Serif" font-size="14.00">samples = 9622</text>
<text text-anchor="start" x="882" y="-483.8" font-family="Helvetica,sans-Serif" font-size="14.00">value = [7582, 38, 1009, 993]</text>
<text text-anchor="start" x="946.5" y="-468.8" font-family="Helvetica,sans-Serif" font-size="14.00">class = 0</text>
</g>
<!-- 1 -->
<g id="node2" class="node"><title>1</title>
<path fill="none" stroke="black" d="M920.5,-425C920.5,-425 766.5,-425 766.5,-425 760.5,-425 754.5,-419 754.5,-413 754.5,-413 754.5,-354 754.5,-354 754.5,-348 760.5,-342 766.5,-342 766.5,-342 920.5,-342 920.5,-342 926.5,-342 932.5,-348 932.5,-354 932.5,-354 932.5,-413 932.5,-413 932.5,-419 926.5,-425 920.5,-425"/>
<text text-anchor="start" x="775.5" y="-409.8" font-family="Helvetica,sans-Serif" font-size="14.00">$for^1_{std}$ ≤ 2.065</text>
<text text-anchor="start" x="793.5" y="-394.8" font-family="Helvetica,sans-Serif" font-size="14.00">entropy = 0.561</text>
<text text-anchor="start" x="792" y="-379.8" font-family="Helvetica,sans-Serif" font-size="14.00">samples = 8610</text>
<text text-anchor="start" x="762.5" y="-364.8" font-family="Helvetica,sans-Serif" font-size="14.00">value = [7580, 38, 987, 5]</text>
<text text-anchor="start" x="814.5" y="-349.8" font-family="Helvetica,sans-Serif" font-size="14.00">class = 0</text>
</g>
<!-- 0&#45;&gt;1 -->
<g id="edge1" class="edge"><title>0&#45;&gt;1</title>
<path fill="none" stroke="black" d="M929.703,-460.907C919.158,-451.56 907.85,-441.538 897.009,-431.929"/>
<polygon fill="black" stroke="black" points="899.021,-429.035 889.216,-425.021 894.378,-434.273 899.021,-429.035"/>
<text text-anchor="middle" x="890.719" y="-446.276" font-family="Helvetica,sans-Serif" font-size="14.00">True</text>
</g>
<!-- 14 -->
<g id="node15" class="node"><title>14</title>
<path fill="none" stroke="black" d="M1173,-425C1173,-425 1044,-425 1044,-425 1038,-425 1032,-419 1032,-413 1032,-413 1032,-354 1032,-354 1032,-348 1038,-342 1044,-342 1044,-342 1173,-342 1173,-342 1179,-342 1185,-348 1185,-354 1185,-354 1185,-413 1185,-413 1185,-419 1179,-425 1173,-425"/>
<text text-anchor="start" x="1040.5" y="-409.8" font-family="Helvetica,sans-Serif" font-size="14.00">$for^1_{std}$ ≤ 1.163</text>
<text text-anchor="start" x="1058.5" y="-394.8" font-family="Helvetica,sans-Serif" font-size="14.00">entropy = 0.172</text>
<text text-anchor="start" x="1057" y="-379.8" font-family="Helvetica,sans-Serif" font-size="14.00">samples = 1012</text>
<text text-anchor="start" x="1040" y="-364.8" font-family="Helvetica,sans-Serif" font-size="14.00">value = [2, 0, 22, 988]</text>
<text text-anchor="start" x="1079.5" y="-349.8" font-family="Helvetica,sans-Serif" font-size="14.00">class = 3</text>
</g>
<!-- 0&#45;&gt;14 -->
<g id="edge14" class="edge"><title>0&#45;&gt;14</title>
<path fill="none" stroke="black" d="M1021.64,-460.907C1032.37,-451.469 1043.88,-441.343 1054.9,-431.649"/>
<polygon fill="black" stroke="black" points="1057.24,-434.254 1062.44,-425.021 1052.62,-428.998 1057.24,-434.254"/>
<text text-anchor="middle" x="1060.84" y="-446.27" font-family="Helvetica,sans-Serif" font-size="14.00">False</text>
</g>
<!-- 2 -->
<g id="node3" class="node"><title>2</title>
<path fill="none" stroke="black" d="M549.5,-306C549.5,-306 395.5,-306 395.5,-306 389.5,-306 383.5,-300 383.5,-294 383.5,-294 383.5,-235 383.5,-235 383.5,-229 389.5,-223 395.5,-223 395.5,-223 549.5,-223 549.5,-223 555.5,-223 561.5,-229 561.5,-235 561.5,-235 561.5,-294 561.5,-294 561.5,-300 555.5,-306 549.5,-306"/>
<text text-anchor="start" x="401" y="-290.8" font-family="Helvetica,sans-Serif" font-size="14.00">$for^3_{max}$ ≤ 7.012</text>
<text text-anchor="start" x="422.5" y="-275.8" font-family="Helvetica,sans-Serif" font-size="14.00">entropy = 0.172</text>
<text text-anchor="start" x="421" y="-260.8" font-family="Helvetica,sans-Serif" font-size="14.00">samples = 7707</text>
<text text-anchor="start" x="391.5" y="-245.8" font-family="Helvetica,sans-Serif" font-size="14.00">value = [7539, 38, 125, 5]</text>
<text text-anchor="start" x="443.5" y="-230.8" font-family="Helvetica,sans-Serif" font-size="14.00">class = 0</text>
</g>
<!-- 1&#45;&gt;2 -->
<g id="edge2" class="edge"><title>1&#45;&gt;2</title>
<path fill="none" stroke="black" d="M754.164,-354.327C699.034,-336.941 628.24,-314.615 571.418,-296.695"/>
<polygon fill="black" stroke="black" points="572.293,-293.301 561.703,-293.631 570.187,-299.977 572.293,-293.301"/>
</g>
<!-- 9 -->
<g id="node10" class="node"><title>9</title>
<path fill="none" stroke="black" d="M915,-306C915,-306 772,-306 772,-306 766,-306 760,-300 760,-294 760,-294 760,-235 760,-235 760,-229 766,-223 772,-223 772,-223 915,-223 915,-223 921,-223 927,-229 927,-235 927,-235 927,-294 927,-294 927,-300 921,-306 915,-306"/>
<text text-anchor="start" x="768" y="-290.8" font-family="Helvetica,sans-Serif" font-size="14.00">$for^5_{max}$ ≤ 55.531</text>
<text text-anchor="start" x="793.5" y="-275.8" font-family="Helvetica,sans-Serif" font-size="14.00">entropy = 0.267</text>
<text text-anchor="start" x="796" y="-260.8" font-family="Helvetica,sans-Serif" font-size="14.00">samples = 903</text>
<text text-anchor="start" x="775" y="-245.8" font-family="Helvetica,sans-Serif" font-size="14.00">value = [41, 0, 862, 0]</text>
<text text-anchor="start" x="814.5" y="-230.8" font-family="Helvetica,sans-Serif" font-size="14.00">class = 2</text>
</g>
<!-- 1&#45;&gt;9 -->
<g id="edge9" class="edge"><title>1&#45;&gt;9</title>
<path fill="none" stroke="black" d="M843.5,-341.907C843.5,-333.649 843.5,-324.864 843.5,-316.302"/>
<polygon fill="black" stroke="black" points="847,-316.021 843.5,-306.021 840,-316.021 847,-316.021"/>
</g>
<!-- 3 -->
<g id="node4" class="node"><title>3</title>
<path fill="none" stroke="black" d="M303.5,-187C303.5,-187 151.5,-187 151.5,-187 145.5,-187 139.5,-181 139.5,-175 139.5,-175 139.5,-116 139.5,-116 139.5,-110 145.5,-104 151.5,-104 151.5,-104 303.5,-104 303.5,-104 309.5,-104 315.5,-110 315.5,-116 315.5,-116 315.5,-175 315.5,-175 315.5,-181 309.5,-187 303.5,-187"/>
<text text-anchor="start" x="147.5" y="-171.8" font-family="Helvetica,sans-Serif" font-size="14.00">$for^5_{mean}$ ≤ 19.466</text>
<text text-anchor="start" x="177.5" y="-156.8" font-family="Helvetica,sans-Serif" font-size="14.00">entropy = 1.093</text>
<text text-anchor="start" x="180" y="-141.8" font-family="Helvetica,sans-Serif" font-size="14.00">samples = 195</text>
<text text-anchor="start" x="159" y="-126.8" font-family="Helvetica,sans-Serif" font-size="14.00">value = [71, 1, 120, 3]</text>
<text text-anchor="start" x="198.5" y="-111.8" font-family="Helvetica,sans-Serif" font-size="14.00">class = 2</text>
</g>
<!-- 2&#45;&gt;3 -->
<g id="edge3" class="edge"><title>2&#45;&gt;3</title>
<path fill="none" stroke="black" d="M387.498,-222.907C366.215,-212.743 343.259,-201.781 321.564,-191.42"/>
<polygon fill="black" stroke="black" points="322.883,-188.172 312.351,-187.021 319.867,-194.489 322.883,-188.172"/>
</g>
<!-- 6 -->
<g id="node7" class="node"><title>6</title>
<path fill="none" stroke="black" d="M545.5,-187C545.5,-187 399.5,-187 399.5,-187 393.5,-187 387.5,-181 387.5,-175 387.5,-175 387.5,-116 387.5,-116 387.5,-110 393.5,-104 399.5,-104 399.5,-104 545.5,-104 545.5,-104 551.5,-104 557.5,-110 557.5,-116 557.5,-116 557.5,-175 557.5,-175 557.5,-181 551.5,-187 545.5,-187"/>
<text text-anchor="start" x="395.5" y="-171.8" font-family="Helvetica,sans-Serif" font-size="14.00">$pos^2_{min}$ ≤ 61.294</text>
<text text-anchor="start" x="422.5" y="-156.8" font-family="Helvetica,sans-Serif" font-size="14.00">entropy = 0.056</text>
<text text-anchor="start" x="421" y="-141.8" font-family="Helvetica,sans-Serif" font-size="14.00">samples = 7512</text>
<text text-anchor="start" x="400" y="-126.8" font-family="Helvetica,sans-Serif" font-size="14.00">value = [7468, 37, 5, 2]</text>
<text text-anchor="start" x="443.5" y="-111.8" font-family="Helvetica,sans-Serif" font-size="14.00">class = 0</text>
</g>
<!-- 2&#45;&gt;6 -->
<g id="edge6" class="edge"><title>2&#45;&gt;6</title>
<path fill="none" stroke="black" d="M472.5,-222.907C472.5,-214.649 472.5,-205.864 472.5,-197.302"/>
<polygon fill="black" stroke="black" points="476,-197.021 472.5,-187.021 469,-197.021 476,-197.021"/>
</g>
<!-- 4 -->
<g id="node5" class="node"><title>4</title>
<path fill="none" stroke="black" d="M125,-68C125,-68 12,-68 12,-68 6,-68 0,-62 0,-56 0,-56 0,-12 0,-12 0,-6 6,-0 12,-0 12,-0 125,-0 125,-0 131,-0 137,-6 137,-12 137,-12 137,-56 137,-56 137,-62 131,-68 125,-68"/>
<text text-anchor="start" x="18.5" y="-52.8" font-family="Helvetica,sans-Serif" font-size="14.00">entropy = 0.111</text>
<text text-anchor="start" x="25" y="-37.8" font-family="Helvetica,sans-Serif" font-size="14.00">samples = 68</text>
<text text-anchor="start" x="8" y="-22.8" font-family="Helvetica,sans-Serif" font-size="14.00">value = [67, 1, 0, 0]</text>
<text text-anchor="start" x="39.5" y="-7.8" font-family="Helvetica,sans-Serif" font-size="14.00">class = 0</text>
</g>
<!-- 3&#45;&gt;4 -->
<g id="edge4" class="edge"><title>3&#45;&gt;4</title>
<path fill="none" stroke="black" d="M168.294,-103.726C154.183,-94.0078 139.157,-83.6597 125.162,-74.0222"/>
<polygon fill="black" stroke="black" points="126.821,-70.9146 116.6,-68.1252 122.85,-76.6797 126.821,-70.9146"/>
</g>
<!-- 5 -->
<g id="node6" class="node"><title>5</title>
<path fill="none" stroke="black" d="M288,-68C288,-68 167,-68 167,-68 161,-68 155,-62 155,-56 155,-56 155,-12 155,-12 155,-6 161,-0 167,-0 167,-0 288,-0 288,-0 294,-0 300,-6 300,-12 300,-12 300,-56 300,-56 300,-62 294,-68 288,-68"/>
<text text-anchor="start" x="177.5" y="-52.8" font-family="Helvetica,sans-Serif" font-size="14.00">entropy = 0.362</text>
<text text-anchor="start" x="180" y="-37.8" font-family="Helvetica,sans-Serif" font-size="14.00">samples = 127</text>
<text text-anchor="start" x="163" y="-22.8" font-family="Helvetica,sans-Serif" font-size="14.00">value = [4, 0, 120, 3]</text>
<text text-anchor="start" x="198.5" y="-7.8" font-family="Helvetica,sans-Serif" font-size="14.00">class = 2</text>
</g>
<!-- 3&#45;&gt;5 -->
<g id="edge5" class="edge"><title>3&#45;&gt;5</title>
<path fill="none" stroke="black" d="M227.5,-103.726C227.5,-95.5175 227.5,-86.8595 227.5,-78.56"/>
<polygon fill="black" stroke="black" points="231,-78.2996 227.5,-68.2996 224,-78.2996 231,-78.2996"/>
</g>
<!-- 7 -->
<g id="node8" class="node"><title>7</title>
<path fill="none" stroke="black" d="M443,-68C443,-68 330,-68 330,-68 324,-68 318,-62 318,-56 318,-56 318,-12 318,-12 318,-6 324,-0 330,-0 330,-0 443,-0 443,-0 449,-0 455,-6 455,-12 455,-12 455,-56 455,-56 455,-62 449,-68 443,-68"/>
<text text-anchor="start" x="344.5" y="-52.8" font-family="Helvetica,sans-Serif" font-size="14.00">entropy = 0.0</text>
<text text-anchor="start" x="343" y="-37.8" font-family="Helvetica,sans-Serif" font-size="14.00">samples = 37</text>
<text text-anchor="start" x="326" y="-22.8" font-family="Helvetica,sans-Serif" font-size="14.00">value = [0, 37, 0, 0]</text>
<text text-anchor="start" x="357.5" y="-7.8" font-family="Helvetica,sans-Serif" font-size="14.00">class = 1</text>
</g>
<!-- 6&#45;&gt;7 -->
<g id="edge7" class="edge"><title>6&#45;&gt;7</title>
<path fill="none" stroke="black" d="M440.477,-103.726C433.457,-94.7878 426.018,-85.3168 418.98,-76.3558"/>
<polygon fill="black" stroke="black" points="421.582,-74.0022 412.653,-68.2996 416.077,-78.3259 421.582,-74.0022"/>
</g>
<!-- 8 -->
<g id="node9" class="node"><title>8</title>
<path fill="none" stroke="black" d="M614,-68C614,-68 485,-68 485,-68 479,-68 473,-62 473,-56 473,-56 473,-12 473,-12 473,-6 479,-0 485,-0 485,-0 614,-0 614,-0 620,-0 626,-6 626,-12 626,-12 626,-56 626,-56 626,-62 620,-68 614,-68"/>
<text text-anchor="start" x="499.5" y="-52.8" font-family="Helvetica,sans-Serif" font-size="14.00">entropy = 0.012</text>
<text text-anchor="start" x="498" y="-37.8" font-family="Helvetica,sans-Serif" font-size="14.00">samples = 7475</text>
<text text-anchor="start" x="481" y="-22.8" font-family="Helvetica,sans-Serif" font-size="14.00">value = [7468, 0, 5, 2]</text>
<text text-anchor="start" x="520.5" y="-7.8" font-family="Helvetica,sans-Serif" font-size="14.00">class = 0</text>
</g>
<!-- 6&#45;&gt;8 -->
<g id="edge8" class="edge"><title>6&#45;&gt;8</title>
<path fill="none" stroke="black" d="M501.172,-103.726C507.393,-94.879 513.982,-85.51 520.226,-76.6303"/>
<polygon fill="black" stroke="black" points="523.195,-78.4929 526.084,-68.2996 517.469,-74.4664 523.195,-78.4929"/>
</g>
<!-- 10 -->
<g id="node11" class="node"><title>10</title>
<path fill="none" stroke="black" d="M791.5,-187C791.5,-187 641.5,-187 641.5,-187 635.5,-187 629.5,-181 629.5,-175 629.5,-175 629.5,-116 629.5,-116 629.5,-110 635.5,-104 641.5,-104 641.5,-104 791.5,-104 791.5,-104 797.5,-104 803.5,-110 803.5,-116 803.5,-116 803.5,-175 803.5,-175 803.5,-181 797.5,-187 791.5,-187"/>
<text text-anchor="start" x="637.5" y="-171.8" font-family="Helvetica,sans-Serif" font-size="14.00">$pos^1_{max}$ ≤ 61.976</text>
<text text-anchor="start" x="666.5" y="-156.8" font-family="Helvetica,sans-Serif" font-size="14.00">entropy = 0.013</text>
<text text-anchor="start" x="669" y="-141.8" font-family="Helvetica,sans-Serif" font-size="14.00">samples = 863</text>
<text text-anchor="start" x="652" y="-126.8" font-family="Helvetica,sans-Serif" font-size="14.00">value = [1, 0, 862, 0]</text>
<text text-anchor="start" x="687.5" y="-111.8" font-family="Helvetica,sans-Serif" font-size="14.00">class = 2</text>
</g>
<!-- 9&#45;&gt;10 -->
<g id="edge10" class="edge"><title>9&#45;&gt;10</title>
<path fill="none" stroke="black" d="M799.438,-222.907C789.292,-213.56 778.413,-203.538 767.983,-193.929"/>
<polygon fill="black" stroke="black" points="770.21,-191.222 760.484,-187.021 765.467,-196.371 770.21,-191.222"/>
</g>
<!-- 13 -->
<g id="node14" class="node"><title>13</title>
<path fill="none" stroke="black" d="M947,-179.5C947,-179.5 834,-179.5 834,-179.5 828,-179.5 822,-173.5 822,-167.5 822,-167.5 822,-123.5 822,-123.5 822,-117.5 828,-111.5 834,-111.5 834,-111.5 947,-111.5 947,-111.5 953,-111.5 959,-117.5 959,-123.5 959,-123.5 959,-167.5 959,-167.5 959,-173.5 953,-179.5 947,-179.5"/>
<text text-anchor="start" x="848.5" y="-164.3" font-family="Helvetica,sans-Serif" font-size="14.00">entropy = 0.0</text>
<text text-anchor="start" x="847" y="-149.3" font-family="Helvetica,sans-Serif" font-size="14.00">samples = 40</text>
<text text-anchor="start" x="830" y="-134.3" font-family="Helvetica,sans-Serif" font-size="14.00">value = [40, 0, 0, 0]</text>
<text text-anchor="start" x="861.5" y="-119.3" font-family="Helvetica,sans-Serif" font-size="14.00">class = 0</text>
</g>
<!-- 9&#45;&gt;13 -->
<g id="edge13" class="edge"><title>9&#45;&gt;13</title>
<path fill="none" stroke="black" d="M859.806,-222.907C864.195,-211.983 868.953,-200.137 873.384,-189.107"/>
<polygon fill="black" stroke="black" points="876.697,-190.251 877.177,-179.667 870.201,-187.642 876.697,-190.251"/>
</g>
<!-- 11 -->
<g id="node12" class="node"><title>11</title>
<path fill="none" stroke="black" d="M777,-68C777,-68 656,-68 656,-68 650,-68 644,-62 644,-56 644,-56 644,-12 644,-12 644,-6 650,-0 656,-0 656,-0 777,-0 777,-0 783,-0 789,-6 789,-12 789,-12 789,-56 789,-56 789,-62 783,-68 777,-68"/>
<text text-anchor="start" x="674.5" y="-52.8" font-family="Helvetica,sans-Serif" font-size="14.00">entropy = 0.0</text>
<text text-anchor="start" x="669" y="-37.8" font-family="Helvetica,sans-Serif" font-size="14.00">samples = 862</text>
<text text-anchor="start" x="652" y="-22.8" font-family="Helvetica,sans-Serif" font-size="14.00">value = [0, 0, 862, 0]</text>
<text text-anchor="start" x="687.5" y="-7.8" font-family="Helvetica,sans-Serif" font-size="14.00">class = 2</text>
</g>
<!-- 10&#45;&gt;11 -->
<g id="edge11" class="edge"><title>10&#45;&gt;11</title>
<path fill="none" stroke="black" d="M716.5,-103.726C716.5,-95.5175 716.5,-86.8595 716.5,-78.56"/>
<polygon fill="black" stroke="black" points="720,-78.2996 716.5,-68.2996 713,-78.2996 720,-78.2996"/>
</g>
<!-- 12 -->
<g id="node13" class="node"><title>12</title>
<path fill="none" stroke="black" d="M923.5,-68C923.5,-68 819.5,-68 819.5,-68 813.5,-68 807.5,-62 807.5,-56 807.5,-56 807.5,-12 807.5,-12 807.5,-6 813.5,-0 819.5,-0 819.5,-0 923.5,-0 923.5,-0 929.5,-0 935.5,-6 935.5,-12 935.5,-12 935.5,-56 935.5,-56 935.5,-62 929.5,-68 923.5,-68"/>
<text text-anchor="start" x="829.5" y="-52.8" font-family="Helvetica,sans-Serif" font-size="14.00">entropy = 0.0</text>
<text text-anchor="start" x="832" y="-37.8" font-family="Helvetica,sans-Serif" font-size="14.00">samples = 1</text>
<text text-anchor="start" x="815.5" y="-22.8" font-family="Helvetica,sans-Serif" font-size="14.00">value = [1, 0, 0, 0]</text>
<text text-anchor="start" x="842.5" y="-7.8" font-family="Helvetica,sans-Serif" font-size="14.00">class = 0</text>
</g>
<!-- 10&#45;&gt;12 -->
<g id="edge12" class="edge"><title>10&#45;&gt;12</title>
<path fill="none" stroke="black" d="M774.216,-103.726C787.902,-94.0582 802.469,-83.767 816.051,-74.172"/>
<polygon fill="black" stroke="black" points="818.216,-76.9282 824.364,-68.2996 814.177,-71.2109 818.216,-76.9282"/>
</g>
<!-- 15 -->
<g id="node16" class="node"><title>15</title>
<path fill="none" stroke="black" d="M1180,-306C1180,-306 1037,-306 1037,-306 1031,-306 1025,-300 1025,-294 1025,-294 1025,-235 1025,-235 1025,-229 1031,-223 1037,-223 1037,-223 1180,-223 1180,-223 1186,-223 1192,-229 1192,-235 1192,-235 1192,-294 1192,-294 1192,-300 1186,-306 1180,-306"/>
<text text-anchor="start" x="1033" y="-290.8" font-family="Helvetica,sans-Serif" font-size="14.00">$for^3_{max}$ ≤ 15.582</text>
<text text-anchor="start" x="1058.5" y="-275.8" font-family="Helvetica,sans-Serif" font-size="14.00">entropy = 0.133</text>
<text text-anchor="start" x="1057" y="-260.8" font-family="Helvetica,sans-Serif" font-size="14.00">samples = 1002</text>
<text text-anchor="start" x="1040" y="-245.8" font-family="Helvetica,sans-Serif" font-size="14.00">value = [2, 0, 15, 985]</text>
<text text-anchor="start" x="1079.5" y="-230.8" font-family="Helvetica,sans-Serif" font-size="14.00">class = 3</text>
</g>
<!-- 14&#45;&gt;15 -->
<g id="edge15" class="edge"><title>14&#45;&gt;15</title>
<path fill="none" stroke="black" d="M1108.5,-341.907C1108.5,-333.649 1108.5,-324.864 1108.5,-316.302"/>
<polygon fill="black" stroke="black" points="1112,-316.021 1108.5,-306.021 1105,-316.021 1112,-316.021"/>
</g>
<!-- 20 -->
<g id="node21" class="node"><title>20</title>
<path fill="none" stroke="black" d="M1443.5,-306C1443.5,-306 1307.5,-306 1307.5,-306 1301.5,-306 1295.5,-300 1295.5,-294 1295.5,-294 1295.5,-235 1295.5,-235 1295.5,-229 1301.5,-223 1307.5,-223 1307.5,-223 1443.5,-223 1443.5,-223 1449.5,-223 1455.5,-229 1455.5,-235 1455.5,-235 1455.5,-294 1455.5,-294 1455.5,-300 1449.5,-306 1443.5,-306"/>
<text text-anchor="start" x="1303.5" y="-290.8" font-family="Helvetica,sans-Serif" font-size="14.00">$for^6_{min}$ ≤ &#45;5.894</text>
<text text-anchor="start" x="1325.5" y="-275.8" font-family="Helvetica,sans-Serif" font-size="14.00">entropy = 0.881</text>
<text text-anchor="start" x="1332" y="-260.8" font-family="Helvetica,sans-Serif" font-size="14.00">samples = 10</text>
<text text-anchor="start" x="1319.5" y="-245.8" font-family="Helvetica,sans-Serif" font-size="14.00">value = [0, 0, 7, 3]</text>
<text text-anchor="start" x="1346.5" y="-230.8" font-family="Helvetica,sans-Serif" font-size="14.00">class = 2</text>
</g>
<!-- 14&#45;&gt;20 -->
<g id="edge20" class="edge"><title>14&#45;&gt;20</title>
<path fill="none" stroke="black" d="M1185.01,-348.972C1216.43,-335.206 1253.03,-319.167 1285.7,-304.849"/>
<polygon fill="black" stroke="black" points="1287.5,-307.883 1295.26,-300.663 1284.69,-301.471 1287.5,-307.883"/>
</g>
<!-- 16 -->
<g id="node17" class="node"><title>16</title>
<path fill="none" stroke="black" d="M1135.5,-187C1135.5,-187 989.5,-187 989.5,-187 983.5,-187 977.5,-181 977.5,-175 977.5,-175 977.5,-116 977.5,-116 977.5,-110 983.5,-104 989.5,-104 989.5,-104 1135.5,-104 1135.5,-104 1141.5,-104 1147.5,-110 1147.5,-116 1147.5,-116 1147.5,-175 1147.5,-175 1147.5,-181 1141.5,-187 1135.5,-187"/>
<text text-anchor="start" x="985.5" y="-171.8" font-family="Helvetica,sans-Serif" font-size="14.00">$pos^2_{min}$ ≤ 61.682</text>
<text text-anchor="start" x="1012.5" y="-156.8" font-family="Helvetica,sans-Serif" font-size="14.00">entropy = 0.112</text>
<text text-anchor="start" x="1011" y="-141.8" font-family="Helvetica,sans-Serif" font-size="14.00">samples = 1000</text>
<text text-anchor="start" x="994" y="-126.8" font-family="Helvetica,sans-Serif" font-size="14.00">value = [0, 0, 15, 985]</text>
<text text-anchor="start" x="1033.5" y="-111.8" font-family="Helvetica,sans-Serif" font-size="14.00">class = 3</text>
</g>
<!-- 15&#45;&gt;16 -->
<g id="edge16" class="edge"><title>15&#45;&gt;16</title>
<path fill="none" stroke="black" d="M1092.54,-222.907C1089.19,-214.377 1085.61,-205.284 1082.14,-196.456"/>
<polygon fill="black" stroke="black" points="1085.35,-195.047 1078.43,-187.021 1078.83,-197.608 1085.35,-195.047"/>
</g>
<!-- 19 -->
<g id="node20" class="node"><title>19</title>
<path fill="none" stroke="black" d="M1281.5,-179.5C1281.5,-179.5 1177.5,-179.5 1177.5,-179.5 1171.5,-179.5 1165.5,-173.5 1165.5,-167.5 1165.5,-167.5 1165.5,-123.5 1165.5,-123.5 1165.5,-117.5 1171.5,-111.5 1177.5,-111.5 1177.5,-111.5 1281.5,-111.5 1281.5,-111.5 1287.5,-111.5 1293.5,-117.5 1293.5,-123.5 1293.5,-123.5 1293.5,-167.5 1293.5,-167.5 1293.5,-173.5 1287.5,-179.5 1281.5,-179.5"/>
<text text-anchor="start" x="1187.5" y="-164.3" font-family="Helvetica,sans-Serif" font-size="14.00">entropy = 0.0</text>
<text text-anchor="start" x="1190" y="-149.3" font-family="Helvetica,sans-Serif" font-size="14.00">samples = 2</text>
<text text-anchor="start" x="1173.5" y="-134.3" font-family="Helvetica,sans-Serif" font-size="14.00">value = [2, 0, 0, 0]</text>
<text text-anchor="start" x="1200.5" y="-119.3" font-family="Helvetica,sans-Serif" font-size="14.00">class = 0</text>
</g>
<!-- 15&#45;&gt;19 -->
<g id="edge19" class="edge"><title>15&#45;&gt;19</title>
<path fill="none" stroke="black" d="M1150.48,-222.907C1162.58,-211.211 1175.77,-198.457 1187.84,-186.78"/>
<polygon fill="black" stroke="black" points="1190.44,-189.134 1195.2,-179.667 1185.58,-184.102 1190.44,-189.134"/>
</g>
<!-- 17 -->
<g id="node18" class="node"><title>17</title>
<path fill="none" stroke="black" d="M1111,-68C1111,-68 982,-68 982,-68 976,-68 970,-62 970,-56 970,-56 970,-12 970,-12 970,-6 976,-0 982,-0 982,-0 1111,-0 1111,-0 1117,-0 1123,-6 1123,-12 1123,-12 1123,-56 1123,-56 1123,-62 1117,-68 1111,-68"/>
<text text-anchor="start" x="996.5" y="-52.8" font-family="Helvetica,sans-Serif" font-size="14.00">entropy = 0.214</text>
<text text-anchor="start" x="999" y="-37.8" font-family="Helvetica,sans-Serif" font-size="14.00">samples = 382</text>
<text text-anchor="start" x="978" y="-22.8" font-family="Helvetica,sans-Serif" font-size="14.00">value = [0, 0, 13, 369]</text>
<text text-anchor="start" x="1017.5" y="-7.8" font-family="Helvetica,sans-Serif" font-size="14.00">class = 3</text>
</g>
<!-- 16&#45;&gt;17 -->
<g id="edge17" class="edge"><title>16&#45;&gt;17</title>
<path fill="none" stroke="black" d="M1056.54,-103.726C1055.33,-95.4263 1054.05,-86.6671 1052.82,-78.2834"/>
<polygon fill="black" stroke="black" points="1056.27,-77.6885 1051.37,-68.2996 1049.35,-78.7006 1056.27,-77.6885"/>
</g>
<!-- 18 -->
<g id="node19" class="node"><title>18</title>
<path fill="none" stroke="black" d="M1274,-68C1274,-68 1153,-68 1153,-68 1147,-68 1141,-62 1141,-56 1141,-56 1141,-12 1141,-12 1141,-6 1147,-0 1153,-0 1153,-0 1274,-0 1274,-0 1280,-0 1286,-6 1286,-12 1286,-12 1286,-56 1286,-56 1286,-62 1280,-68 1274,-68"/>
<text text-anchor="start" x="1163.5" y="-52.8" font-family="Helvetica,sans-Serif" font-size="14.00">entropy = 0.031</text>
<text text-anchor="start" x="1166" y="-37.8" font-family="Helvetica,sans-Serif" font-size="14.00">samples = 618</text>
<text text-anchor="start" x="1149" y="-22.8" font-family="Helvetica,sans-Serif" font-size="14.00">value = [0, 0, 2, 616]</text>
<text text-anchor="start" x="1184.5" y="-7.8" font-family="Helvetica,sans-Serif" font-size="14.00">class = 3</text>
</g>
<!-- 16&#45;&gt;18 -->
<g id="edge18" class="edge"><title>16&#45;&gt;18</title>
<path fill="none" stroke="black" d="M1118.73,-103.726C1132.06,-94.0582 1146.25,-83.767 1159.48,-74.172"/>
<polygon fill="black" stroke="black" points="1161.54,-77.0036 1167.58,-68.2996 1157.43,-71.3368 1161.54,-77.0036"/>
</g>
<!-- 21 -->
<g id="node22" class="node"><title>21</title>
<path fill="none" stroke="black" d="M1427.5,-179.5C1427.5,-179.5 1323.5,-179.5 1323.5,-179.5 1317.5,-179.5 1311.5,-173.5 1311.5,-167.5 1311.5,-167.5 1311.5,-123.5 1311.5,-123.5 1311.5,-117.5 1317.5,-111.5 1323.5,-111.5 1323.5,-111.5 1427.5,-111.5 1427.5,-111.5 1433.5,-111.5 1439.5,-117.5 1439.5,-123.5 1439.5,-123.5 1439.5,-167.5 1439.5,-167.5 1439.5,-173.5 1433.5,-179.5 1427.5,-179.5"/>
<text text-anchor="start" x="1333.5" y="-164.3" font-family="Helvetica,sans-Serif" font-size="14.00">entropy = 0.0</text>
<text text-anchor="start" x="1336" y="-149.3" font-family="Helvetica,sans-Serif" font-size="14.00">samples = 7</text>
<text text-anchor="start" x="1319.5" y="-134.3" font-family="Helvetica,sans-Serif" font-size="14.00">value = [0, 0, 7, 0]</text>
<text text-anchor="start" x="1346.5" y="-119.3" font-family="Helvetica,sans-Serif" font-size="14.00">class = 2</text>
</g>
<!-- 20&#45;&gt;21 -->
<g id="edge21" class="edge"><title>20&#45;&gt;21</title>
<path fill="none" stroke="black" d="M1375.5,-222.907C1375.5,-212.204 1375.5,-200.615 1375.5,-189.776"/>
<polygon fill="black" stroke="black" points="1379,-189.667 1375.5,-179.667 1372,-189.667 1379,-189.667"/>
</g>
<!-- 22 -->
<g id="node23" class="node"><title>22</title>
<path fill="none" stroke="black" d="M1573.5,-179.5C1573.5,-179.5 1469.5,-179.5 1469.5,-179.5 1463.5,-179.5 1457.5,-173.5 1457.5,-167.5 1457.5,-167.5 1457.5,-123.5 1457.5,-123.5 1457.5,-117.5 1463.5,-111.5 1469.5,-111.5 1469.5,-111.5 1573.5,-111.5 1573.5,-111.5 1579.5,-111.5 1585.5,-117.5 1585.5,-123.5 1585.5,-123.5 1585.5,-167.5 1585.5,-167.5 1585.5,-173.5 1579.5,-179.5 1573.5,-179.5"/>
<text text-anchor="start" x="1479.5" y="-164.3" font-family="Helvetica,sans-Serif" font-size="14.00">entropy = 0.0</text>
<text text-anchor="start" x="1482" y="-149.3" font-family="Helvetica,sans-Serif" font-size="14.00">samples = 3</text>
<text text-anchor="start" x="1465.5" y="-134.3" font-family="Helvetica,sans-Serif" font-size="14.00">value = [0, 0, 0, 3]</text>
<text text-anchor="start" x="1492.5" y="-119.3" font-family="Helvetica,sans-Serif" font-size="14.00">class = 3</text>
</g>
<!-- 20&#45;&gt;22 -->
<g id="edge22" class="edge"><title>20&#45;&gt;22</title>
<path fill="none" stroke="black" d="M1426.15,-222.907C1441.03,-210.99 1457.27,-197.976 1472.06,-186.12"/>
<polygon fill="black" stroke="black" points="1474.5,-188.652 1480.11,-179.667 1470.12,-183.189 1474.5,-188.652"/>
</g>
</g>
</svg>
