<?xml version="1.0" encoding="UTF-8" standalone="no"?>
<!DOCTYPE svg PUBLIC "-//W3C//DTD SVG 1.1//EN"
 "http://www.w3.org/Graphics/SVG/1.1/DTD/svg11.dtd">
<!-- Generated by graphviz version 2.38.0 (20140413.2041)
 -->
<!-- Title: Tree Pages: 1 -->
<svg width="1076pt" height="671pt"
 viewBox="0.00 0.00 1076.00 671.00" xmlns="http://www.w3.org/2000/svg" xmlns:xlink="http://www.w3.org/1999/xlink">
<g id="graph0" class="graph" transform="scale(1 1) rotate(0) translate(4 667)">
<title>Tree</title>
<polygon fill="white" stroke="none" points="-4,4 -4,-667 1072,-667 1072,4 -4,4"/>
<!-- 0 -->
<g id="node1" class="node"><title>0</title>
<path fill="none" stroke="black" d="M750,-663C750,-663 571,-663 571,-663 565,-663 559,-657 559,-651 559,-651 559,-592 559,-592 559,-586 565,-580 571,-580 571,-580 750,-580 750,-580 756,-580 762,-586 762,-592 762,-592 762,-651 762,-651 762,-657 756,-663 750,-663"/>
<text text-anchor="start" x="585.5" y="-647.8" font-family="Helvetica,sans-Serif" font-size="14.00">$pos^5_{max}$ ≤ 104.4</text>
<text text-anchor="start" x="610.5" y="-632.8" font-family="Helvetica,sans-Serif" font-size="14.00">entropy = 1.971</text>
<text text-anchor="start" x="609" y="-617.8" font-family="Helvetica,sans-Serif" font-size="14.00">samples = 3287</text>
<text text-anchor="start" x="567" y="-602.8" font-family="Helvetica,sans-Serif" font-size="14.00">value = [664, 944, 657, 1022]</text>
<text text-anchor="start" x="631.5" y="-587.8" font-family="Helvetica,sans-Serif" font-size="14.00">class = 3</text>
</g>
<!-- 1 -->
<g id="node2" class="node"><title>1</title>
<path fill="none" stroke="black" d="M635,-544C635,-544 492,-544 492,-544 486,-544 480,-538 480,-532 480,-532 480,-473 480,-473 480,-467 486,-461 492,-461 492,-461 635,-461 635,-461 641,-461 647,-467 647,-473 647,-473 647,-532 647,-532 647,-538 641,-544 635,-544"/>
<text text-anchor="start" x="488" y="-528.8" font-family="Helvetica,sans-Serif" font-size="14.00">$pos^4_{std}$ ≤ 14.661</text>
<text text-anchor="start" x="513.5" y="-513.8" font-family="Helvetica,sans-Serif" font-size="14.00">entropy = 0.971</text>
<text text-anchor="start" x="512" y="-498.8" font-family="Helvetica,sans-Serif" font-size="14.00">samples = 1663</text>
<text text-anchor="start" x="491" y="-483.8" font-family="Helvetica,sans-Serif" font-size="14.00">value = [664, 0, 0, 999]</text>
<text text-anchor="start" x="534.5" y="-468.8" font-family="Helvetica,sans-Serif" font-size="14.00">class = 3</text>
</g>
<!-- 0&#45;&gt;1 -->
<g id="edge1" class="edge"><title>0&#45;&gt;1</title>
<path fill="none" stroke="black" d="M626.846,-579.907C619.323,-570.832 611.271,-561.121 603.518,-551.769"/>
<polygon fill="black" stroke="black" points="606.171,-549.485 597.094,-544.021 600.782,-553.953 606.171,-549.485"/>
<text text-anchor="middle" x="594.768" y="-565.212" font-family="Helvetica,sans-Serif" font-size="14.00">True</text>
</g>
<!-- 14 -->
<g id="node15" class="node"><title>14</title>
<path fill="none" stroke="black" d="M839.5,-544C839.5,-544 677.5,-544 677.5,-544 671.5,-544 665.5,-538 665.5,-532 665.5,-532 665.5,-473 665.5,-473 665.5,-467 671.5,-461 677.5,-461 677.5,-461 839.5,-461 839.5,-461 845.5,-461 851.5,-467 851.5,-473 851.5,-473 851.5,-532 851.5,-532 851.5,-538 845.5,-544 839.5,-544"/>
<text text-anchor="start" x="673.5" y="-528.8" font-family="Helvetica,sans-Serif" font-size="14.00">$cur^4_{max}$ ≤ 2745.238</text>
<text text-anchor="start" x="712.5" y="-513.8" font-family="Helvetica,sans-Serif" font-size="14.00">entropy = 1.07</text>
<text text-anchor="start" x="707" y="-498.8" font-family="Helvetica,sans-Serif" font-size="14.00">samples = 1624</text>
<text text-anchor="start" x="681.5" y="-483.8" font-family="Helvetica,sans-Serif" font-size="14.00">value = [0, 944, 657, 23]</text>
<text text-anchor="start" x="729.5" y="-468.8" font-family="Helvetica,sans-Serif" font-size="14.00">class = 1</text>
</g>
<!-- 0&#45;&gt;14 -->
<g id="edge14" class="edge"><title>0&#45;&gt;14</title>
<path fill="none" stroke="black" d="M694.501,-579.907C702.102,-570.832 710.236,-561.121 718.069,-551.769"/>
<polygon fill="black" stroke="black" points="720.821,-553.934 724.559,-544.021 715.455,-549.439 720.821,-553.934"/>
<text text-anchor="middle" x="726.76" y="-565.224" font-family="Helvetica,sans-Serif" font-size="14.00">False</text>
</g>
<!-- 2 -->
<g id="node3" class="node"><title>2</title>
<path fill="none" stroke="black" d="M475,-425C475,-425 308,-425 308,-425 302,-425 296,-419 296,-413 296,-413 296,-354 296,-354 296,-348 302,-342 308,-342 308,-342 475,-342 475,-342 481,-342 487,-348 487,-354 487,-354 487,-413 487,-413 487,-419 481,-425 475,-425"/>
<text text-anchor="start" x="304" y="-409.8" font-family="Helvetica,sans-Serif" font-size="14.00">$pos^4_{mean}$ ≤ 112.341</text>
<text text-anchor="start" x="341.5" y="-394.8" font-family="Helvetica,sans-Serif" font-size="14.00">entropy = 0.625</text>
<text text-anchor="start" x="344" y="-379.8" font-family="Helvetica,sans-Serif" font-size="14.00">samples = 787</text>
<text text-anchor="start" x="319" y="-364.8" font-family="Helvetica,sans-Serif" font-size="14.00">value = [664, 0, 0, 123]</text>
<text text-anchor="start" x="362.5" y="-349.8" font-family="Helvetica,sans-Serif" font-size="14.00">class = 0</text>
</g>
<!-- 1&#45;&gt;2 -->
<g id="edge2" class="edge"><title>1&#45;&gt;2</title>
<path fill="none" stroke="black" d="M503.825,-460.907C489.55,-451.197 474.204,-440.758 459.582,-430.811"/>
<polygon fill="black" stroke="black" points="461.306,-427.751 451.069,-425.021 457.369,-433.539 461.306,-427.751"/>
</g>
<!-- 13 -->
<g id="node14" class="node"><title>13</title>
<path fill="none" stroke="black" d="M638,-417.5C638,-417.5 517,-417.5 517,-417.5 511,-417.5 505,-411.5 505,-405.5 505,-405.5 505,-361.5 505,-361.5 505,-355.5 511,-349.5 517,-349.5 517,-349.5 638,-349.5 638,-349.5 644,-349.5 650,-355.5 650,-361.5 650,-361.5 650,-405.5 650,-405.5 650,-411.5 644,-417.5 638,-417.5"/>
<text text-anchor="start" x="535.5" y="-402.3" font-family="Helvetica,sans-Serif" font-size="14.00">entropy = 0.0</text>
<text text-anchor="start" x="530" y="-387.3" font-family="Helvetica,sans-Serif" font-size="14.00">samples = 876</text>
<text text-anchor="start" x="513" y="-372.3" font-family="Helvetica,sans-Serif" font-size="14.00">value = [0, 0, 0, 876]</text>
<text text-anchor="start" x="548.5" y="-357.3" font-family="Helvetica,sans-Serif" font-size="14.00">class = 3</text>
</g>
<!-- 1&#45;&gt;13 -->
<g id="edge13" class="edge"><title>1&#45;&gt;13</title>
<path fill="none" stroke="black" d="M568.357,-460.907C569.638,-450.204 571.025,-438.615 572.322,-427.776"/>
<polygon fill="black" stroke="black" points="575.818,-428.012 573.531,-417.667 568.868,-427.18 575.818,-428.012"/>
</g>
<!-- 3 -->
<g id="node4" class="node"><title>3</title>
<path fill="none" stroke="black" d="M475,-306C475,-306 304,-306 304,-306 298,-306 292,-300 292,-294 292,-294 292,-235 292,-235 292,-229 298,-223 304,-223 304,-223 475,-223 475,-223 481,-223 487,-229 487,-235 487,-235 487,-294 487,-294 487,-300 481,-306 475,-306"/>
<text text-anchor="start" x="300" y="-290.8" font-family="Helvetica,sans-Serif" font-size="14.00">$cur^4_{mean}$ ≤ 2324.362</text>
<text text-anchor="start" x="339.5" y="-275.8" font-family="Helvetica,sans-Serif" font-size="14.00">entropy = 0.121</text>
<text text-anchor="start" x="342" y="-260.8" font-family="Helvetica,sans-Serif" font-size="14.00">samples = 671</text>
<text text-anchor="start" x="321" y="-245.8" font-family="Helvetica,sans-Serif" font-size="14.00">value = [660, 0, 0, 11]</text>
<text text-anchor="start" x="360.5" y="-230.8" font-family="Helvetica,sans-Serif" font-size="14.00">class = 0</text>
</g>
<!-- 2&#45;&gt;3 -->
<g id="edge3" class="edge"><title>2&#45;&gt;3</title>
<path fill="none" stroke="black" d="M390.806,-341.907C390.663,-333.558 390.511,-324.671 390.364,-316.02"/>
<polygon fill="black" stroke="black" points="393.863,-315.959 390.193,-306.021 386.864,-316.079 393.863,-315.959"/>
</g>
<!-- 10 -->
<g id="node11" class="node"><title>10</title>
<path fill="none" stroke="black" d="M660,-306C660,-306 517,-306 517,-306 511,-306 505,-300 505,-294 505,-294 505,-235 505,-235 505,-229 511,-223 517,-223 517,-223 660,-223 660,-223 666,-223 672,-229 672,-235 672,-235 672,-294 672,-294 672,-300 666,-306 660,-306"/>
<text text-anchor="start" x="513" y="-290.8" font-family="Helvetica,sans-Serif" font-size="14.00">$pos^6_{std}$ ≤ 41.346</text>
<text text-anchor="start" x="538.5" y="-275.8" font-family="Helvetica,sans-Serif" font-size="14.00">entropy = 0.216</text>
<text text-anchor="start" x="541" y="-260.8" font-family="Helvetica,sans-Serif" font-size="14.00">samples = 116</text>
<text text-anchor="start" x="524" y="-245.8" font-family="Helvetica,sans-Serif" font-size="14.00">value = [4, 0, 0, 112]</text>
<text text-anchor="start" x="559.5" y="-230.8" font-family="Helvetica,sans-Serif" font-size="14.00">class = 3</text>
</g>
<!-- 2&#45;&gt;10 -->
<g id="edge10" class="edge"><title>2&#45;&gt;10</title>
<path fill="none" stroke="black" d="M459.848,-341.907C476.504,-332.016 494.432,-321.368 511.461,-311.254"/>
<polygon fill="black" stroke="black" points="513.462,-314.137 520.273,-306.021 509.887,-308.118 513.462,-314.137"/>
</g>
<!-- 4 -->
<g id="node5" class="node"><title>4</title>
<path fill="none" stroke="black" d="M288,-187C288,-187 153,-187 153,-187 147,-187 141,-181 141,-175 141,-175 141,-116 141,-116 141,-110 147,-104 153,-104 153,-104 288,-104 288,-104 294,-104 300,-110 300,-116 300,-116 300,-175 300,-175 300,-181 294,-187 288,-187"/>
<text text-anchor="start" x="149" y="-171.8" font-family="Helvetica,sans-Serif" font-size="14.00">$pos^3_{std}$ ≤ 1.834</text>
<text text-anchor="start" x="170.5" y="-156.8" font-family="Helvetica,sans-Serif" font-size="14.00">entropy = 0.017</text>
<text text-anchor="start" x="173" y="-141.8" font-family="Helvetica,sans-Serif" font-size="14.00">samples = 639</text>
<text text-anchor="start" x="156" y="-126.8" font-family="Helvetica,sans-Serif" font-size="14.00">value = [638, 0, 0, 1]</text>
<text text-anchor="start" x="191.5" y="-111.8" font-family="Helvetica,sans-Serif" font-size="14.00">class = 0</text>
</g>
<!-- 3&#45;&gt;4 -->
<g id="edge4" class="edge"><title>3&#45;&gt;4</title>
<path fill="none" stroke="black" d="M330.866,-222.907C316.84,-213.197 301.762,-202.758 287.394,-192.811"/>
<polygon fill="black" stroke="black" points="289.244,-189.835 279.03,-187.021 285.26,-195.591 289.244,-189.835"/>
</g>
<!-- 7 -->
<g id="node8" class="node"><title>7</title>
<path fill="none" stroke="black" d="M465,-187C465,-187 330,-187 330,-187 324,-187 318,-181 318,-175 318,-175 318,-116 318,-116 318,-110 324,-104 330,-104 330,-104 465,-104 465,-104 471,-104 477,-110 477,-116 477,-116 477,-175 477,-175 477,-181 471,-187 465,-187"/>
<text text-anchor="start" x="326" y="-171.8" font-family="Helvetica,sans-Serif" font-size="14.00">$pos^5_{std}$ ≤ 0.551</text>
<text text-anchor="start" x="347.5" y="-156.8" font-family="Helvetica,sans-Serif" font-size="14.00">entropy = 0.896</text>
<text text-anchor="start" x="354" y="-141.8" font-family="Helvetica,sans-Serif" font-size="14.00">samples = 32</text>
<text text-anchor="start" x="333" y="-126.8" font-family="Helvetica,sans-Serif" font-size="14.00">value = [22, 0, 0, 10]</text>
<text text-anchor="start" x="368.5" y="-111.8" font-family="Helvetica,sans-Serif" font-size="14.00">class = 0</text>
</g>
<!-- 3&#45;&gt;7 -->
<g id="edge7" class="edge"><title>3&#45;&gt;7</title>
<path fill="none" stroke="black" d="M392.276,-222.907C392.846,-214.558 393.454,-205.671 394.046,-197.02"/>
<polygon fill="black" stroke="black" points="397.539,-197.236 394.729,-187.021 390.555,-196.759 397.539,-197.236"/>
</g>
<!-- 5 -->
<g id="node6" class="node"><title>5</title>
<path fill="none" stroke="black" d="M133,-68C133,-68 12,-68 12,-68 6,-68 0,-62 0,-56 0,-56 0,-12 0,-12 0,-6 6,-0 12,-0 12,-0 133,-0 133,-0 139,-0 145,-6 145,-12 145,-12 145,-56 145,-56 145,-62 139,-68 133,-68"/>
<text text-anchor="start" x="30.5" y="-52.8" font-family="Helvetica,sans-Serif" font-size="14.00">entropy = 0.0</text>
<text text-anchor="start" x="25" y="-37.8" font-family="Helvetica,sans-Serif" font-size="14.00">samples = 637</text>
<text text-anchor="start" x="8" y="-22.8" font-family="Helvetica,sans-Serif" font-size="14.00">value = [637, 0, 0, 0]</text>
<text text-anchor="start" x="43.5" y="-7.8" font-family="Helvetica,sans-Serif" font-size="14.00">class = 0</text>
</g>
<!-- 4&#45;&gt;5 -->
<g id="edge5" class="edge"><title>4&#45;&gt;5</title>
<path fill="none" stroke="black" d="M165.39,-103.726C152.446,-94.1494 138.676,-83.9611 125.812,-74.4438"/>
<polygon fill="black" stroke="black" points="127.628,-71.4337 117.508,-68.2996 123.465,-77.061 127.628,-71.4337"/>
</g>
<!-- 6 -->
<g id="node7" class="node"><title>6</title>
<path fill="none" stroke="black" d="M279.5,-68C279.5,-68 175.5,-68 175.5,-68 169.5,-68 163.5,-62 163.5,-56 163.5,-56 163.5,-12 163.5,-12 163.5,-6 169.5,-0 175.5,-0 175.5,-0 279.5,-0 279.5,-0 285.5,-0 291.5,-6 291.5,-12 291.5,-12 291.5,-56 291.5,-56 291.5,-62 285.5,-68 279.5,-68"/>
<text text-anchor="start" x="185.5" y="-52.8" font-family="Helvetica,sans-Serif" font-size="14.00">entropy = 1.0</text>
<text text-anchor="start" x="188" y="-37.8" font-family="Helvetica,sans-Serif" font-size="14.00">samples = 2</text>
<text text-anchor="start" x="171.5" y="-22.8" font-family="Helvetica,sans-Serif" font-size="14.00">value = [1, 0, 0, 1]</text>
<text text-anchor="start" x="198.5" y="-7.8" font-family="Helvetica,sans-Serif" font-size="14.00">class = 0</text>
</g>
<!-- 4&#45;&gt;6 -->
<g id="edge6" class="edge"><title>4&#45;&gt;6</title>
<path fill="none" stroke="black" d="M223.107,-103.726C223.637,-95.4263 224.197,-86.6671 224.733,-78.2834"/>
<polygon fill="black" stroke="black" points="228.226,-78.5025 225.371,-68.2996 221.24,-78.0559 228.226,-78.5025"/>
</g>
<!-- 8 -->
<g id="node9" class="node"><title>8</title>
<path fill="none" stroke="black" d="M441,-68C441,-68 328,-68 328,-68 322,-68 316,-62 316,-56 316,-56 316,-12 316,-12 316,-6 322,-0 328,-0 328,-0 441,-0 441,-0 447,-0 453,-6 453,-12 453,-12 453,-56 453,-56 453,-62 447,-68 441,-68"/>
<text text-anchor="start" x="334.5" y="-52.8" font-family="Helvetica,sans-Serif" font-size="14.00">entropy = 0.258</text>
<text text-anchor="start" x="341" y="-37.8" font-family="Helvetica,sans-Serif" font-size="14.00">samples = 23</text>
<text text-anchor="start" x="324" y="-22.8" font-family="Helvetica,sans-Serif" font-size="14.00">value = [22, 0, 0, 1]</text>
<text text-anchor="start" x="355.5" y="-7.8" font-family="Helvetica,sans-Serif" font-size="14.00">class = 0</text>
</g>
<!-- 7&#45;&gt;8 -->
<g id="edge8" class="edge"><title>7&#45;&gt;8</title>
<path fill="none" stroke="black" d="M392.659,-103.726C391.674,-95.4263 390.634,-86.6671 389.639,-78.2834"/>
<polygon fill="black" stroke="black" points="393.108,-77.8172 388.453,-68.2996 386.157,-78.6425 393.108,-77.8172"/>
</g>
<!-- 9 -->
<g id="node10" class="node"><title>9</title>
<path fill="none" stroke="black" d="M587.5,-68C587.5,-68 483.5,-68 483.5,-68 477.5,-68 471.5,-62 471.5,-56 471.5,-56 471.5,-12 471.5,-12 471.5,-6 477.5,-0 483.5,-0 483.5,-0 587.5,-0 587.5,-0 593.5,-0 599.5,-6 599.5,-12 599.5,-12 599.5,-56 599.5,-56 599.5,-62 593.5,-68 587.5,-68"/>
<text text-anchor="start" x="493.5" y="-52.8" font-family="Helvetica,sans-Serif" font-size="14.00">entropy = 0.0</text>
<text text-anchor="start" x="496" y="-37.8" font-family="Helvetica,sans-Serif" font-size="14.00">samples = 9</text>
<text text-anchor="start" x="479.5" y="-22.8" font-family="Helvetica,sans-Serif" font-size="14.00">value = [0, 0, 0, 9]</text>
<text text-anchor="start" x="506.5" y="-7.8" font-family="Helvetica,sans-Serif" font-size="14.00">class = 3</text>
</g>
<!-- 7&#45;&gt;9 -->
<g id="edge9" class="edge"><title>7&#45;&gt;9</title>
<path fill="none" stroke="black" d="M448.886,-103.726C460.841,-94.2406 473.551,-84.1551 485.447,-74.7159"/>
<polygon fill="black" stroke="black" points="487.875,-77.2571 493.533,-68.2996 483.524,-71.7736 487.875,-77.2571"/>
</g>
<!-- 11 -->
<g id="node12" class="node"><title>11</title>
<path fill="none" stroke="black" d="M635,-179.5C635,-179.5 514,-179.5 514,-179.5 508,-179.5 502,-173.5 502,-167.5 502,-167.5 502,-123.5 502,-123.5 502,-117.5 508,-111.5 514,-111.5 514,-111.5 635,-111.5 635,-111.5 641,-111.5 647,-117.5 647,-123.5 647,-123.5 647,-167.5 647,-167.5 647,-173.5 641,-179.5 635,-179.5"/>
<text text-anchor="start" x="532.5" y="-164.3" font-family="Helvetica,sans-Serif" font-size="14.00">entropy = 0.0</text>
<text text-anchor="start" x="527" y="-149.3" font-family="Helvetica,sans-Serif" font-size="14.00">samples = 112</text>
<text text-anchor="start" x="510" y="-134.3" font-family="Helvetica,sans-Serif" font-size="14.00">value = [0, 0, 0, 112]</text>
<text text-anchor="start" x="545.5" y="-119.3" font-family="Helvetica,sans-Serif" font-size="14.00">class = 3</text>
</g>
<!-- 10&#45;&gt;11 -->
<g id="edge11" class="edge"><title>10&#45;&gt;11</title>
<path fill="none" stroke="black" d="M583.643,-222.907C582.362,-212.204 580.975,-200.615 579.678,-189.776"/>
<polygon fill="black" stroke="black" points="583.132,-189.18 578.469,-179.667 576.182,-190.012 583.132,-189.18"/>
</g>
<!-- 12 -->
<g id="node13" class="node"><title>12</title>
<path fill="none" stroke="black" d="M781.5,-179.5C781.5,-179.5 677.5,-179.5 677.5,-179.5 671.5,-179.5 665.5,-173.5 665.5,-167.5 665.5,-167.5 665.5,-123.5 665.5,-123.5 665.5,-117.5 671.5,-111.5 677.5,-111.5 677.5,-111.5 781.5,-111.5 781.5,-111.5 787.5,-111.5 793.5,-117.5 793.5,-123.5 793.5,-123.5 793.5,-167.5 793.5,-167.5 793.5,-173.5 787.5,-179.5 781.5,-179.5"/>
<text text-anchor="start" x="687.5" y="-164.3" font-family="Helvetica,sans-Serif" font-size="14.00">entropy = 0.0</text>
<text text-anchor="start" x="690" y="-149.3" font-family="Helvetica,sans-Serif" font-size="14.00">samples = 4</text>
<text text-anchor="start" x="673.5" y="-134.3" font-family="Helvetica,sans-Serif" font-size="14.00">value = [4, 0, 0, 0]</text>
<text text-anchor="start" x="700.5" y="-119.3" font-family="Helvetica,sans-Serif" font-size="14.00">class = 0</text>
</g>
<!-- 10&#45;&gt;12 -->
<g id="edge12" class="edge"><title>10&#45;&gt;12</title>
<path fill="none" stroke="black" d="M637.419,-222.907C651.781,-210.99 667.465,-197.976 681.753,-186.12"/>
<polygon fill="black" stroke="black" points="684.069,-188.746 689.53,-179.667 679.599,-183.359 684.069,-188.746"/>
</g>
<!-- 15 -->
<g id="node16" class="node"><title>15</title>
<path fill="none" stroke="black" d="M805,-417.5C805,-417.5 684,-417.5 684,-417.5 678,-417.5 672,-411.5 672,-405.5 672,-405.5 672,-361.5 672,-361.5 672,-355.5 678,-349.5 684,-349.5 684,-349.5 805,-349.5 805,-349.5 811,-349.5 817,-355.5 817,-361.5 817,-361.5 817,-405.5 817,-405.5 817,-411.5 811,-417.5 805,-417.5"/>
<text text-anchor="start" x="702.5" y="-402.3" font-family="Helvetica,sans-Serif" font-size="14.00">entropy = 0.0</text>
<text text-anchor="start" x="697" y="-387.3" font-family="Helvetica,sans-Serif" font-size="14.00">samples = 944</text>
<text text-anchor="start" x="680" y="-372.3" font-family="Helvetica,sans-Serif" font-size="14.00">value = [0, 944, 0, 0]</text>
<text text-anchor="start" x="715.5" y="-357.3" font-family="Helvetica,sans-Serif" font-size="14.00">class = 1</text>
</g>
<!-- 14&#45;&gt;15 -->
<g id="edge15" class="edge"><title>14&#45;&gt;15</title>
<path fill="none" stroke="black" d="M753.643,-460.907C752.362,-450.204 750.975,-438.615 749.678,-427.776"/>
<polygon fill="black" stroke="black" points="753.132,-427.18 748.469,-417.667 746.182,-428.012 753.132,-427.18"/>
</g>
<!-- 16 -->
<g id="node17" class="node"><title>16</title>
<path fill="none" stroke="black" d="M990,-425C990,-425 847,-425 847,-425 841,-425 835,-419 835,-413 835,-413 835,-354 835,-354 835,-348 841,-342 847,-342 847,-342 990,-342 990,-342 996,-342 1002,-348 1002,-354 1002,-354 1002,-413 1002,-413 1002,-419 996,-425 990,-425"/>
<text text-anchor="start" x="843" y="-409.8" font-family="Helvetica,sans-Serif" font-size="14.00">$pos^4_{std}$ ≤ 13.317</text>
<text text-anchor="start" x="868.5" y="-394.8" font-family="Helvetica,sans-Serif" font-size="14.00">entropy = 0.213</text>
<text text-anchor="start" x="871" y="-379.8" font-family="Helvetica,sans-Serif" font-size="14.00">samples = 680</text>
<text text-anchor="start" x="850" y="-364.8" font-family="Helvetica,sans-Serif" font-size="14.00">value = [0, 0, 657, 23]</text>
<text text-anchor="start" x="889.5" y="-349.8" font-family="Helvetica,sans-Serif" font-size="14.00">class = 2</text>
</g>
<!-- 14&#45;&gt;16 -->
<g id="edge16" class="edge"><title>14&#45;&gt;16</title>
<path fill="none" stroke="black" d="M814.011,-460.907C827.166,-451.288 841.299,-440.953 854.787,-431.09"/>
<polygon fill="black" stroke="black" points="857.081,-433.749 863.087,-425.021 852.949,-428.098 857.081,-433.749"/>
</g>
<!-- 17 -->
<g id="node18" class="node"><title>17</title>
<path fill="none" stroke="black" d="M901,-298.5C901,-298.5 780,-298.5 780,-298.5 774,-298.5 768,-292.5 768,-286.5 768,-286.5 768,-242.5 768,-242.5 768,-236.5 774,-230.5 780,-230.5 780,-230.5 901,-230.5 901,-230.5 907,-230.5 913,-236.5 913,-242.5 913,-242.5 913,-286.5 913,-286.5 913,-292.5 907,-298.5 901,-298.5"/>
<text text-anchor="start" x="798.5" y="-283.3" font-family="Helvetica,sans-Serif" font-size="14.00">entropy = 0.0</text>
<text text-anchor="start" x="793" y="-268.3" font-family="Helvetica,sans-Serif" font-size="14.00">samples = 657</text>
<text text-anchor="start" x="776" y="-253.3" font-family="Helvetica,sans-Serif" font-size="14.00">value = [0, 0, 657, 0]</text>
<text text-anchor="start" x="811.5" y="-238.3" font-family="Helvetica,sans-Serif" font-size="14.00">class = 2</text>
</g>
<!-- 16&#45;&gt;17 -->
<g id="edge17" class="edge"><title>16&#45;&gt;17</title>
<path fill="none" stroke="black" d="M891.438,-341.907C883.935,-330.652 875.779,-318.418 868.237,-307.106"/>
<polygon fill="black" stroke="black" points="871.071,-305.046 862.611,-298.667 865.246,-308.929 871.071,-305.046"/>
</g>
<!-- 18 -->
<g id="node19" class="node"><title>18</title>
<path fill="none" stroke="black" d="M1056,-298.5C1056,-298.5 943,-298.5 943,-298.5 937,-298.5 931,-292.5 931,-286.5 931,-286.5 931,-242.5 931,-242.5 931,-236.5 937,-230.5 943,-230.5 943,-230.5 1056,-230.5 1056,-230.5 1062,-230.5 1068,-236.5 1068,-242.5 1068,-242.5 1068,-286.5 1068,-286.5 1068,-292.5 1062,-298.5 1056,-298.5"/>
<text text-anchor="start" x="957.5" y="-283.3" font-family="Helvetica,sans-Serif" font-size="14.00">entropy = 0.0</text>
<text text-anchor="start" x="956" y="-268.3" font-family="Helvetica,sans-Serif" font-size="14.00">samples = 23</text>
<text text-anchor="start" x="939" y="-253.3" font-family="Helvetica,sans-Serif" font-size="14.00">value = [0, 0, 0, 23]</text>
<text text-anchor="start" x="970.5" y="-238.3" font-family="Helvetica,sans-Serif" font-size="14.00">class = 3</text>
</g>
<!-- 16&#45;&gt;18 -->
<g id="edge18" class="edge"><title>16&#45;&gt;18</title>
<path fill="none" stroke="black" d="M946.603,-341.907C954.395,-330.652 962.864,-318.418 970.696,-307.106"/>
<polygon fill="black" stroke="black" points="973.724,-308.881 976.538,-298.667 967.968,-304.897 973.724,-308.881"/>
</g>
</g>
</svg>
